<?xml version="1.0" encoding="utf-8"?>
<!-- Generator: Adobe Illustrator 16.0.0, SVG Export Plug-In . SVG Version: 6.00 Build 0)  -->
<!DOCTYPE svg PUBLIC "-//W3C//DTD SVG 1.1//EN" "http://www.w3.org/Graphics/SVG/1.1/DTD/svg11.dtd">
<svg version="1.1" id="Capa_1" xmlns="http://www.w3.org/2000/svg" xmlns:xlink="http://www.w3.org/1999/xlink" x="0px" y="0px"
	 width="217.334px" height="173.333px" viewBox="0 0 217.334 173.333" enable-background="new 0 0 217.334 173.333"
	 xml:space="preserve">
<g>
	<path fill="#090921" d="M-277.248-168.192c0-0.597,0.105-1.192,0.315-1.785c0.21-0.592,0.516-1.122,0.917-1.589
		c0.401-0.466,0.896-0.847,1.484-1.141c0.588-0.294,1.255-0.441,2.002-0.441c0.886,0,1.645,0.201,2.275,0.602
		c0.63,0.401,1.094,0.924,1.393,1.568l-0.77,0.476c-0.159-0.327-0.353-0.602-0.581-0.826c-0.229-0.224-0.474-0.406-0.735-0.546
		c-0.262-0.14-0.532-0.24-0.812-0.301c-0.28-0.061-0.556-0.091-0.826-0.091c-0.597,0-1.125,0.121-1.582,0.364
		c-0.458,0.243-0.842,0.56-1.155,0.952c-0.313,0.392-0.549,0.833-0.707,1.323c-0.159,0.49-0.238,0.987-0.238,1.491
		c0,0.551,0.096,1.078,0.287,1.582c0.191,0.504,0.453,0.95,0.784,1.337c0.331,0.387,0.723,0.695,1.176,0.924
		s0.945,0.343,1.477,0.343c0.28,0,0.567-0.035,0.861-0.105c0.294-0.07,0.579-0.182,0.854-0.336s0.53-0.345,0.763-0.574
		s0.429-0.506,0.588-0.833l0.812,0.42c-0.159,0.374-0.383,0.703-0.672,0.987c-0.29,0.285-0.611,0.525-0.966,0.721
		c-0.355,0.196-0.73,0.346-1.127,0.448c-0.396,0.103-0.786,0.154-1.169,0.154c-0.681,0-1.307-0.149-1.876-0.448
		c-0.569-0.299-1.059-0.688-1.47-1.169c-0.411-0.48-0.73-1.026-0.959-1.638C-277.133-166.934-277.248-167.557-277.248-168.192z"/>
	<path fill="#090921" d="M-258.445-173.092h0.826l4.13,9.94h-1.036l-1.288-3.108h-4.466l-1.274,3.108h-1.05L-258.445-173.092z
		 M-256.038-167.03l-2.002-4.914l-2.03,4.914H-256.038z"/>
	<path fill="#090921" d="M-246.461-163.152v-9.94h4.116c0.429,0,0.824,0.091,1.183,0.273c0.359,0.182,0.669,0.42,0.931,0.714
		c0.261,0.294,0.466,0.628,0.616,1.001c0.149,0.374,0.224,0.751,0.224,1.134c0,0.411-0.07,0.805-0.21,1.183
		s-0.336,0.711-0.588,1.001c-0.252,0.289-0.553,0.522-0.903,0.7c-0.35,0.177-0.74,0.266-1.169,0.266h-3.22v3.668H-246.461z
		 M-245.481-167.688h3.178c0.29,0,0.553-0.063,0.791-0.189c0.238-0.126,0.441-0.294,0.609-0.504s0.298-0.453,0.392-0.728
		c0.094-0.275,0.14-0.562,0.14-0.861c0-0.308-0.054-0.6-0.161-0.875c-0.107-0.275-0.252-0.516-0.434-0.721
		c-0.182-0.205-0.397-0.366-0.644-0.483c-0.248-0.117-0.506-0.175-0.777-0.175h-3.094V-167.688z"/>
	<path fill="#090921" d="M-229.704-173.092h0.826l4.13,9.94h-1.036l-1.288-3.108h-4.466l-1.274,3.108h-1.05L-229.704-173.092z
		 M-227.296-167.03l-2.002-4.914l-2.03,4.914H-227.296z"/>
	<path fill="#090921" d="M-218.742-168.192c0-0.597,0.105-1.192,0.315-1.785c0.21-0.592,0.516-1.122,0.917-1.589
		c0.401-0.466,0.896-0.847,1.484-1.141s1.255-0.441,2.002-0.441c0.886,0,1.645,0.201,2.275,0.602
		c0.63,0.401,1.094,0.924,1.393,1.568l-0.77,0.476c-0.159-0.327-0.353-0.602-0.581-0.826c-0.229-0.224-0.474-0.406-0.735-0.546
		c-0.262-0.14-0.532-0.24-0.812-0.301c-0.28-0.061-0.556-0.091-0.826-0.091c-0.597,0-1.125,0.121-1.582,0.364
		c-0.458,0.243-0.842,0.56-1.155,0.952c-0.313,0.392-0.549,0.833-0.707,1.323c-0.159,0.49-0.238,0.987-0.238,1.491
		c0,0.551,0.096,1.078,0.287,1.582c0.191,0.504,0.453,0.95,0.784,1.337c0.331,0.387,0.723,0.695,1.176,0.924
		c0.453,0.229,0.945,0.343,1.477,0.343c0.28,0,0.567-0.035,0.861-0.105c0.294-0.07,0.579-0.182,0.854-0.336
		c0.275-0.154,0.53-0.345,0.763-0.574s0.429-0.506,0.588-0.833l0.812,0.42c-0.159,0.374-0.383,0.703-0.672,0.987
		c-0.29,0.285-0.611,0.525-0.966,0.721c-0.355,0.196-0.73,0.346-1.127,0.448c-0.396,0.103-0.786,0.154-1.169,0.154
		c-0.681,0-1.307-0.149-1.876-0.448c-0.569-0.299-1.059-0.688-1.47-1.169c-0.411-0.48-0.73-1.026-0.959-1.638
		C-218.627-166.934-218.742-167.557-218.742-168.192z"/>
	<path fill="#090921" d="M-202.879-163.152v-9.94h0.98v9.94H-202.879z"/>
	<path fill="#090921" d="M-186.752-172.224h-3.542v9.072h-0.98v-9.072h-3.542v-0.868h8.064V-172.224L-186.752-172.224z"/>
	<path fill="#090921" d="M-177.567-173.092h0.825l4.13,9.94h-1.035l-1.289-3.108h-4.465l-1.275,3.108h-1.049L-177.567-173.092z
		 M-175.16-167.03l-2.002-4.914l-2.03,4.914H-175.16z"/>
	<path fill="#090921" d="M-166.606-168.192c0-0.597,0.105-1.192,0.315-1.785c0.21-0.592,0.516-1.122,0.917-1.589
		c0.401-0.466,0.896-0.847,1.484-1.141c0.588-0.294,1.255-0.441,2.002-0.441c0.887,0,1.645,0.201,2.275,0.602
		c0.629,0.401,1.094,0.924,1.393,1.568l-0.77,0.476c-0.159-0.327-0.354-0.602-0.582-0.826c-0.229-0.224-0.473-0.406-0.734-0.546
		c-0.262-0.14-0.532-0.24-0.813-0.301c-0.279-0.061-0.555-0.091-0.826-0.091c-0.597,0-1.125,0.121-1.582,0.364
		c-0.457,0.243-0.842,0.56-1.154,0.952c-0.312,0.392-0.549,0.833-0.707,1.323c-0.159,0.49-0.238,0.987-0.238,1.491
		c0,0.551,0.096,1.078,0.287,1.582c0.191,0.504,0.453,0.95,0.784,1.337c0.331,0.387,0.724,0.695,1.176,0.924
		c0.452,0.229,0.944,0.343,1.478,0.343c0.279,0,0.566-0.035,0.86-0.105c0.294-0.07,0.579-0.182,0.854-0.336s0.529-0.345,0.763-0.574
		c0.233-0.229,0.429-0.506,0.588-0.833l0.812,0.42c-0.158,0.374-0.383,0.703-0.672,0.987c-0.289,0.284-0.611,0.525-0.965,0.721
		c-0.355,0.196-0.73,0.346-1.128,0.448c-0.396,0.103-0.786,0.154-1.169,0.154c-0.682,0-1.307-0.149-1.876-0.448
		c-0.569-0.299-1.06-0.688-1.47-1.169c-0.411-0.48-0.73-1.026-0.959-1.638C-166.492-166.935-166.606-167.557-166.606-168.192z"/>
	<path fill="#090921" d="M-150.743-163.152v-9.94h0.979v9.94H-150.743z"/>
	<path fill="#090921" d="M-137.668-163.082c-0.69,0-1.323-0.142-1.897-0.427c-0.574-0.285-1.066-0.663-1.477-1.134
		c-0.41-0.471-0.729-1.01-0.952-1.617c-0.224-0.606-0.336-1.227-0.336-1.862c0-0.663,0.119-1.297,0.356-1.904
		c0.238-0.606,0.568-1.143,0.988-1.61c0.42-0.467,0.914-0.838,1.483-1.113s1.185-0.413,1.849-0.413c0.689,0,1.322,0.147,1.896,0.441
		c0.574,0.294,1.064,0.679,1.47,1.155c0.406,0.476,0.722,1.015,0.945,1.617c0.223,0.602,0.336,1.216,0.336,1.841
		c0,0.663-0.119,1.297-0.356,1.904c-0.238,0.606-0.565,1.141-0.98,1.603c-0.416,0.462-0.908,0.831-1.477,1.106
		C-136.39-163.219-137.005-163.082-137.668-163.082z M-141.351-168.122c0,0.542,0.09,1.062,0.267,1.561
		c0.177,0.5,0.429,0.943,0.756,1.33c0.327,0.388,0.714,0.695,1.162,0.924c0.448,0.229,0.947,0.343,1.498,0.343
		c0.56,0,1.068-0.121,1.526-0.364c0.457-0.243,0.844-0.56,1.162-0.952c0.316-0.392,0.562-0.835,0.734-1.33
		c0.172-0.495,0.26-0.999,0.26-1.512c0-0.541-0.092-1.062-0.273-1.561c-0.182-0.5-0.437-0.94-0.764-1.323
		c-0.326-0.383-0.713-0.688-1.162-0.917c-0.447-0.229-0.942-0.343-1.483-0.343c-0.56,0-1.069,0.119-1.526,0.357
		c-0.457,0.238-0.844,0.553-1.162,0.945c-0.316,0.392-0.563,0.835-0.734,1.33C-141.264-169.139-141.351-168.635-141.351-168.122z
		 M-137.569-174.45l-0.631-0.238l0.826-1.302h1.008L-137.569-174.45z"/>
	<path fill="#090921" d="M-124.578-171.272v8.12h-0.979v-9.94h0.756l6.58,8.274v-8.26h0.979v9.926h-0.854L-124.578-171.272z"/>
</g>
<g>
	<g id="presentation-training-teaching-meeting-discussion_3_">
		<path fill="#090921" d="M-230.407-121.824c0,5.203,4.231,9.435,9.434,9.435c5.203,0,9.435-4.231,9.435-9.435
			c0-5.201-4.231-9.433-9.435-9.433C-226.176-131.257-230.407-127.025-230.407-121.824z M-214.685-121.824
			c0,3.47-2.819,6.289-6.289,6.289c-3.468,0-6.289-2.819-6.289-6.289c0-3.468,2.821-6.288,6.289-6.288
			C-217.504-128.112-214.685-125.292-214.685-121.824z"/>
		<path fill="#090921" d="M-197.85-104.989l11.006-11.006c0.614-0.615,0.614-1.609,0-2.223l-4.717-4.717
			c-0.582-0.582-1.513-0.617-2.135-0.082l-10.823,9.276l-10.487,4.496h-18.546c-0.454,0-0.883,0.193-1.182,0.537L-245.74-96.13
			c-0.368,0.42-0.485,1.002-0.309,1.533l4.717,14.15c0.146,0.43,0.469,0.779,0.891,0.953c0.421,0.172,0.895,0.158,1.305-0.045
			l6.289-3.145c0.538-0.27,0.867-0.809,0.867-1.377v26.699c0,4.334,3.527,7.859,7.861,7.859h12.579c0.867,0,1.572-0.701,1.572-1.572
			V-98.84l11.708-5.855C-198.106-104.768-197.969-104.87-197.85-104.989z M-231.979-84.122c0-0.184-0.039-0.371-0.11-0.553
			l-2.806-7.01l2.916-3.645V-84.122z M-212.242-101.219c-0.532,0.268-0.87,0.811-0.87,1.408v47.168h-6.289v-25.156
			c0-0.871-0.704-1.572-1.572-1.572c-0.867,0-1.572,0.701-1.572,1.572v25.156h-1.572c-2.6,0-4.717-2.117-4.717-4.717v-42.451
			c0-0.67-0.421-1.264-1.051-1.482c-0.629-0.223-1.332-0.021-1.749,0.498l-6.289,7.861c-0.354,0.443-0.441,1.041-0.232,1.566
			l2.608,6.52l-3.374,1.686l-3.858-11.574l9.943-11.363h18.152c0.213,0,0.425-0.043,0.619-0.129l11.006-4.717
			c0.147-0.063,0.284-0.146,0.404-0.252l9.9-8.483l2.576,2.573l-9.713,9.714L-212.242-101.219z"/>
		<polygon fill="#090921" points="-224.118,-99.811 -222.546,-99.811 -222.546,-87.233 -219.401,-87.233 -219.401,-99.811 
			-217.829,-99.811 -217.829,-102.956 -224.118,-102.956 		"/>
		<path fill="#090921" d="M-145.505-71.51c0-5.203-4.23-9.434-9.434-9.434c-3.279,0-6.169,1.684-7.861,4.229
			c-1.691-2.547-4.581-4.229-7.86-4.229c-3.28,0-6.17,1.684-7.861,4.229c-1.692-2.547-4.582-4.229-7.861-4.229
			c-5.203,0-9.434,4.23-9.434,9.434c0,3.279,1.684,6.168,4.229,7.861c-2.547,1.691-4.229,4.58-4.229,7.861v6.287h3.145v-6.287
			c0-3.469,2.82-6.289,6.289-6.289c3.468,0,6.289,2.82,6.289,6.289v6.287h3.145v-6.287c0-3.469,2.82-6.289,6.289-6.289
			c3.468,0,6.289,2.82,6.289,6.289v6.287h3.144v-6.287c0-3.469,2.821-6.289,6.289-6.289c3.469,0,6.289,2.82,6.289,6.289v6.287h3.145
			v-6.287c0-3.281-1.684-6.17-4.229-7.861C-147.188-65.342-145.505-68.231-145.505-71.51z M-170.66-77.799
			c3.468,0,6.289,2.82,6.289,6.289c0,3.467-2.821,6.289-6.289,6.289c-3.469,0-6.289-2.822-6.289-6.289
			C-176.949-74.979-174.128-77.799-170.66-77.799z M-192.672-71.51c0-3.469,2.82-6.289,6.289-6.289c3.468,0,6.289,2.82,6.289,6.289
			c0,3.467-2.821,6.289-6.289,6.289C-189.852-65.221-192.672-68.043-192.672-71.51z M-178.521-60.993
			c-0.7-1.055-1.604-1.957-2.657-2.656c1.053-0.701,1.957-1.605,2.657-2.658c0.699,1.053,1.603,1.957,2.656,2.658
			C-176.919-62.95-177.822-62.047-178.521-60.993z M-162.8-60.993c-0.699-1.055-1.604-1.957-2.656-2.656
			c1.053-0.701,1.957-1.605,2.656-2.658c0.7,1.053,1.604,1.957,2.657,2.658C-161.196-62.95-162.1-62.047-162.8-60.993z
			 M-154.938-65.221c-3.468,0-6.289-2.822-6.289-6.289c0-3.469,2.821-6.289,6.289-6.289c3.469,0,6.289,2.82,6.289,6.289
			C-148.649-68.043-151.47-65.221-154.938-65.221z"/>
		<path fill="#090921" d="M-147.077-150.124h-58.173c-0.868,0-1.572,0.703-1.572,1.572v29.872h3.145v-28.3h55.028v42.452
			c0,2.6-2.116,4.717-4.717,4.717h-48.739v3.145h48.739c4.335,0,7.861-3.527,7.861-7.861v-44.024
			C-145.505-149.421-146.21-150.124-147.077-150.124z"/>
		<path fill="#090921" d="M-180.094-142.263h-15.723c-0.868,0-1.572,0.703-1.572,1.572v6.289c0,0.87,0.704,1.572,1.572,1.572h15.723
			c0.867,0,1.572-0.702,1.572-1.572v-1.572h4.717v1.572c0,0.87,0.704,1.572,1.572,1.572h6.289v4.717h-6.289
			c-0.868,0-1.572,0.703-1.572,1.572v6.288c0,0.87,0.704,1.572,1.572,1.572h6.289v4.718h-6.289c-0.868,0-1.572,0.703-1.572,1.572
			v6.29c0,0.869,0.704,1.572,1.572,1.572h15.722c0.868,0,1.572-0.703,1.572-1.572v-6.29c0-0.869-0.704-1.572-1.572-1.572h-6.289
			v-4.718h6.289c0.868,0,1.572-0.702,1.572-1.572v-6.288c0-0.869-0.704-1.572-1.572-1.572h-6.289v-4.717h6.289
			c0.868,0,1.572-0.702,1.572-1.572v-6.289c0-0.869-0.704-1.572-1.572-1.572h-15.722c-0.868,0-1.572,0.703-1.572,1.572v1.572h-4.717
			v-1.572C-178.521-141.56-179.227-142.263-180.094-142.263z M-181.666-135.974h-12.578v-3.145h12.578V-135.974z M-158.083-107.672
			h-12.577v-3.145h12.577V-107.672z M-158.083-121.824h-12.577v-3.144h12.577V-121.824z M-170.66-139.118h12.577v3.145h-12.577
			V-139.118z"/>
		<rect x="-195.816" y="-129.685" fill="#090921" width="17.295" height="3.145"/>
		<rect x="-184.811" y="-123.396" fill="#090921" width="6.289" height="3.145"/>
		<rect x="-183.238" y="-117.107" fill="#090921" width="4.717" height="3.146"/>
		<rect x="-187.955" y="-110.817" fill="#090921" width="9.434" height="3.145"/>
		<path fill="#090921" d="M-239.841-134.401h0.786l4.245,5.66c0.304,0.402,0.772,0.629,1.258,0.629c0.166,0,0.335-0.026,0.497-0.082
			c0.644-0.213,1.075-0.813,1.075-1.49v-4.717h9.434c2.602,0,4.717-2.116,4.717-4.717v-6.289c0-2.601-2.115-4.717-4.717-4.717
			h-17.295c-2.6,0-4.717,2.116-4.717,4.717v6.289C-244.558-136.518-242.44-134.401-239.841-134.401z M-241.413-145.407
			c0-0.868,0.707-1.572,1.572-1.572h17.295c0.866,0,1.572,0.704,1.572,1.572v6.289c0,0.867-0.706,1.572-1.572,1.572h-11.006
			c-0.867,0-1.572,0.703-1.572,1.572v1.572l-1.887-2.516c-0.297-0.396-0.762-0.629-1.258-0.629h-1.572
			c-0.865,0-1.572-0.705-1.572-1.572V-145.407z"/>
		<rect x="-238.269" y="-143.835" fill="#090921" width="14.15" height="3.145"/>
	</g>
	<g id="Layer_1_2_">
	</g>
</g>
<g>
	<path fill="#090921" d="M12.19,23c0-0.707,0.124-1.411,0.373-2.112c0.249-0.7,0.611-1.328,1.085-1.88
		c0.475-0.552,1.06-1.002,1.756-1.35c0.695-0.348,1.485-0.521,2.369-0.521c1.048,0,1.946,0.238,2.691,0.712
		c0.745,0.474,1.294,1.093,1.648,1.855l-0.911,0.563c-0.188-0.387-0.418-0.712-0.688-0.978c-0.271-0.265-0.561-0.48-0.87-0.646
		c-0.31-0.166-0.629-0.284-0.96-0.356c-0.332-0.072-0.658-0.107-0.978-0.107c-0.707,0-1.331,0.143-1.872,0.431
		c-0.542,0.287-0.996,0.662-1.366,1.126c-0.37,0.464-0.65,0.986-0.836,1.565c-0.188,0.58-0.282,1.168-0.282,1.764
		c0,0.652,0.114,1.275,0.339,1.872c0.226,0.596,0.536,1.124,0.928,1.582c0.392,0.458,0.854,0.822,1.391,1.093
		s1.118,0.406,1.748,0.406c0.331,0,0.67-0.041,1.018-0.124c0.348-0.083,0.686-0.215,1.011-0.397s0.627-0.408,0.903-0.679
		s0.507-0.599,0.695-0.985l0.961,0.497c-0.188,0.443-0.453,0.832-0.795,1.168c-0.343,0.337-0.723,0.621-1.143,0.853
		c-0.42,0.231-0.864,0.409-1.333,0.53c-0.469,0.122-0.93,0.183-1.383,0.183c-0.806,0-1.546-0.177-2.22-0.53
		s-1.253-0.814-1.739-1.383c-0.486-0.568-0.863-1.214-1.134-1.938C12.325,24.487,12.19,23.75,12.19,23z"/>
	<path fill="#090921" d="M34.436,17.203h0.977L40.3,28.963h-1.226l-1.524-3.678h-5.284l-1.508,3.678h-1.242L34.436,17.203z
		 M37.285,24.375l-2.369-5.814l-2.402,5.814H37.285z"/>
	<path fill="#090921" d="M48.614,28.963V17.203h4.87c0.508,0,0.975,0.108,1.4,0.323c0.425,0.215,0.792,0.497,1.102,0.845
		c0.309,0.348,0.551,0.743,0.729,1.185c0.176,0.442,0.264,0.888,0.264,1.341c0,0.486-0.083,0.953-0.248,1.4
		c-0.166,0.447-0.397,0.841-0.696,1.184c-0.298,0.342-0.654,0.618-1.068,0.829c-0.414,0.209-0.875,0.314-1.383,0.314h-3.81v4.34
		H48.614z M49.774,23.597h3.76c0.343,0,0.655-0.075,0.936-0.224c0.282-0.149,0.522-0.348,0.721-0.596s0.353-0.536,0.463-0.861
		c0.112-0.326,0.166-0.665,0.166-1.019c0-0.364-0.063-0.709-0.19-1.035c-0.127-0.326-0.299-0.61-0.514-0.853
		c-0.216-0.243-0.47-0.433-0.762-0.571c-0.293-0.139-0.599-0.208-0.919-0.208h-3.661V23.597z"/>
	<path fill="#090921" d="M68.441,17.203h0.978l4.886,11.761h-1.226l-1.523-3.678h-5.284l-1.507,3.678h-1.242L68.441,17.203z
		 M71.291,24.375l-2.369-5.814l-2.402,5.814H71.291z"/>
	<path fill="#090921" d="M81.411,23c0-0.707,0.124-1.411,0.373-2.112c0.249-0.7,0.61-1.328,1.085-1.88
		c0.475-0.552,1.06-1.002,1.756-1.35c0.695-0.348,1.484-0.521,2.369-0.521c1.048,0,1.946,0.238,2.691,0.712
		c0.745,0.474,1.294,1.093,1.648,1.855l-0.911,0.563c-0.188-0.387-0.418-0.712-0.688-0.978c-0.271-0.265-0.561-0.48-0.87-0.646
		c-0.31-0.166-0.63-0.284-0.961-0.356c-0.332-0.072-0.658-0.107-0.977-0.107c-0.706,0-1.331,0.143-1.872,0.431
		c-0.542,0.287-0.996,0.662-1.366,1.126s-0.649,0.986-0.836,1.565c-0.188,0.58-0.282,1.168-0.282,1.764
		c0,0.652,0.114,1.275,0.34,1.872c0.227,0.596,0.536,1.124,0.928,1.582s0.855,0.822,1.391,1.093
		c0.536,0.271,1.119,0.406,1.748,0.406c0.332,0,0.671-0.041,1.019-0.124s0.685-0.215,1.011-0.397
		c0.325-0.182,0.626-0.408,0.902-0.679c0.275-0.271,0.508-0.599,0.695-0.985l0.961,0.497c-0.188,0.443-0.453,0.832-0.795,1.168
		c-0.343,0.337-0.723,0.621-1.143,0.853c-0.42,0.231-0.864,0.409-1.333,0.53c-0.469,0.122-0.93,0.183-1.383,0.183
		c-0.806,0-1.547-0.177-2.22-0.53s-1.252-0.814-1.739-1.383c-0.486-0.568-0.864-1.214-1.134-1.938
		C81.546,24.487,81.411,23.75,81.411,23z"/>
	<path fill="#090921" d="M100.179,28.963V17.203h1.159v11.761H100.179z"/>
	<path fill="#090921" d="M119.26,18.229h-4.19v10.734h-1.159V18.229h-4.19v-1.027h9.54V18.229z"/>
	<path fill="#090921" d="M130.126,17.203h0.977l4.887,11.761h-1.225l-1.525-3.678h-5.282l-1.509,3.678h-1.241L130.126,17.203z
		 M132.975,24.375l-2.369-5.814l-2.401,5.814H132.975z"/>
	<path fill="#090921" d="M143.095,23c0-0.707,0.124-1.411,0.373-2.112c0.247-0.7,0.61-1.328,1.084-1.88
		c0.475-0.552,1.061-1.002,1.756-1.35c0.696-0.348,1.486-0.521,2.369-0.521c1.049,0,1.945,0.238,2.692,0.712
		c0.744,0.474,1.294,1.093,1.647,1.855l-0.911,0.563c-0.188-0.387-0.419-0.712-0.688-0.978c-0.271-0.265-0.559-0.48-0.868-0.646
		c-0.311-0.166-0.629-0.284-0.962-0.356c-0.33-0.072-0.656-0.107-0.978-0.107c-0.707,0-1.331,0.143-1.871,0.431
		c-0.541,0.287-0.996,0.662-1.366,1.126s-0.649,0.986-0.837,1.565c-0.187,0.58-0.281,1.168-0.281,1.764
		c0,0.652,0.114,1.275,0.34,1.872c0.227,0.596,0.536,1.124,0.928,1.582s0.855,0.822,1.392,1.093
		c0.534,0.271,1.116,0.406,1.749,0.406c0.329,0,0.669-0.041,1.018-0.124c0.347-0.083,0.684-0.215,1.01-0.397
		s0.626-0.408,0.903-0.679c0.275-0.271,0.506-0.599,0.695-0.985l0.961,0.497c-0.188,0.443-0.453,0.832-0.795,1.168
		c-0.343,0.336-0.724,0.621-1.144,0.853c-0.419,0.231-0.862,0.409-1.333,0.53c-0.469,0.122-0.931,0.183-1.384,0.183
		c-0.807,0-1.546-0.177-2.219-0.53c-0.674-0.354-1.255-0.814-1.74-1.383c-0.485-0.568-0.864-1.214-1.135-1.938
		C143.23,24.487,143.095,23.75,143.095,23z"/>
	<path fill="#090921" d="M161.862,28.963V17.203h1.159v11.761H161.862z"/>
	<path fill="#090921" d="M177.333,29.046c-0.815,0-1.564-0.168-2.243-0.506c-0.68-0.337-1.262-0.784-1.747-1.341
		c-0.485-0.557-0.863-1.195-1.128-1.914c-0.264-0.717-0.397-1.451-0.397-2.203c0-0.785,0.141-1.534,0.422-2.252
		c0.282-0.717,0.672-1.353,1.169-1.905c0.497-0.552,1.082-0.991,1.755-1.316c0.673-0.326,1.401-0.489,2.188-0.489
		c0.814,0,1.563,0.174,2.243,0.522c0.679,0.348,1.259,0.804,1.739,1.367c0.481,0.563,0.854,1.201,1.119,1.913
		c0.263,0.712,0.397,1.439,0.397,2.178c0,0.785-0.142,1.535-0.422,2.252c-0.282,0.717-0.669,1.351-1.159,1.897
		c-0.492,0.546-1.074,0.983-1.748,1.308C178.846,28.883,178.119,29.046,177.333,29.046z M172.977,23.082
		c0,0.641,0.105,1.256,0.315,1.847c0.21,0.592,0.508,1.116,0.894,1.574c0.389,0.459,0.846,0.822,1.375,1.093
		c0.532,0.271,1.121,0.406,1.772,0.406c0.663,0,1.265-0.143,1.807-0.431c0.54-0.287,0.999-0.663,1.374-1.126
		c0.374-0.464,0.665-0.989,0.868-1.574c0.204-0.586,0.309-1.182,0.309-1.789c0-0.64-0.109-1.257-0.322-1.847
		c-0.216-0.591-0.518-1.112-0.905-1.565c-0.386-0.454-0.843-0.814-1.375-1.085c-0.527-0.271-1.114-0.406-1.755-0.406
		c-0.662,0-1.264,0.141-1.805,0.422c-0.54,0.282-0.998,0.655-1.375,1.119c-0.374,0.464-0.665,0.988-0.868,1.573
		C173.079,21.878,172.977,22.475,172.977,23.082z M177.45,15.596l-0.748-0.281l0.978-1.54h1.193L177.45,15.596z"/>
	<path fill="#090921" d="M192.82,19.356v9.607h-1.158V17.203h0.895l7.784,9.79v-9.773h1.159v11.744h-1.011L192.82,19.356z"/>
</g>
<g>
	<g id="presentation-training-teaching-meeting-discussion_1_">
		<path fill="#090921" d="M67.609,77.859c0,6.156,5.006,11.164,11.162,11.164s11.163-5.007,11.163-11.164
			c0-6.153-5.006-11.159-11.163-11.159C72.616,66.7,67.609,71.706,67.609,77.859z M86.211,77.859c0,4.107-3.335,7.441-7.441,7.441
			c-4.103,0-7.441-3.334-7.441-7.441c0-4.102,3.338-7.438,7.441-7.438C82.876,70.421,86.211,73.757,86.211,77.859z"/>
		<path fill="#090921" d="M106.129,97.78l13.022-13.022c0.727-0.728,0.727-1.904,0-2.631l-5.581-5.581
			c-0.688-0.688-1.79-0.73-2.525-0.097L98.239,87.422l-12.408,5.321H63.889c-0.537,0-1.045,0.228-1.398,0.635L49.469,108.26
			c-0.436,0.497-0.574,1.186-0.365,1.813l5.581,16.741c0.172,0.509,0.555,0.923,1.054,1.128c0.498,0.203,1.059,0.188,1.544-0.053
			l7.44-3.721c0.637-0.32,1.026-0.958,1.026-1.629v31.589c0,5.128,4.172,9.298,9.3,9.298h14.883c1.026,0,1.86-0.83,1.86-1.86
			v-56.514l13.853-6.927C105.826,98.039,105.989,97.919,106.129,97.78z M65.749,122.467c0-0.218-0.046-0.438-0.13-0.655l-3.32-8.293
			l3.45-4.313V122.467z M89.101,102.237c-0.629,0.318-1.029,0.961-1.029,1.667v55.807h-7.44v-29.763c0-1.03-0.833-1.86-1.86-1.86
			c-1.025,0-1.86,0.83-1.86,1.86v29.763h-1.86c-3.076,0-5.581-2.505-5.581-5.581v-50.226c0-0.793-0.498-1.495-1.243-1.753
			c-0.745-0.265-1.576-0.024-2.069,0.589l-7.441,9.3c-0.419,0.524-0.521,1.232-0.274,1.854l3.085,7.714l-3.992,1.995l-4.564-13.692
			l11.764-13.445h21.477c0.251,0,0.503-0.051,0.732-0.152l13.021-5.58c0.174-0.076,0.336-0.174,0.479-0.299l11.712-10.036
			l3.048,3.043l-11.492,11.495L89.101,102.237z"/>
		<polygon fill="#090921" points="75.049,103.904 76.911,103.904 76.911,118.788 80.631,118.788 80.631,103.904 82.49,103.904 
			82.49,100.184 75.049,100.184 		"/>
		<path fill="#090921" d="M168.063,137.387c0-6.154-5.006-11.161-11.163-11.161c-3.878,0-7.299,1.992-9.3,5.004
			c-2.001-3.015-5.421-5.004-9.301-5.004s-7.3,1.992-9.3,5.004c-2.002-3.015-5.422-5.004-9.301-5.004
			c-6.156,0-11.162,5.005-11.162,11.161c0,3.88,1.992,7.298,5.004,9.302c-3.014,2.001-5.004,5.419-5.004,9.301v7.438h3.721v-7.438
			c0-4.104,3.337-7.441,7.441-7.441c4.103,0,7.44,3.337,7.44,7.441v7.438h3.722v-7.438c0-4.104,3.337-7.441,7.44-7.441
			s7.441,3.337,7.441,7.441v7.438h3.719v-7.438c0-4.104,3.338-7.441,7.441-7.441c4.104,0,7.44,3.337,7.44,7.441v7.438h3.722v-7.438
			c0-3.882-1.993-7.3-5.004-9.301C166.069,144.685,168.063,141.27,168.063,137.387z M138.299,129.947c4.103,0,7.44,3.337,7.44,7.44
			s-3.338,7.441-7.44,7.441c-4.104,0-7.441-3.338-7.441-7.441C130.857,133.286,134.197,129.947,138.299,129.947z M112.256,137.387
			c0-4.104,3.337-7.44,7.441-7.44c4.103,0,7.44,3.337,7.44,7.44s-3.338,7.441-7.44,7.441
			C115.593,144.829,112.256,141.491,112.256,137.387z M128.998,149.833c-0.829-1.248-1.898-2.315-3.145-3.142
			c1.246-0.83,2.315-1.899,3.145-3.146c0.827,1.246,1.896,2.315,3.143,3.146C130.895,147.517,129.825,148.584,128.998,149.833z
			 M147.6,149.833c-0.827-1.248-1.898-2.315-3.143-3.142c1.245-0.83,2.315-1.899,3.143-3.146c0.827,1.246,1.897,2.315,3.143,3.146
			C149.496,147.517,148.427,148.584,147.6,149.833z M156.899,144.829c-4.103,0-7.44-3.338-7.44-7.441s3.338-7.44,7.44-7.44
			c4.104,0,7.441,3.337,7.441,7.44S161.004,144.829,156.899,144.829z"/>
		<path fill="#090921" d="M166.199,44.377H97.373c-1.027,0-1.859,0.832-1.859,1.859v35.342h3.72v-33.48h65.107v50.227
			c0,3.076-2.504,5.581-5.581,5.581h-57.666v3.721h57.665c5.13,0,9.301-4.174,9.301-9.302V46.237
			C168.063,45.209,167.229,44.377,166.199,44.377z"/>
		<path fill="#090921" d="M127.138,53.678h-18.603c-1.027,0-1.86,0.832-1.86,1.86v7.441c0,1.028,0.833,1.86,1.86,1.86h18.603
			c1.025,0,1.86-0.832,1.86-1.86v-1.86h5.58v1.86c0,1.028,0.833,1.86,1.86,1.86h7.44v5.581h-7.44c-1.027,0-1.86,0.832-1.86,1.86
			v7.438c0,1.03,0.833,1.859,1.86,1.859h7.44v5.584h-7.44c-1.027,0-1.86,0.831-1.86,1.859v7.441c0,1.028,0.833,1.86,1.86,1.86
			h18.603c1.025,0,1.858-0.832,1.858-1.86v-7.441c0-1.028-0.833-1.859-1.858-1.859H147.6v-5.584h7.441
			c1.025,0,1.858-0.829,1.858-1.859V72.28c0-1.028-0.833-1.86-1.858-1.86H147.6v-5.581h7.441c1.025,0,1.858-0.832,1.858-1.86v-7.441
			c0-1.028-0.833-1.86-1.858-1.86h-18.603c-1.027,0-1.86,0.832-1.86,1.86v1.86h-5.58v-1.86
			C128.998,54.51,128.163,53.678,127.138,53.678z M125.276,61.119h-14.882v-3.721h14.882V61.119z M153.178,94.603h-14.879v-3.722
			h14.879V94.603z M153.178,77.859h-14.879V74.14h14.879V77.859z M138.299,57.399h14.879v3.721h-14.879V57.399z"/>
		<rect x="108.535" y="68.56" fill="#090921" width="20.463" height="3.721"/>
		<rect x="121.557" y="76" fill="#090921" width="7.441" height="3.721"/>
		<rect x="123.417" y="83.44" fill="#090921" width="5.581" height="3.723"/>
		<rect x="117.836" y="90.884" fill="#090921" width="11.162" height="3.721"/>
		<path fill="#090921" d="M56.448,62.98h0.93l5.022,6.696c0.36,0.476,0.914,0.745,1.489,0.745c0.196,0,0.396-0.032,0.587-0.097
			c0.762-0.252,1.272-0.962,1.272-1.763V62.98h11.162c3.079,0,5.581-2.505,5.581-5.581v-7.441c0-3.079-2.502-5.581-5.581-5.581
			H56.448c-3.076,0-5.581,2.502-5.581,5.581v7.441C50.867,60.474,53.372,62.98,56.448,62.98z M54.587,49.958
			c0-1.028,0.836-1.86,1.86-1.86H76.91c1.024,0,1.859,0.832,1.859,1.86v7.441c0,1.026-0.835,1.86-1.859,1.86H63.889
			c-1.026,0-1.86,0.831-1.86,1.859v1.86l-2.232-2.977c-0.352-0.468-0.902-0.744-1.489-0.744h-1.86c-1.023,0-1.86-0.834-1.86-1.86
			L54.587,49.958L54.587,49.958z"/>
		<rect x="58.308" y="51.818" fill="#090921" width="16.741" height="3.721"/>
	</g>
	<g id="Layer_1_1_">
	</g>
</g>
<g>
	<line fill="#FFFFFF" stroke="#B1B1B1" stroke-miterlimit="10" x1="305.167" y1="157.565" x2="305.167" y2="87.727"/>
	<line fill="#FFFFFF" stroke="#B1B1B1" stroke-miterlimit="10" x1="305.167" y1="65.914" x2="305.167" y2="-3.924"/>
	<line fill="#FFFFFF" stroke="#B1B1B1" stroke-miterlimit="10" x1="305.167" y1="87.727" x2="315.46" y2="76.821"/>
	<line fill="#FFFFFF" stroke="#B1B1B1" stroke-miterlimit="10" x1="315.46" y1="76.821" x2="305.169" y2="65.914"/>
</g>
</svg>
