<?xml version="1.0" encoding="utf-8"?>
<!-- Generator: Adobe Illustrator 16.0.0, SVG Export Plug-In . SVG Version: 6.00 Build 0)  -->
<!DOCTYPE svg PUBLIC "-//W3C//DTD SVG 1.1//EN" "http://www.w3.org/Graphics/SVG/1.1/DTD/svg11.dtd">
<svg version="1.1" id="Capa_1" xmlns="http://www.w3.org/2000/svg" xmlns:xlink="http://www.w3.org/1999/xlink" x="0px" y="0px"
	 width="217.334px" height="173.333px" viewBox="0 0 217.334 173.333" enable-background="new 0 0 217.334 173.333"
	 xml:space="preserve">
<g>
	<path fill="#090921" d="M-277.248-168.192c0-0.597,0.105-1.192,0.315-1.785c0.21-0.592,0.516-1.122,0.917-1.589
		c0.401-0.466,0.896-0.847,1.484-1.141c0.588-0.294,1.255-0.441,2.002-0.441c0.886,0,1.645,0.201,2.275,0.602
		s1.094,0.924,1.393,1.568l-0.77,0.476c-0.159-0.327-0.353-0.602-0.581-0.826c-0.229-0.224-0.474-0.406-0.735-0.546
		c-0.262-0.14-0.532-0.24-0.812-0.301c-0.28-0.061-0.556-0.091-0.826-0.091c-0.597,0-1.125,0.121-1.582,0.364
		c-0.458,0.243-0.842,0.56-1.155,0.952c-0.313,0.392-0.549,0.833-0.707,1.323c-0.159,0.49-0.238,0.987-0.238,1.491
		c0,0.551,0.096,1.078,0.287,1.582s0.453,0.95,0.784,1.337c0.331,0.387,0.723,0.695,1.176,0.924
		c0.453,0.229,0.945,0.343,1.477,0.343c0.28,0,0.567-0.035,0.861-0.105c0.294-0.07,0.579-0.182,0.854-0.336
		c0.275-0.154,0.53-0.345,0.763-0.574c0.233-0.229,0.429-0.506,0.588-0.833l0.812,0.42c-0.159,0.374-0.383,0.703-0.672,0.987
		c-0.29,0.285-0.611,0.525-0.966,0.721c-0.355,0.196-0.73,0.346-1.127,0.448c-0.396,0.103-0.786,0.154-1.169,0.154
		c-0.681,0-1.307-0.149-1.876-0.448c-0.569-0.299-1.059-0.688-1.47-1.169c-0.411-0.48-0.73-1.026-0.959-1.638
		C-277.133-166.934-277.248-167.557-277.248-168.192z"/>
	<path fill="#090921" d="M-258.445-173.092h0.826l4.13,9.94h-1.036l-1.288-3.108h-4.466l-1.274,3.108h-1.05L-258.445-173.092z
		 M-256.038-167.03l-2.002-4.914l-2.03,4.914H-256.038z"/>
	<path fill="#090921" d="M-246.461-163.152v-9.94h4.116c0.429,0,0.824,0.091,1.183,0.273s0.669,0.42,0.931,0.714
		c0.261,0.294,0.466,0.628,0.616,1.001c0.149,0.374,0.224,0.751,0.224,1.134c0,0.411-0.07,0.805-0.21,1.183
		c-0.14,0.378-0.336,0.711-0.588,1.001c-0.252,0.289-0.553,0.522-0.903,0.7c-0.35,0.177-0.74,0.266-1.169,0.266h-3.22v3.668
		H-246.461z M-245.481-167.688h3.178c0.29,0,0.553-0.063,0.791-0.189c0.238-0.126,0.441-0.294,0.609-0.504s0.298-0.453,0.392-0.728
		s0.14-0.562,0.14-0.861c0-0.308-0.054-0.6-0.161-0.875s-0.252-0.516-0.434-0.721c-0.182-0.205-0.397-0.366-0.644-0.483
		c-0.248-0.117-0.506-0.175-0.777-0.175h-3.094V-167.688z"/>
	<path fill="#090921" d="M-229.704-173.092h0.826l4.13,9.94h-1.036l-1.288-3.108h-4.466l-1.274,3.108h-1.05L-229.704-173.092z
		 M-227.296-167.03l-2.002-4.914l-2.03,4.914H-227.296z"/>
	<path fill="#090921" d="M-218.742-168.192c0-0.597,0.105-1.192,0.315-1.785c0.21-0.592,0.516-1.122,0.917-1.589
		c0.401-0.466,0.896-0.847,1.484-1.141c0.588-0.294,1.255-0.441,2.002-0.441c0.886,0,1.645,0.201,2.275,0.602
		s1.094,0.924,1.393,1.568l-0.77,0.476c-0.159-0.327-0.353-0.602-0.581-0.826c-0.229-0.224-0.474-0.406-0.735-0.546
		c-0.262-0.14-0.532-0.24-0.812-0.301c-0.28-0.061-0.556-0.091-0.826-0.091c-0.597,0-1.125,0.121-1.582,0.364
		c-0.458,0.243-0.842,0.56-1.155,0.952c-0.313,0.392-0.549,0.833-0.707,1.323c-0.159,0.49-0.238,0.987-0.238,1.491
		c0,0.551,0.096,1.078,0.287,1.582s0.453,0.95,0.784,1.337c0.331,0.387,0.723,0.695,1.176,0.924
		c0.453,0.229,0.945,0.343,1.477,0.343c0.28,0,0.567-0.035,0.861-0.105c0.294-0.07,0.579-0.182,0.854-0.336
		c0.275-0.154,0.53-0.345,0.763-0.574c0.233-0.229,0.429-0.506,0.588-0.833l0.812,0.42c-0.159,0.374-0.383,0.703-0.672,0.987
		c-0.29,0.285-0.611,0.525-0.966,0.721c-0.355,0.196-0.73,0.346-1.127,0.448c-0.396,0.103-0.786,0.154-1.169,0.154
		c-0.681,0-1.307-0.149-1.876-0.448c-0.569-0.299-1.059-0.688-1.47-1.169c-0.411-0.48-0.73-1.026-0.959-1.638
		C-218.627-166.934-218.742-167.557-218.742-168.192z"/>
	<path fill="#090921" d="M-202.879-163.152v-9.94h0.98v9.94H-202.879z"/>
	<path fill="#090921" d="M-186.752-172.224h-3.542v9.072h-0.98v-9.072h-3.542v-0.868h8.064V-172.224z"/>
	<path fill="#090921" d="M-177.567-173.092h0.825l4.13,9.94h-1.035l-1.289-3.108h-4.465l-1.275,3.108h-1.049L-177.567-173.092z
		 M-175.16-167.03l-2.002-4.914l-2.03,4.914H-175.16z"/>
	<path fill="#090921" d="M-166.606-168.192c0-0.597,0.105-1.192,0.315-1.785c0.21-0.592,0.516-1.122,0.917-1.589
		c0.401-0.466,0.896-0.847,1.484-1.141s1.255-0.441,2.002-0.441c0.887,0,1.645,0.201,2.275,0.602
		c0.629,0.401,1.094,0.924,1.393,1.568l-0.77,0.476c-0.159-0.327-0.354-0.602-0.582-0.826c-0.229-0.224-0.473-0.406-0.734-0.546
		c-0.262-0.14-0.532-0.24-0.813-0.301c-0.279-0.061-0.555-0.091-0.826-0.091c-0.597,0-1.125,0.121-1.582,0.364
		s-0.842,0.56-1.154,0.952s-0.549,0.833-0.707,1.323c-0.159,0.49-0.238,0.987-0.238,1.491c0,0.551,0.096,1.078,0.287,1.582
		s0.453,0.95,0.784,1.337s0.724,0.695,1.176,0.924c0.452,0.229,0.944,0.343,1.478,0.343c0.279,0,0.566-0.035,0.86-0.105
		c0.294-0.07,0.579-0.182,0.854-0.336c0.275-0.154,0.529-0.345,0.763-0.574c0.233-0.229,0.429-0.506,0.588-0.833l0.812,0.42
		c-0.158,0.374-0.383,0.703-0.672,0.987s-0.611,0.525-0.965,0.721c-0.355,0.196-0.73,0.346-1.128,0.448
		c-0.396,0.103-0.786,0.154-1.169,0.154c-0.682,0-1.307-0.149-1.876-0.448c-0.569-0.299-1.06-0.688-1.47-1.169
		c-0.411-0.48-0.73-1.026-0.959-1.638S-166.606-167.557-166.606-168.192z"/>
	<path fill="#090921" d="M-150.743-163.152v-9.94h0.979v9.94H-150.743z"/>
	<path fill="#090921" d="M-137.668-163.082c-0.69,0-1.323-0.142-1.897-0.427s-1.066-0.663-1.477-1.134
		c-0.41-0.471-0.729-1.01-0.952-1.617c-0.224-0.606-0.336-1.227-0.336-1.862c0-0.663,0.119-1.297,0.356-1.904
		c0.238-0.606,0.568-1.143,0.988-1.61s0.914-0.838,1.483-1.113c0.569-0.275,1.185-0.413,1.849-0.413
		c0.689,0,1.322,0.147,1.896,0.441s1.064,0.679,1.47,1.155c0.406,0.476,0.722,1.015,0.945,1.617s0.336,1.216,0.336,1.841
		c0,0.663-0.119,1.297-0.356,1.904c-0.238,0.606-0.565,1.141-0.98,1.603c-0.416,0.462-0.908,0.831-1.477,1.106
		C-136.39-163.219-137.005-163.082-137.668-163.082z M-141.351-168.122c0,0.542,0.09,1.062,0.267,1.561
		c0.177,0.5,0.429,0.943,0.756,1.33c0.327,0.388,0.714,0.695,1.162,0.924c0.448,0.229,0.947,0.343,1.498,0.343
		c0.56,0,1.068-0.121,1.526-0.364c0.457-0.243,0.844-0.56,1.162-0.952c0.316-0.392,0.562-0.835,0.734-1.33s0.26-0.999,0.26-1.512
		c0-0.541-0.092-1.062-0.273-1.561c-0.182-0.5-0.437-0.94-0.764-1.323c-0.326-0.383-0.713-0.688-1.162-0.917
		c-0.447-0.229-0.942-0.343-1.483-0.343c-0.56,0-1.069,0.119-1.526,0.357c-0.457,0.238-0.844,0.553-1.162,0.945
		c-0.316,0.392-0.563,0.835-0.734,1.33C-141.264-169.139-141.351-168.635-141.351-168.122z M-137.569-174.45l-0.631-0.238
		l0.826-1.302h1.008L-137.569-174.45z"/>
	<path fill="#090921" d="M-124.578-171.272v8.12h-0.979v-9.94h0.756l6.58,8.274v-8.26h0.979v9.926h-0.854L-124.578-171.272z"/>
</g>
<g>
	<g id="presentation-training-teaching-meeting-discussion_3_">
		<path fill="#090921" d="M-230.407-121.824c0,5.203,4.231,9.435,9.434,9.435c5.203,0,9.435-4.231,9.435-9.435
			c0-5.201-4.231-9.433-9.435-9.433C-226.176-131.257-230.407-127.025-230.407-121.824z M-214.685-121.824
			c0,3.47-2.819,6.289-6.289,6.289c-3.468,0-6.289-2.819-6.289-6.289c0-3.468,2.821-6.288,6.289-6.288
			C-217.504-128.112-214.685-125.292-214.685-121.824z"/>
		<path fill="#090921" d="M-197.85-104.989l11.006-11.006c0.614-0.615,0.614-1.609,0-2.223l-4.717-4.717
			c-0.582-0.582-1.513-0.617-2.135-0.082l-10.823,9.276l-10.487,4.496h-18.546c-0.454,0-0.883,0.193-1.182,0.537l-11.006,12.578
			c-0.368,0.42-0.485,1.002-0.309,1.533l4.717,14.15c0.146,0.43,0.469,0.779,0.891,0.953c0.421,0.172,0.895,0.158,1.305-0.045
			l6.289-3.145c0.538-0.27,0.867-0.809,0.867-1.377v26.699c0,4.334,3.527,7.859,7.861,7.859h12.579c0.867,0,1.572-0.701,1.572-1.572
			V-98.84l11.708-5.855C-198.106-104.768-197.969-104.87-197.85-104.989z M-231.979-84.122c0-0.184-0.039-0.371-0.11-0.553
			l-2.806-7.01l2.916-3.645V-84.122z M-212.242-101.219c-0.532,0.268-0.87,0.811-0.87,1.408v47.168h-6.289v-25.156
			c0-0.871-0.704-1.572-1.572-1.572c-0.867,0-1.572,0.701-1.572,1.572v25.156h-1.572c-2.6,0-4.717-2.117-4.717-4.717v-42.451
			c0-0.67-0.421-1.264-1.051-1.482c-0.629-0.223-1.332-0.021-1.749,0.498l-6.289,7.861c-0.354,0.443-0.441,1.041-0.232,1.566
			l2.608,6.52l-3.374,1.686l-3.858-11.574l9.943-11.363h18.152c0.213,0,0.425-0.043,0.619-0.129l11.006-4.717
			c0.147-0.063,0.284-0.146,0.404-0.252l9.9-8.483l2.576,2.573l-9.713,9.714L-212.242-101.219z"/>
		<polygon fill="#090921" points="-224.118,-99.811 -222.546,-99.811 -222.546,-87.233 -219.401,-87.233 -219.401,-99.811 
			-217.829,-99.811 -217.829,-102.956 -224.118,-102.956 		"/>
		<path fill="#090921" d="M-145.505-71.51c0-5.203-4.23-9.434-9.434-9.434c-3.279,0-6.169,1.684-7.861,4.229
			c-1.691-2.547-4.581-4.229-7.86-4.229c-3.28,0-6.17,1.684-7.861,4.229c-1.692-2.547-4.582-4.229-7.861-4.229
			c-5.203,0-9.434,4.23-9.434,9.434c0,3.279,1.684,6.168,4.229,7.861c-2.547,1.691-4.229,4.58-4.229,7.861v6.287h3.145v-6.287
			c0-3.469,2.82-6.289,6.289-6.289c3.468,0,6.289,2.82,6.289,6.289v6.287h3.145v-6.287c0-3.469,2.82-6.289,6.289-6.289
			c3.468,0,6.289,2.82,6.289,6.289v6.287h3.144v-6.287c0-3.469,2.821-6.289,6.289-6.289c3.469,0,6.289,2.82,6.289,6.289v6.287h3.145
			v-6.287c0-3.281-1.684-6.17-4.229-7.861C-147.188-65.342-145.505-68.231-145.505-71.51z M-170.66-77.799
			c3.468,0,6.289,2.82,6.289,6.289c0,3.467-2.821,6.289-6.289,6.289c-3.469,0-6.289-2.822-6.289-6.289
			C-176.949-74.979-174.128-77.799-170.66-77.799z M-192.672-71.51c0-3.469,2.82-6.289,6.289-6.289c3.468,0,6.289,2.82,6.289,6.289
			c0,3.467-2.821,6.289-6.289,6.289C-189.852-65.221-192.672-68.043-192.672-71.51z M-178.521-60.993
			c-0.7-1.055-1.604-1.957-2.657-2.656c1.053-0.701,1.957-1.605,2.657-2.658c0.699,1.053,1.603,1.957,2.656,2.658
			C-176.919-62.95-177.822-62.047-178.521-60.993z M-162.8-60.993c-0.699-1.055-1.604-1.957-2.656-2.656
			c1.053-0.701,1.957-1.605,2.656-2.658c0.7,1.053,1.604,1.957,2.657,2.658C-161.196-62.95-162.1-62.047-162.8-60.993z
			 M-154.938-65.221c-3.468,0-6.289-2.822-6.289-6.289c0-3.469,2.821-6.289,6.289-6.289c3.469,0,6.289,2.82,6.289,6.289
			C-148.649-68.043-151.47-65.221-154.938-65.221z"/>
		<path fill="#090921" d="M-147.077-150.124h-58.173c-0.868,0-1.572,0.703-1.572,1.572v29.872h3.145v-28.3h55.028v42.452
			c0,2.6-2.116,4.717-4.717,4.717h-48.739v3.145h48.739c4.335,0,7.861-3.527,7.861-7.861v-44.024
			C-145.505-149.421-146.21-150.124-147.077-150.124z"/>
		<path fill="#090921" d="M-180.094-142.263h-15.723c-0.868,0-1.572,0.703-1.572,1.572v6.289c0,0.87,0.704,1.572,1.572,1.572h15.723
			c0.867,0,1.572-0.702,1.572-1.572v-1.572h4.717v1.572c0,0.87,0.704,1.572,1.572,1.572h6.289v4.717h-6.289
			c-0.868,0-1.572,0.703-1.572,1.572v6.288c0,0.87,0.704,1.572,1.572,1.572h6.289v4.718h-6.289c-0.868,0-1.572,0.703-1.572,1.572
			v6.29c0,0.869,0.704,1.572,1.572,1.572h15.722c0.868,0,1.572-0.703,1.572-1.572v-6.29c0-0.869-0.704-1.572-1.572-1.572h-6.289
			v-4.718h6.289c0.868,0,1.572-0.702,1.572-1.572v-6.288c0-0.869-0.704-1.572-1.572-1.572h-6.289v-4.717h6.289
			c0.868,0,1.572-0.702,1.572-1.572v-6.289c0-0.869-0.704-1.572-1.572-1.572h-15.722c-0.868,0-1.572,0.703-1.572,1.572v1.572h-4.717
			v-1.572C-178.521-141.56-179.227-142.263-180.094-142.263z M-181.666-135.974h-12.578v-3.145h12.578V-135.974z M-158.083-107.672
			h-12.577v-3.145h12.577V-107.672z M-158.083-121.824h-12.577v-3.144h12.577V-121.824z M-170.66-139.118h12.577v3.145h-12.577
			V-139.118z"/>
		<rect x="-195.816" y="-129.685" fill="#090921" width="17.295" height="3.145"/>
		<rect x="-184.811" y="-123.396" fill="#090921" width="6.289" height="3.145"/>
		<rect x="-183.238" y="-117.107" fill="#090921" width="4.717" height="3.146"/>
		<rect x="-187.955" y="-110.817" fill="#090921" width="9.434" height="3.145"/>
		<path fill="#090921" d="M-239.841-134.401h0.786l4.245,5.66c0.304,0.402,0.772,0.629,1.258,0.629c0.166,0,0.335-0.026,0.497-0.082
			c0.644-0.213,1.075-0.813,1.075-1.49v-4.717h9.434c2.602,0,4.717-2.116,4.717-4.717v-6.289c0-2.601-2.115-4.717-4.717-4.717
			h-17.295c-2.6,0-4.717,2.116-4.717,4.717v6.289C-244.558-136.518-242.44-134.401-239.841-134.401z M-241.413-145.407
			c0-0.868,0.707-1.572,1.572-1.572h17.295c0.866,0,1.572,0.704,1.572,1.572v6.289c0,0.867-0.706,1.572-1.572,1.572h-11.006
			c-0.867,0-1.572,0.703-1.572,1.572v1.572l-1.887-2.516c-0.297-0.396-0.762-0.629-1.258-0.629h-1.572
			c-0.865,0-1.572-0.705-1.572-1.572V-145.407z"/>
		<rect x="-238.269" y="-143.835" fill="#090921" width="14.15" height="3.145"/>
	</g>
	<g id="Layer_1_2_">
	</g>
</g>
<g>
	<path fill="#090921" d="M9.316,30.453c0-0.597,0.105-1.192,0.315-1.785c0.21-0.592,0.516-1.122,0.917-1.589
		c0.401-0.466,0.896-0.847,1.484-1.141c0.588-0.294,1.255-0.441,2.002-0.441c0.886,0,1.645,0.201,2.275,0.602
		s1.094,0.924,1.393,1.568l-0.77,0.476c-0.159-0.327-0.353-0.602-0.581-0.826c-0.229-0.224-0.474-0.406-0.735-0.546
		c-0.262-0.14-0.532-0.24-0.812-0.301c-0.28-0.061-0.556-0.091-0.826-0.091c-0.597,0-1.125,0.121-1.582,0.364
		c-0.458,0.243-0.842,0.56-1.155,0.952c-0.313,0.392-0.549,0.833-0.707,1.323c-0.159,0.49-0.238,0.987-0.238,1.491
		c0,0.551,0.096,1.078,0.287,1.582s0.453,0.95,0.784,1.337c0.331,0.387,0.723,0.695,1.176,0.924
		c0.453,0.229,0.945,0.343,1.477,0.343c0.28,0,0.567-0.035,0.861-0.105c0.294-0.07,0.579-0.182,0.854-0.336
		c0.275-0.154,0.53-0.345,0.763-0.574c0.233-0.229,0.429-0.506,0.588-0.833l0.812,0.42c-0.159,0.374-0.383,0.703-0.672,0.987
		c-0.29,0.285-0.611,0.525-0.966,0.721c-0.355,0.196-0.73,0.346-1.127,0.448c-0.396,0.103-0.786,0.154-1.169,0.154
		c-0.681,0-1.307-0.149-1.876-0.448c-0.569-0.299-1.059-0.688-1.47-1.169c-0.411-0.48-0.73-1.026-0.959-1.638
		C9.43,31.71,9.316,31.087,9.316,30.453z"/>
	<path fill="#090921" d="M28.118,25.553h0.826l4.13,9.94h-1.036l-1.288-3.108h-4.466l-1.274,3.108h-1.05L28.118,25.553z
		 M30.526,31.615l-2.002-4.914l-2.03,4.914H30.526z"/>
	<path fill="#090921" d="M40.102,35.493v-9.94h4.116c0.429,0,0.824,0.091,1.183,0.273s0.669,0.42,0.931,0.714
		c0.261,0.294,0.466,0.628,0.616,1.001c0.149,0.374,0.224,0.751,0.224,1.134c0,0.411-0.07,0.805-0.21,1.183
		c-0.14,0.378-0.336,0.711-0.588,1.001c-0.252,0.289-0.553,0.522-0.903,0.7c-0.35,0.177-0.74,0.266-1.169,0.266h-3.22v3.668H40.102z
		 M41.082,30.957h3.178c0.29,0,0.553-0.063,0.791-0.189c0.238-0.126,0.441-0.294,0.609-0.504s0.298-0.453,0.392-0.728
		s0.14-0.562,0.14-0.861c0-0.308-0.054-0.6-0.161-0.875s-0.252-0.516-0.434-0.721c-0.182-0.205-0.397-0.366-0.644-0.483
		c-0.248-0.117-0.506-0.175-0.777-0.175h-3.094V30.957z"/>
	<path fill="#090921" d="M56.86,25.553h0.826l4.13,9.94H60.78l-1.288-3.108h-4.466l-1.274,3.108h-1.05L56.86,25.553z M59.268,31.615
		l-2.002-4.914l-2.03,4.914H59.268z"/>
	<path fill="#090921" d="M67.822,30.453c0-0.597,0.105-1.192,0.315-1.785c0.21-0.592,0.516-1.122,0.917-1.589
		c0.401-0.466,0.896-0.847,1.484-1.141c0.588-0.294,1.255-0.441,2.002-0.441c0.886,0,1.645,0.201,2.275,0.602
		s1.094,0.924,1.393,1.568l-0.77,0.476c-0.159-0.327-0.353-0.602-0.581-0.826c-0.229-0.224-0.474-0.406-0.735-0.546
		c-0.262-0.14-0.532-0.24-0.812-0.301c-0.28-0.061-0.556-0.091-0.826-0.091c-0.597,0-1.125,0.121-1.582,0.364
		c-0.458,0.243-0.842,0.56-1.155,0.952c-0.313,0.392-0.549,0.833-0.707,1.323c-0.159,0.49-0.238,0.987-0.238,1.491
		c0,0.551,0.096,1.078,0.287,1.582s0.453,0.95,0.784,1.337c0.331,0.387,0.723,0.695,1.176,0.924
		c0.453,0.229,0.945,0.343,1.477,0.343c0.28,0,0.567-0.035,0.861-0.105c0.294-0.07,0.579-0.182,0.854-0.336
		c0.275-0.154,0.53-0.345,0.763-0.574c0.233-0.229,0.429-0.506,0.588-0.833l0.812,0.42c-0.159,0.374-0.383,0.703-0.672,0.987
		c-0.29,0.285-0.611,0.525-0.966,0.721c-0.355,0.196-0.73,0.346-1.127,0.448c-0.396,0.103-0.786,0.154-1.169,0.154
		c-0.681,0-1.307-0.149-1.876-0.448c-0.569-0.299-1.059-0.688-1.47-1.169c-0.411-0.48-0.73-1.026-0.959-1.638
		C67.936,31.71,67.822,31.087,67.822,30.453z"/>
	<path fill="#090921" d="M83.684,35.493v-9.94h0.98v9.94H83.684z"/>
	<path fill="#090921" d="M99.812,26.421H96.27v9.072h-0.98v-9.072h-3.542v-0.868h8.064V26.421z"/>
	<path fill="#090921" d="M108.996,25.553h0.825l4.13,9.94h-1.035l-1.289-3.108h-4.465l-1.275,3.108h-1.049L108.996,25.553z
		 M111.403,31.615l-2.002-4.914l-2.03,4.914H111.403z"/>
	<path fill="#090921" d="M119.957,30.453c0-0.597,0.105-1.192,0.315-1.785c0.21-0.592,0.516-1.122,0.917-1.589
		c0.401-0.466,0.896-0.847,1.484-1.141s1.255-0.441,2.002-0.441c0.887,0,1.645,0.201,2.275,0.602
		c0.629,0.401,1.094,0.924,1.393,1.568l-0.77,0.476c-0.159-0.327-0.354-0.602-0.582-0.826c-0.229-0.224-0.473-0.406-0.734-0.546
		c-0.262-0.14-0.532-0.24-0.813-0.301c-0.279-0.061-0.555-0.091-0.826-0.091c-0.597,0-1.125,0.121-1.582,0.364
		s-0.842,0.56-1.154,0.952s-0.549,0.833-0.707,1.323c-0.159,0.49-0.238,0.987-0.238,1.491c0,0.551,0.096,1.078,0.287,1.582
		s0.453,0.95,0.784,1.337s0.724,0.695,1.176,0.924c0.452,0.229,0.944,0.343,1.478,0.343c0.279,0,0.566-0.035,0.86-0.105
		c0.294-0.07,0.579-0.182,0.854-0.336c0.275-0.154,0.529-0.345,0.763-0.574c0.233-0.229,0.429-0.506,0.588-0.833l0.812,0.42
		c-0.158,0.374-0.383,0.703-0.672,0.987s-0.611,0.525-0.965,0.721c-0.355,0.196-0.73,0.346-1.128,0.448
		c-0.396,0.103-0.786,0.154-1.169,0.154c-0.682,0-1.307-0.149-1.876-0.448c-0.569-0.299-1.06-0.688-1.47-1.169
		c-0.411-0.48-0.73-1.026-0.959-1.638S119.957,31.087,119.957,30.453z"/>
	<path fill="#090921" d="M135.82,35.493v-9.94h0.979v9.94H135.82z"/>
	<path fill="#090921" d="M148.896,35.563c-0.69,0-1.323-0.142-1.897-0.427s-1.066-0.663-1.477-1.134
		c-0.41-0.471-0.729-1.01-0.952-1.617c-0.224-0.606-0.336-1.227-0.336-1.862c0-0.663,0.119-1.297,0.356-1.904
		c0.238-0.606,0.568-1.143,0.988-1.61s0.914-0.838,1.483-1.113c0.569-0.275,1.185-0.413,1.849-0.413
		c0.689,0,1.322,0.147,1.896,0.441s1.064,0.679,1.47,1.155c0.406,0.476,0.722,1.015,0.945,1.617s0.336,1.216,0.336,1.841
		c0,0.663-0.119,1.297-0.356,1.904c-0.238,0.606-0.565,1.141-0.98,1.603c-0.416,0.462-0.908,0.831-1.477,1.106
		C150.174,35.425,149.559,35.563,148.896,35.563z M145.213,30.522c0,0.542,0.09,1.062,0.267,1.561c0.177,0.5,0.429,0.943,0.756,1.33
		c0.327,0.388,0.714,0.695,1.162,0.924c0.448,0.229,0.947,0.343,1.498,0.343c0.56,0,1.068-0.121,1.526-0.364
		c0.457-0.243,0.844-0.56,1.162-0.952c0.316-0.392,0.562-0.835,0.734-1.33s0.26-0.999,0.26-1.512c0-0.541-0.092-1.062-0.273-1.561
		c-0.182-0.5-0.437-0.94-0.764-1.323c-0.326-0.383-0.713-0.688-1.162-0.917c-0.447-0.229-0.942-0.343-1.483-0.343
		c-0.56,0-1.069,0.119-1.526,0.357c-0.457,0.238-0.844,0.553-1.162,0.945c-0.316,0.392-0.563,0.835-0.734,1.33
		C145.3,29.505,145.213,30.009,145.213,30.522z M148.994,24.195l-0.631-0.238l0.826-1.302h1.008L148.994,24.195z"/>
	<path fill="#090921" d="M161.985,27.373v8.12h-0.979v-9.94h0.756l6.58,8.274v-8.26h0.979v9.926h-0.854L161.985,27.373z"/>
</g>
<g>
	<g id="presentation-training-teaching-meeting-discussion_1_">
		<path fill="#090921" d="M56.156,76.82c0,5.203,4.231,9.436,9.434,9.436c5.203,0,9.435-4.232,9.435-9.436
			c0-5.201-4.231-9.432-9.435-9.432C60.388,67.388,56.156,71.619,56.156,76.82z M71.879,76.82c0,3.471-2.819,6.289-6.289,6.289
			c-3.468,0-6.289-2.818-6.289-6.289c0-3.467,2.821-6.287,6.289-6.287C69.06,70.533,71.879,73.353,71.879,76.82z"/>
		<path fill="#090921" d="M88.714,93.656L99.72,82.65c0.614-0.615,0.614-1.609,0-2.223l-4.717-4.717
			c-0.582-0.582-1.513-0.617-2.135-0.082l-10.823,9.275L71.558,89.4H53.012c-0.454,0-0.883,0.193-1.182,0.537l-11.006,12.578
			c-0.368,0.42-0.485,1.002-0.309,1.533l4.717,14.15c0.146,0.43,0.469,0.779,0.891,0.953c0.421,0.172,0.895,0.158,1.305-0.045
			l6.289-3.145c0.538-0.27,0.867-0.809,0.867-1.377v26.699c0,4.334,3.527,7.859,7.861,7.859h12.579c0.867,0,1.572-0.701,1.572-1.572
			V99.804l11.708-5.855C88.457,93.876,88.595,93.775,88.714,93.656z M54.584,114.523c0-0.184-0.039-0.371-0.11-0.553l-2.806-7.01
			l2.916-3.645V114.523z M74.321,97.425c-0.532,0.268-0.87,0.811-0.87,1.408v47.168h-6.289v-25.156c0-0.871-0.704-1.572-1.572-1.572
			c-0.867,0-1.572,0.701-1.572,1.572v25.156h-1.572c-2.6,0-4.717-2.117-4.717-4.717V98.833c0-0.67-0.421-1.264-1.051-1.482
			c-0.629-0.223-1.332-0.021-1.749,0.498l-6.289,7.861c-0.354,0.443-0.441,1.041-0.232,1.566l2.608,6.52l-3.374,1.686l-3.858-11.574
			l9.943-11.363h18.152c0.213,0,0.425-0.043,0.619-0.129l11.006-4.717c0.147-0.063,0.284-0.146,0.404-0.252l9.9-8.482l2.576,2.572
			l-9.713,9.715L74.321,97.425z"/>
		<polygon fill="#090921" points="62.445,98.833 64.018,98.833 64.018,111.412 67.162,111.412 67.162,98.833 68.734,98.833 
			68.734,95.689 62.445,95.689 		"/>
		<path fill="#090921" d="M141.059,127.134c0-5.203-4.23-9.434-9.434-9.434c-3.279,0-6.169,1.684-7.861,4.229
			c-1.691-2.547-4.581-4.229-7.86-4.229c-3.28,0-6.17,1.684-7.861,4.229c-1.692-2.547-4.582-4.229-7.861-4.229
			c-5.203,0-9.434,4.23-9.434,9.434c0,3.279,1.684,6.168,4.229,7.861c-2.547,1.691-4.229,4.58-4.229,7.861v6.287h3.145v-6.287
			c0-3.469,2.82-6.289,6.289-6.289c3.468,0,6.289,2.82,6.289,6.289v6.287h3.145v-6.287c0-3.469,2.82-6.289,6.289-6.289
			c3.468,0,6.289,2.82,6.289,6.289v6.287h3.144v-6.287c0-3.469,2.821-6.289,6.289-6.289c3.469,0,6.289,2.82,6.289,6.289v6.287h3.145
			v-6.287c0-3.281-1.684-6.17-4.229-7.861C139.375,133.302,141.059,130.414,141.059,127.134z M115.903,120.845
			c3.468,0,6.289,2.82,6.289,6.289c0,3.467-2.821,6.289-6.289,6.289c-3.469,0-6.289-2.822-6.289-6.289
			C109.614,123.666,112.436,120.845,115.903,120.845z M93.892,127.134c0-3.469,2.82-6.289,6.289-6.289
			c3.468,0,6.289,2.82,6.289,6.289c0,3.467-2.821,6.289-6.289,6.289C96.712,133.423,93.892,130.601,93.892,127.134z
			 M108.042,137.652c-0.7-1.055-1.604-1.957-2.657-2.656c1.053-0.701,1.957-1.605,2.657-2.658c0.699,1.053,1.603,1.957,2.656,2.658
			C109.645,135.695,108.741,136.597,108.042,137.652z M123.764,137.652c-0.699-1.055-1.604-1.957-2.656-2.656
			c1.053-0.701,1.957-1.605,2.656-2.658c0.7,1.053,1.604,1.957,2.657,2.658C125.367,135.695,124.464,136.597,123.764,137.652z
			 M131.625,133.423c-3.468,0-6.289-2.822-6.289-6.289c0-3.469,2.821-6.289,6.289-6.289c3.469,0,6.289,2.82,6.289,6.289
			C137.914,130.601,135.094,133.423,131.625,133.423z"/>
		<path fill="#090921" d="M139.486,48.521H81.313c-0.868,0-1.572,0.703-1.572,1.572v29.871h3.145V51.666h55.028v42.451
			c0,2.6-2.116,4.717-4.717,4.717H84.458v3.145h48.739c4.335,0,7.861-3.527,7.861-7.861V50.093
			C141.059,49.224,140.354,48.521,139.486,48.521z"/>
		<path fill="#090921" d="M106.47,56.382H90.747c-0.868,0-1.572,0.703-1.572,1.572v6.289c0,0.869,0.704,1.572,1.572,1.572h15.723
			c0.867,0,1.572-0.703,1.572-1.572v-1.572h4.717v1.572c0,0.869,0.704,1.572,1.572,1.572h6.289v4.717h-6.289
			c-0.868,0-1.572,0.703-1.572,1.572v6.287c0,0.871,0.704,1.572,1.572,1.572h6.289v4.719h-6.289c-0.868,0-1.572,0.703-1.572,1.572
			v6.289c0,0.869,0.704,1.572,1.572,1.572h15.722c0.868,0,1.572-0.703,1.572-1.572v-6.289c0-0.869-0.704-1.572-1.572-1.572h-6.289
			v-4.719h6.289c0.868,0,1.572-0.701,1.572-1.572v-6.287c0-0.869-0.704-1.572-1.572-1.572h-6.289v-4.717h6.289
			c0.868,0,1.572-0.703,1.572-1.572v-6.289c0-0.869-0.704-1.572-1.572-1.572h-15.722c-0.868,0-1.572,0.703-1.572,1.572v1.572h-4.717
			v-1.572C108.042,57.085,107.337,56.382,106.47,56.382z M104.897,62.671H92.319v-3.145h12.578V62.671z M128.48,90.972h-12.577
			v-3.145h12.577V90.972z M128.48,76.82h-12.577v-3.143h12.577V76.82z M115.903,59.527h12.577v3.145h-12.577V59.527z"/>
		<rect x="90.747" y="68.96" fill="#090921" width="17.295" height="3.145"/>
		<rect x="101.753" y="75.248" fill="#090921" width="6.289" height="3.145"/>
		<rect x="103.325" y="81.537" fill="#090921" width="4.717" height="3.146"/>
		<rect x="98.608" y="87.828" fill="#090921" width="9.434" height="3.145"/>
		<path fill="#090921" d="M46.723,64.244h0.786l4.245,5.66c0.304,0.402,0.772,0.629,1.258,0.629c0.166,0,0.335-0.027,0.497-0.082
			c0.644-0.213,1.075-0.813,1.075-1.49v-4.717h9.434c2.602,0,4.717-2.117,4.717-4.717v-6.289c0-2.602-2.115-4.717-4.717-4.717
			H46.723c-2.6,0-4.717,2.115-4.717,4.717v6.289C42.006,62.126,44.123,64.244,46.723,64.244z M45.15,53.238
			c0-0.869,0.707-1.572,1.572-1.572h17.295c0.866,0,1.572,0.703,1.572,1.572v6.289c0,0.867-0.706,1.572-1.572,1.572H53.012
			c-0.867,0-1.572,0.703-1.572,1.572v1.572l-1.887-2.516c-0.297-0.396-0.762-0.629-1.258-0.629h-1.572
			c-0.865,0-1.572-0.705-1.572-1.572V53.238z"/>
		<rect x="48.295" y="54.81" fill="#090921" width="14.15" height="3.145"/>
	</g>
	<g id="Layer_1_1_">
	</g>
</g>
<g>
	<line fill="#8FD0DF" stroke="#B1B1B1" stroke-miterlimit="10" x1="193.39" y1="166.38" x2="193.39" y2="96.542"/>
	<line fill="#8FD0DF" stroke="#B1B1B1" stroke-miterlimit="10" x1="193.39" y1="74.728" x2="193.39" y2="4.89"/>
	<line fill="#8FD0DF" stroke="#B1B1B1" stroke-miterlimit="10" x1="193.39" y1="96.542" x2="203.682" y2="85.636"/>
	<line fill="#8FD0DF" stroke="#B1B1B1" stroke-miterlimit="10" x1="203.683" y1="85.636" x2="193.391" y2="74.728"/>
</g>
</svg>
