<?xml version="1.0" encoding="utf-8"?>
<!-- Generator: Adobe Illustrator 16.0.0, SVG Export Plug-In . SVG Version: 6.00 Build 0)  -->
<!DOCTYPE svg PUBLIC "-//W3C//DTD SVG 1.1//EN" "http://www.w3.org/Graphics/SVG/1.1/DTD/svg11.dtd">
<svg version="1.1" id="Capa_1" xmlns="http://www.w3.org/2000/svg" xmlns:xlink="http://www.w3.org/1999/xlink" x="0px" y="0px"
	 width="400px" height="340px" viewBox="0 0 400 340" enable-background="new 0 0 400 340" xml:space="preserve">
<g>
	<g>
		<g>
			<path fill="#1D1A63" d="M234.316,313.656l-2.393-102.93L223.379,0.839l29.684,35.125c0.207,0.271,19.346,26.094,47.508,47.608
				c27.703,21.166,41.75,30.464,65.348,43.243l0.117,0.064l0.037,0.128c0.807,2.709-0.449,4.261-0.535,4.606L377,245.664v1.191l0,0
				v-1.16l-11.789-114.138l0.334-0.065c0.004-0.014,0.576-1.443-0.211-4.174c-23.563-12.766-37.543-22.079-65.236-43.236
				c-28.232-21.572-47.388-47.465-47.575-47.721L224.076,2.679l8.479,208.028l2.398,102.934L234.316,313.656z"/>
		</g>
		<g>
			<path fill="#1D1A63" d="M58.698,231h-2.263l0,0h1.64l4.16-160.305l0.145-0.02c0.455-0.301,46.068-29.66,91.096-45.836
				c45.003-16.164,69.927-23.334,70.173-23.403l0.18,0.62c-0.246,0.074-25.154,7.262-70.137,23.417
				C109.987,41.17,65.717,68.904,62.87,70.73L58.698,231z"/>
		</g>
		<g>
			<path fill="#1D1A63" d="M62.349,84.466l-0.273-0.577c0.76-0.364,1.69-1.091,3.094-2.187
				c8.925-6.984,36.079-28.234,158.479-63.246l0.18,0.616C101.545,54.05,74.464,75.246,65.565,82.203
				C64.126,83.33,63.18,84.073,62.349,84.466z"/>
		</g>
		<g>
			<path fill="#1D1A63" d="M370.17,165.435c-0.367-0.135-37.234-14.238-73.094-39.677C260.422,99.759,226.277,62,225.936,61.621
				l-0.076-0.082l-0.543-14.23l0.619,0.879c0.297,0.417,30.082,41.859,84.617,76.7c32.186,20.567,58.279,30.953,58.543,31.058
				l-0.236,0.596c-0.26-0.101-26.41-10.512-58.652-31.111c-50.326-32.154-79.623-69.932-84.172-76.024l0.455,11.873
				c1.844,2.036,35.211,38.603,70.953,63.958c35.791,25.391,72.586,39.463,72.953,39.603L370.17,165.435z"/>
		</g>
		<g>
			<path fill="#1D1A63" d="M371.65,183.189c-0.277-0.096-27.953-9.463-48.336-19.905c-65.014-33.296-95.707-69.427-96.01-69.793
				l0.492-0.412c0.301,0.363,30.924,36.402,95.809,69.635c20.34,10.418,47.973,19.774,48.252,19.868L371.65,183.189z"/>
		</g>
		<g>
			<path fill="#1D1A63" d="M372.744,193.152c-0.293-0.092-29.658-9.254-68.023-29.546c-38.375-20.299-76.508-55.354-76.889-55.708
				l0.434-0.469c0.381,0.352,38.453,35.352,76.754,55.607c38.309,20.264,67.621,29.409,67.912,29.5L372.744,193.152z"/>
		</g>
		<g>
			<path fill="#1D1A63" d="M375.729,219.836c-0.15-0.006-15.514-0.863-65.098-20.104c-48.5-18.818-80.518-43.807-80.836-44.057
				l0.398-0.502c0.314,0.247,32.264,25.176,80.67,43.963c49.436,19.184,64.744,20.055,64.891,20.063L375.729,219.836z"/>
		</g>
		<g>
			<path fill="#1D1A63" d="M377.883,239.857c-0.207-0.021-21.027-2.652-65.73-15.971c-44.711-13.316-79.904-32.527-80.26-32.719
				l0.313-0.561c0.346,0.189,35.49,19.369,80.129,32.666c44.652,13.299,65.42,15.924,65.625,15.949L377.883,239.857z"/>
		</g>
		<g>
			<polygon fill="#1D1A63" points="234,315 234,314 239.27,314 303.74,309.178 298.648,233.668 299.287,233.538 304.424,309.48 
				304.104,310 239.293,315 			"/>
		</g>
		<g>
			<path fill="#1D1A63" d="M344.871,243.549c-68.506-13.639-110.641-36.088-112.885-37.303
				c-2.951,0.352-66.496,7.994-101.324,13.588c-35.482,5.699-73.748,13.926-74.131,14.01l-0.135-0.627
				c0.383-0.084,38.666-8.316,74.165-14.018c35.496-5.699,100.793-13.525,101.45-13.602l0.104-0.014l0.09,0.051
				c0.418,0.232,42.822,23.354,112.789,37.285L344.871,243.549z"/>
		</g>
		<g>
			<path fill="#1D1A63" d="M333.898,245.094c-61.986-13.699-99.791-33.855-101.912-35.002c-2.951,0.352-66.496,7.994-101.324,13.588
				c-35.482,5.697-73.748,13.928-74.131,14.01l-0.135-0.625c0.383-0.086,38.666-8.314,74.165-14.018
				c35.496-5.699,100.793-13.525,101.45-13.602l0.104-0.014l0.09,0.047c0.377,0.211,38.428,20.977,101.83,34.988L333.898,245.094z"
				/>
		</g>
		<g>
			<path fill="#1D1A63" d="M61.426,121.001l-0.322-0.555c0.322-0.184,32.609-18.69,78.903-32.648
				c45.027-13.577,85.198-22.934,85.6-23.031l0.143,0.626c-0.402,0.089-40.55,9.447-85.557,23.022
				C93.97,102.351,61.745,120.818,61.426,121.001z"/>
		</g>
		<g>
			<path fill="#1D1A63" d="M60.772,157.621l-0.289-0.572c0.186-0.094,19.345-9.68,62.344-22.455
				c42.689-12.677,104.05-24.249,104.664-24.367l0.117,0.633c-0.613,0.111-61.944,11.683-104.597,24.35
				C80.064,147.964,60.963,157.525,60.772,157.621z"/>
		</g>
		<g>
			<path fill="#1D1A63" d="M57.436,198.023l-0.232-0.594c0.311-0.125,31.949-12.5,76.55-21.701
				c44.577-9.198,95.68-17.456,96.19-17.539l0.1,0.632c-0.508,0.078-51.599,8.342-96.162,17.536
				C89.341,185.545,57.75,197.9,57.436,198.023z"/>
		</g>
		<g>
			<path fill="#1D1A63" d="M57.432,195.676l-0.227-0.602c0.328-0.123,33.578-12.537,89.581-24.161
				c55.987-11.619,82.333-15.768,82.59-15.806l0.1,0.635c-0.26,0.04-26.592,4.183-82.56,15.796
				C90.966,183.154,57.76,195.549,57.432,195.676z"/>
		</g>
		<g>
			<path fill="#1D1A63" d="M367.424,140.542l-0.498-0.214c-0.313-0.138-31.854-13.857-69.012-41.979
				c-37.158-28.12-72.541-74.543-72.896-75.009l0.512-0.39c0.35,0.469,35.686,46.821,72.775,74.89
				c34.537,26.136,64.207,39.808,68.375,41.677l-0.199-2.074c-1.99-0.922-10.348-4.83-16.768-8.459
				c-1.057-0.6-2.156-1.197-3.346-1.843c-6.914-3.762-17.361-9.448-40.984-27.026c-27.277-20.299-59.486-58.007-59.809-58.385
				l-20.521-22.75l0.475-0.43l20.531,22.757c0.326,0.385,32.488,38.034,59.709,58.294c23.582,17.551,34.01,23.224,40.908,26.977
				c1.191,0.648,2.295,1.249,3.355,1.851c6.756,3.815,15.67,7.951,16.99,8.558l0.164,0.074l-0.08,0.176L367.424,140.542z"/>
		</g>
		<g>
			<path fill="#1D1A63" d="M372.744,194.346c-0.271-0.084-27.713-8.488-64.805-25.925c-37.113-17.445-79.465-54.793-79.883-55.169
				l0.422-0.478c0.422,0.372,42.703,37.657,79.732,55.066c37.047,17.416,64.447,25.814,64.721,25.892L372.744,194.346z"/>
		</g>
		<g>
			<path fill="#1D1A63" d="M375.84,221.125c-0.209-0.027-20.99-3.031-66.912-19.682c-57.248-20.75-78.951-42.495-79.162-42.715
				l0.459-0.447c0.209,0.215,21.828,21.868,78.922,42.561c45.861,16.625,66.578,19.617,66.777,19.648L375.84,221.125z"/>
		</g>
		<g>
			<polygon fill="#1D1A63" points="335,250.26 299.305,242.264 299.689,241.635 335,249.465 335,243.316 335,243.316 			"/>
		</g>
		<g>
			<rect x="300" y="251" fill="#1D1A63" width="14" height="1"/>
		</g>
		<g>
			
				<rect x="328.055" y="244.662" transform="matrix(0.0851 0.9964 -0.9964 0.0851 549.884 -98.1338)" fill="#1D1A63" width="0.643" height="11.367"/>
		</g>
		<g>
			<path fill="#1D1A63" d="M307.943,309.979l-5.635-66.018l0.637-0.055l5.584,65.398l11.545-0.607l-4.316-60.217l0.141-0.104
				c0.043-0.031,1.105-0.799,3.506-1.182c2.566-0.406,3.59,1.711,3.598,1.729l0.031,0.109l5.662,59.939l-0.639,0.059l-5.658-59.877
				c-0.148-0.277-0.982-1.631-2.895-1.324c-1.75,0.279-2.732,0.771-3.082,0.973l4.336,60.5L307.943,309.979z"/>
		</g>
		<g>
			<rect x="312.525" y="281" fill="#1D1A63" width="5.9" height="0"/>
		</g>
		<g>
			
				<rect x="297.118" y="265.572" transform="matrix(0.0926 0.9957 -0.9957 0.0926 546.9251 -68.3464)" fill="#1D1A63" width="27.683" height="0.637"/>
		</g>
		<g>
			<polygon fill="#1D1A63" points="379.73,281.137 376.137,247.762 376.773,247.691 380.365,281.064 			"/>
		</g>
		<g>
			<path fill="#1D1A63" d="M375.279,251.467"/>
		</g>
		<g>
			
				<rect x="333.098" y="260.163" transform="matrix(0.0728 0.9973 -0.9973 0.0728 584.9814 -108.2478)" fill="#1D1A63" width="35.218" height="0.638"/>
		</g>
		<g>
			<polygon fill="#1D1A63" points="375.822,251.773 349.387,243.242 335.023,244.256 334.977,243.615 349.467,242.594 
				349.52,242.617 376.02,251.16 			"/>
		</g>
		<g>
			<polygon fill="#1D1A63" points="378.516,280.959 374.961,251.504 375.598,251.43 379.152,280.885 			"/>
		</g>
		<g>
			<path fill="#1D1A63" d="M75.25,79.65l-0.389-0.506c0.129-0.101,13.693-10.317,56.481-27.97
				c42.776-17.647,91.833-29.079,92.325-29.194l0.141,0.624c-0.486,0.112-49.496,11.537-92.219,29.162
				C88.904,69.378,75.381,79.552,75.25,79.65z"/>
		</g>
		<g>
			<path fill="#1D1A63" d="M368.953,166.509c-0.334-0.111-33.869-11.516-69.484-35.937c-34.607-23.733-70.816-60.06-73.154-62.414
				c-2.518,0.409-34.003,5.753-87.697,23.243c-55.585,18.107-63.262,25.428-63.334,25.496l-0.461-0.445
				c0.289-0.295,7.656-7.438,63.596-25.66c55.793-18.174,87.644-23.246,87.96-23.295l0.16-0.024l0.113,0.115
				c0.375,0.38,37.631,38.075,73.182,62.455c35.541,24.376,68.986,35.749,69.326,35.861L368.953,166.509z"/>
		</g>
		<g>
			<path fill="#1D1A63" d="M74.328,140.328l-0.257-0.59c0.357-0.154,35.939-15.509,74.197-25.446
				c38.238-9.929,78.806-19.112,79.212-19.203l0.141,0.626c-0.404,0.094-40.964,9.27-79.192,19.197
				C110.219,124.833,74.68,140.17,74.328,140.328z"/>
		</g>
		<g>
			<path fill="#1D1A63" d="M374.742,211.107c-0.193-0.029-19.871-3.174-60.057-19.498c-51.348-20.858-83.164-47.843-85.354-49.727
				c-3.117,0.572-52.664,9.685-89.163,17.904c-37.493,8.445-66.644,18.528-66.935,18.633l-0.206-0.607
				c0.287-0.102,29.47-10.196,67.005-18.651c37.52-8.449,88.824-17.842,89.337-17.938l0.154-0.027l0.113,0.104
				c0.32,0.277,32.432,28.246,85.289,49.715c40.102,16.291,59.719,19.428,59.91,19.459L374.742,211.107z"/>
		</g>
		<g>
			<path fill="#1D1A63" d="M74.345,102.494l-0.294-0.569c0.262-0.136,26.508-13.647,68.917-28.864
				c42.407-15.215,82.243-23.9,82.643-23.985l0.135,0.628c-0.398,0.082-40.194,8.758-82.564,23.961
				C100.815,88.867,74.61,102.358,74.345,102.494z"/>
		</g>
		<g>
			<path fill="#1D1A63" d="M73.215,219.826l-0.164-0.619c0.34-0.094,34.645-9.26,72.895-15.604
				c38.239-6.338,83.552-12.334,84.005-12.395l0.084,0.635c-0.451,0.061-45.757,6.057-83.987,12.395
				C107.833,210.574,73.557,219.736,73.215,219.826z"/>
		</g>
		<g>
			<rect x="69" y="80.457" fill="#1D1A63" width="0" height="21.242"/>
		</g>
		<g>
			<rect x="69" y="117.039" fill="#1D1A63" width="0" height="23.603"/>
		</g>
		<g>
			<rect x="69" y="155.986" fill="#1D1A63" width="0" height="23.11"/>
		</g>
		<g>
			<rect x="69" y="194.982" fill="#1D1A63" width="0" height="24.555"/>
		</g>
		<g>
			<path fill="#1D1A63" d="M73.562,154.648l-0.222-0.602c0.393-0.145,39.48-14.416,70.667-22.77
				c60.555-16.206,83.29-18.563,83.51-18.585l0.064,0.64c-0.223,0.02-22.916,2.373-83.411,18.572
				C113.012,140.24,73.954,154.506,73.562,154.648z"/>
		</g>
		<g>
			<polygon fill="#1D1A63" points="11.462,338.938 13.633,289 15.776,289 18.75,235.355 19.39,235.723 16.38,289 14.247,289 
				12.146,337.551 16.194,334.994 20.902,233.96 55.643,237.756 55.575,238.326 21.512,234.464 16.819,335.576 			"/>
		</g>
		<g>
			
				<rect x="153.204" y="239.991" transform="matrix(0.029 0.9996 -0.9996 0.029 464.8633 153.2986)" fill="#1D1A63" width="0.639" height="151.881"/>
		</g>
		<g>
			
				<rect x="230.172" y="322.998" transform="matrix(0.0606 0.9982 -0.9982 0.0606 548.0524 64.3119)" fill="#1D1A63" width="19.375" height="0.64"/>
		</g>
		<g>
			
				<rect x="276.986" y="283.565" transform="matrix(0.0612 0.9981 -0.9981 0.0612 577.0089 21.0674)" fill="#1D1A63" width="0.638" height="67.431"/>
		</g>
		<g>
			
				<rect x="283.074" y="299.784" transform="matrix(0.1128 0.9936 -0.9936 0.1128 578.158 10.1516)" fill="#1D1A63" width="0.641" height="58.072"/>
		</g>
		<g>
			
				<rect x="360.24" y="276.783" transform="matrix(0.0151 0.9999 -0.9999 0.0151 663.1838 -57.0699)" fill="#1D1A63" width="0.645" height="62.672"/>
		</g>
		<g>
			<rect x="327.865" y="299" fill="#1D1A63" width="22.424" height="0"/>
		</g>
		<g>
			
				<rect x="349.227" y="303.077" transform="matrix(0.9329 0.3601 -0.3601 0.9329 133.5076 -109.8921)" fill="#1D1A63" width="24.968" height="0.639"/>
		</g>
		<g>
			<polygon fill="#1D1A63" points="366.096,308.145 350.014,303 324,303 324,301.789 348.352,301.803 365.398,307.398 			"/>
		</g>
		<g>
			<polygon fill="#1D1A63" points="356.906,308.877 349.371,307 324,307 324,304.994 347.395,305.01 356.049,307.93 			"/>
		</g>
		<g>
			<rect x="327.865" y="298" fill="#1D1A63" width="41.307" height="0"/>
		</g>
		<g>
			
				<rect x="364.341" y="301.628" transform="matrix(0.1231 0.9924 -0.9924 0.1231 624.1158 -102.3867)" fill="#1D1A63" width="11.301" height="0.643"/>
		</g>
		<g>
			<polygon fill="#1D1A63" points="368.229,307.586 367.266,296.369 365.879,281.732 366.518,281.674 367.906,296.309 
				368.869,307.529 			"/>
		</g>
		<g>
			<path fill="#1D1A63" d="M386.484,284h-0.162L322,279.289v-0.611l28.232-0.971l34.662,5.154L382.256,251H377v-3h5.83L386.484,284z
				 M333.385,279.051l42.533,1.881l-23.965-2.57L333.385,279.051z"/>
		</g>
		<g>
			<polygon fill="#1D1A63" points="332,310.584 332,310.584 332,309.971 306.342,310.686 305.658,310.043 332,309.313 			"/>
		</g>
		<g>
			<polygon fill="#1D1A63" points="339,315 338,315 338,313.814 310.33,314.379 310.043,313.736 339,313.162 			"/>
		</g>
		<g>
			<polygon fill="#1D1A63" points="344,320 341,320 341,315.736 313.752,316.303 314.256,315.66 344,315.084 			"/>
		</g>
		<g>
			<polygon fill="#1D1A63" points="348,320 346,320 346,317.66 317.855,318.227 318.309,317.584 348,317.004 			"/>
		</g>
		<g>
			<polygon fill="#1D1A63" points="348,321.205 348,321.205 348,319.584 320.457,320.15 319.611,319.508 348,318.932 			"/>
		</g>
		<g>
			<polygon fill="#1D1A63" points="335,313.416 335,313.416 335,311.25 307.229,311.818 306.492,311.174 335,310.598 			"/>
		</g>
		<g>
			<polygon fill="#1D1A63" points="58,247.066 58,237.414 58,237.414 58,246.254 77.674,241.537 78.205,242.162 			"/>
		</g>
		<g>
			<polygon fill="#1D1A63" points="67.531,248.232 67.483,248.225 57.389,246.979 57.465,246.338 67.513,247.586 77.561,245.781 
				77.674,246.412 			"/>
		</g>
		<g>
			
				<rect x="131.626" y="217.441" transform="matrix(0.0229 0.9997 -0.9997 0.0229 463.4612 195.0565)" fill="#1D1A63" width="0.641" height="234.354"/>
		</g>
		<g>
			<rect x="64" y="251" fill="#1D1A63" width="3" height="64"/>
		</g>
		<g>
			
				<rect x="42.535" y="286.802" transform="matrix(0.0397 0.9992 -0.9992 0.0397 357.9751 261.6572)" fill="#1D1A63" width="0.639" height="60.542"/>
		</g>
		<g>
			<rect x="27" y="320.023" fill="#1D1A63" width="0" height="16.52"/>
		</g>
		<g>
			<rect x="28.112" y="320" fill="#1D1A63" width="34.224" height="0"/>
		</g>
		<g>
			<polygon fill="#1D1A63" points="150.667,334.539 62.823,320.373 62.924,319.746 150.766,333.906 			"/>
		</g>
		<g>
			
				<rect x="30.742" y="305.633" transform="matrix(0.9993 0.0366 -0.0366 0.9993 11.4763 -0.9276)" fill="#1D1A63" width="0.64" height="14.43"/>
		</g>
		<g>
			
				<rect x="45.806" y="289.9" transform="matrix(0.0639 0.998 -0.998 0.0639 347.3092 239.2473)" fill="#1D1A63" width="0.642" height="29.703"/>
		</g>
		<g>
			<polygon fill="#1D1A63" points="138.887,318.529 60.892,304.189 61.01,303.557 139.003,317.902 			"/>
		</g>
		<g>
			
				<rect x="44.405" y="296.691" transform="matrix(0.0483 0.9988 -0.9988 0.0483 352.5734 250.7198)" fill="#1D1A63" width="0.637" height="27.357"/>
		</g>
		<g>
			<polygon fill="#1D1A63" points="149.786,324.541 58.331,308.09 58.444,307.455 149.899,323.912 			"/>
		</g>
		<g>
			
				<rect x="46.127" y="298.802" transform="matrix(0.0496 0.9988 -0.9988 0.0496 358.2024 252.4515)" fill="#1D1A63" width="0.639" height="31.293"/>
		</g>
		<g>
			
				<rect x="61.238" y="321.665" transform="matrix(0.9801 0.1983 -0.1983 0.9801 65.9156 -14.0842)" fill="#1D1A63" width="84.045" height="0.638"/>
		</g>
		<g>
			<polygon fill="#1D1A63" points="40.273,319.756 39.639,319.717 40.437,305.615 41.078,305.654 			"/>
		</g>
		<g>
			
				<rect x="48.931" y="304.745" transform="matrix(0.9991 0.0427 -0.0427 0.9991 13.3806 -1.8186)" fill="#1D1A63" width="0.64" height="14.998"/>
		</g>
		<g>
			
				<rect x="51.049" y="312.086" transform="matrix(0.0418 0.9991 -0.9991 0.0418 368.3852 240.6829)" fill="#1D1A63" width="15.318" height="0.639"/>
		</g>
		<g>
			
				<rect x="68.46" y="305.634" transform="matrix(0.9998 0.0213 -0.0213 0.9998 6.6802 -1.3922)" fill="#1D1A63" width="0.643" height="15.352"/>
		</g>
		<g>
			
				<rect x="94.399" y="318.945" transform="matrix(0.0115 0.9999 -0.9999 0.0115 419.4928 214.1666)" fill="#1D1A63" width="14.04" height="0.641"/>
		</g>
		<g>
			
				<rect x="118.404" y="326.18" transform="matrix(0.0011 1 -1 0.0011 451.2722 201.2529)" fill="#1D1A63" width="13" height="0.641"/>
		</g>
		<g>
			
				<rect x="137.655" y="321.978" transform="matrix(0.9991 0.0425 -0.0425 0.9991 14.0295 -5.5703)" fill="#1D1A63" width="0.643" height="10.158"/>
		</g>
		<g>
			
				<rect x="137.152" y="110.755" transform="matrix(0.0494 0.9988 -0.9988 0.0494 336.2137 -131.1082)" fill="#1D1A63" width="199.666" height="0.645"/>
		</g>
		<g>
			<polygon fill="#1D1A63" points="247.971,213.674 238.311,19.396 238.947,19.365 248.615,213.643 			"/>
		</g>
		<g>
			<polygon fill="#1D1A63" points="253.742,216.236 244.742,27.005 245.379,26.974 254.385,216.207 			"/>
		</g>
		<g>
			
				<rect x="161.081" y="124.666" transform="matrix(0.0553 0.9985 -0.9985 0.0553 365.4302 -136.2726)" fill="#1D1A63" width="187.303" height="0.64"/>
		</g>
		<g>
			<polygon fill="#1D1A63" points="265.563,220.828 254.357,39.83 254.996,39.794 266.199,220.787 			"/>
		</g>
		<g>
			
				<rect x="177.428" y="134.215" transform="matrix(0.0618 0.9981 -0.9981 0.0618 383.7621 -139.1803)" fill="#1D1A63" width="176.967" height="0.642"/>
		</g>
		<g>
			
				<rect x="186.122" y="138.604" transform="matrix(0.059 0.9983 -0.9983 0.059 394.5538 -140.7252)" fill="#1D1A63" width="171.601" height="0.64"/>
		</g>
		<g>
			
				<rect x="192.114" y="141.715" transform="matrix(0.0619 0.9981 -0.9981 0.0619 401.2592 -142.8256)" fill="#1D1A63" width="168.982" height="0.642"/>
		</g>
		<g>
			
				<rect x="199.151" y="145.336" transform="matrix(0.0681 0.9977 -0.9977 0.0681 408.2524 -145.7783)" fill="#1D1A63" width="166.027" height="0.64"/>
		</g>
		<g>
			
				<rect x="207.047" y="149.41" transform="matrix(0.0654 0.9979 -0.9979 0.0654 418.1387 -146.9917)" fill="#1D1A63" width="160.99" height="0.642"/>
		</g>
		<g>
			
				<rect x="213.676" y="152.182" transform="matrix(0.0629 0.998 -0.998 0.0629 425.9597 -148.6237)" fill="#1D1A63" width="156.887" height="0.644"/>
		</g>
		<g>
			<path fill="#1D1A63" d="M301.857,232.182c-0.09-1.119-8.928-112.376-10.529-153.467l0.645-0.022
				c1.598,41.077,10.436,152.318,10.527,153.437L301.857,232.182z"/>
		</g>
		<g>
			<path fill="#1D1A63" d="M306.344,233.5c-0.068-1.096-7.053-109.894-10.527-150.924l0.637-0.053
				c3.479,41.035,10.461,149.838,10.531,150.932L306.344,233.5z"/>
		</g>
		<g>
			<path fill="#1D1A63" d="M312.113,235.037c-0.076-1.053-7.91-105.827-10.256-147.125l0.643-0.038
				c2.342,41.294,10.176,146.062,10.254,147.115L312.113,235.037z"/>
		</g>
		<g>
			<path fill="#1D1A63" d="M316.947,236.43c-0.082-1.033-8.553-103.637-9.963-145.323l0.643-0.019
				c1.406,41.667,9.875,144.257,9.961,145.289L316.947,236.43z"/>
		</g>
		<g>
			<path fill="#1D1A63" d="M322.441,238.354c-0.074-0.941-7.52-94.805-11.607-144.022l0.635-0.058
				c4.092,49.222,11.537,143.087,11.609,144.031L322.441,238.354z"/>
		</g>
		<g>
			<path fill="#1D1A63" d="M327.357,239.527c-0.072-0.918-7.309-92.135-11.396-141.353l0.639-0.054
				c4.088,49.221,11.322,140.44,11.396,141.356L327.357,239.527z"/>
		</g>
		<g>
			<path fill="#1D1A63" d="M332.057,239.529c-0.076-0.879-7.52-88.289-11.609-137.508l0.641-0.053
				c4.088,49.217,11.535,136.627,11.607,137.508L332.057,239.529z"/>
		</g>
		<g>
			<path fill="#1D1A63" d="M337.188,240.609c-0.084-0.809-8.475-81.799-11.611-134.75l0.641-0.035
				c3.137,52.934,11.521,133.909,11.607,134.721L337.188,240.609z"/>
		</g>
		<g>
			<path fill="#1D1A63" d="M341.412,241.025c-0.074-0.773-7.373-78.04-11.988-132.594l0.635-0.053
				c4.621,54.553,11.918,131.813,11.99,132.588L341.412,241.025z"/>
		</g>
		<g>
			<path fill="#1D1A63" d="M346.33,242.953c-0.08-0.727-8.104-73.504-11.779-130.682l0.641-0.039
				c3.674,57.158,11.695,129.924,11.779,130.651L346.33,242.953z"/>
		</g>
		<g>
			<path fill="#1D1A63" d="M350.574,243.27c-0.08-0.703-7.861-71.258-11.535-128.434l0.641-0.041
				c3.672,57.161,11.455,127.7,11.533,128.405L350.574,243.27z"/>
		</g>
		<g>
			<path fill="#1D1A63" d="M355.061,244.123c-0.057-0.65-5.83-65.766-11.533-126.073l0.637-0.059
				c5.703,60.307,11.479,125.424,11.539,126.073L355.061,244.123z"/>
		</g>
		<g>
			<path fill="#1D1A63" d="M359.549,246.047c-0.057-0.652-5.832-65.768-11.535-126.074l0.641-0.058
				c5.701,60.307,11.477,125.422,11.531,126.073L359.549,246.047z"/>
		</g>
		<g>
			<path fill="#1D1A63" d="M363.865,246.686c-0.059-0.631-5.664-63.842-11.365-124.149l0.641-0.059
				c5.701,60.309,11.309,123.52,11.361,124.153L363.865,246.686z"/>
		</g>
		<g>
			<path fill="#1D1A63" d="M368.523,248.611c-0.057-0.619-5.834-62.563-11.531-122.87l0.635-0.057
				c5.699,60.307,11.475,122.247,11.533,122.868L368.523,248.611z"/>
		</g>
		<g>
			<path fill="#1D1A63" d="M373.867,250.377c-0.068-0.602-6.689-61.117-12.393-121.428l0.639-0.06
				c5.703,60.302,12.322,120.814,12.389,121.421L373.867,250.377z"/>
		</g>
		<g>
			
				<rect x="109.944" y="112.189" transform="matrix(0.0401 0.9992 -0.9992 0.0401 315.1214 -103.0032)" fill="#1D1A63" width="202.456" height="0.647"/>
		</g>
		<g>
			
				<rect x="96.533" y="115.47" transform="matrix(0.0357 0.9994 -0.9994 0.0357 303.9951 -83.4708)" fill="#1D1A63" width="197.435" height="0.642"/>
		</g>
		<g>
			<path fill="#1D1A63" d="M181.788,217.234C181.738,215.773,176.661,69,176.661,25h0.642c0,44,5.078,191.758,5.129,193.213
				L181.788,217.234z"/>
		</g>
		<g>
			<path fill="#1D1A63" d="M167.046,220.479C166.993,219.021,161.915,74,161.915,27h0.643c0,47,5.076,192.379,5.129,193.836
				L167.046,220.479z"/>
		</g>
		<g>
			<path fill="#1D1A63" d="M151.926,222.619C151.885,221.209,147.815,82,147.815,34h0.639c0,48,4.074,187.563,4.113,188.969
				L151.926,222.619z"/>
		</g>
		<g>
			<path fill="#1D1A63" d="M137.707,223.162C137.687,221.775,135.634,84,135.634,36h0.64c0,48,2.056,185.832,2.074,187.219
				L137.707,223.162z"/>
		</g>
		<g>
			<path fill="#1D1A63" d="M125.209,224.383C125.196,223.043,123.616,90,123.616,42h0.638c0,48,1.586,181.273,1.603,182.617
				L125.209,224.383z"/>
		</g>
		<g>
			<path fill="#1D1A63" d="M113.629,225.154C113.612,223.844,112.075,93,112.075,46h0.641c0,47,1.537,178.123,1.555,179.436
				L113.629,225.154z"/>
		</g>
		<g>
			<path fill="#1D1A63" d="M101.018,229.143l-0.643,0.412C100.383,228.25,101.177,97,101.177,51h0.641
				C101.818,97,101.026,227.838,101.018,229.143z"/>
		</g>
		<g>
			<path fill="#1D1A63" d="M91.401,229.441l-0.641-0.281C90.768,227.896,91.561,103,91.561,54h0.643
				C92.204,103,91.411,228.176,91.401,229.441z"/>
		</g>
		<g>
			<path fill="#1D1A63" d="M81.787,231.979l-0.644,0.188C81.154,230.938,81.944,108,81.944,61h0.642
				C82.585,108,81.794,230.75,81.787,231.979z"/>
		</g>
		<g>
			<path fill="#1D1A63" d="M71.956,233.414l-0.638,0.146C71.345,232.371,74.252,114,74.252,66h0.641
				C74.893,114,71.988,232.225,71.956,233.414z"/>
		</g>
		<g>
			<path fill="#1D1A63" d="M63.625,233.98l-0.644-0.072C63.009,232.746,65.917,117,65.917,69h0.644
				C66.561,117,63.654,232.816,63.625,233.98z"/>
		</g>
		<g>
			
				<rect x="76.497" y="230.632" transform="matrix(0.9999 0.0122 -0.0122 0.9999 3.3438 -0.9164)" fill="#1D1A63" width="0.641" height="86.224"/>
		</g>
		<g>
			<path fill="#1D1A63" d="M302.619,294.947c-0.381-0.006-38.172-0.971-68.48-2.02l0.02-0.639c30.309,1.047,68.1,2.01,68.479,2.02
				L302.619,294.947z"/>
		</g>
		<g>
			<path fill="#1D1A63" d="M302.592,280.848c-0.379-0.041-38.336-4.08-68.482-8.066l0.082-0.635
				c30.143,3.984,68.092,8.021,68.469,8.061L302.592,280.848z"/>
		</g>
		<g>
			<path fill="#1D1A63" d="M301.354,269.781c-19.033-2.945-42.012-6.799-68.119-13.031l0.148-0.621
				c26.084,6.227,49.047,10.074,68.066,13.021L301.354,269.781z"/>
		</g>
		<g>
			<path fill="#1D1A63" d="M300.371,255.297c-15.4-2.387-41.135-8.143-67.166-17.146l0.207-0.605
				c25.992,8.99,51.682,14.734,67.057,17.117L300.371,255.297z"/>
		</g>
		<g>
			<path fill="#1D1A63" d="M299.488,242.213c-15.605-2.418-41.012-10.857-66.309-22.021l0.258-0.586
				c25.25,11.146,50.598,19.566,66.15,21.975L299.488,242.213z"/>
		</g>
		<g>
			<path fill="#1D1A63" d="M236.98,208.438"/>
		</g>
		<g>
			<polygon fill="#1D1A63" points="238.947,313.656 236.6,213.332 237.24,213.316 239.594,313.641 			"/>
		</g>
		<g>
			<path fill="#1D1A63" d="M305.824,295.59c-0.379-0.01-38.174-0.973-68.48-2.02l0.023-0.643c30.301,1.049,68.094,2.014,68.471,2.02
				L305.824,295.59z"/>
		</g>
		<g>
			<path fill="#1D1A63" d="M305.801,281.486c-0.385-0.039-38.34-4.078-68.488-8.064l0.084-0.631
				c30.143,3.982,68.09,8.018,68.469,8.061L305.801,281.486z"/>
		</g>
		<g>
			<path fill="#1D1A63" d="M304.559,270.424c-19.035-2.947-42.012-6.801-68.123-13.033l0.152-0.619
				c26.086,6.225,49.047,10.072,68.066,13.018L304.559,270.424z"/>
		</g>
		<g>
			<path fill="#1D1A63" d="M303.578,255.936c-15.406-2.385-41.139-8.141-67.168-17.145l0.209-0.605
				c25.988,8.99,51.682,14.736,67.057,17.117L303.578,255.936z"/>
		</g>
		<g>
			<path fill="#1D1A63" d="M302.695,242.854c-15.607-2.416-41.014-10.854-66.313-22.021l0.262-0.588
				c25.248,11.148,50.594,19.568,66.146,21.977L302.695,242.854z"/>
		</g>
		<g>
			<path fill="#1D1A63" d="M240.189,209.08"/>
		</g>
		<g>
			
				<rect x="192.286" y="263.326" transform="matrix(0.0378 0.9993 -0.9993 0.0378 496.3201 11.8594)" fill="#1D1A63" width="99.432" height="0.643"/>
		</g>
		<g>
			
				<rect x="197.412" y="263.966" transform="matrix(0.0497 0.9988 -0.9988 0.0497 497.6026 5.5758)" fill="#1D1A63" width="96.919" height="0.641"/>
		</g>
		<g>
			<path fill="#1D1A63" d="M254.229,313.342c-0.049-0.707-4.986-71.342-4.986-94.342h0.643c0,23,4.932,93.826,4.982,94.531
				L254.229,313.342z"/>
		</g>
		<g>
			<path fill="#1D1A63" d="M259.707,311.641c-0.047-0.674-4.695-67.641-4.695-91.641h0.639c0,24,4.65,90.826,4.699,91.5
				L259.707,311.641z"/>
		</g>
		<g>
			<path fill="#1D1A63" d="M265.453,311.824c-3.172-45.555-3.537-57.92-3.889-69.875c-0.15-5.23-0.313-10.639-0.711-18.779
				l0.639-0.029c0.402,8.143,0.563,13.555,0.715,18.787c0.35,11.951,0.713,24.309,3.883,69.857L265.453,311.824z"/>
		</g>
		<g>
			<path fill="#1D1A63" d="M263.529,311.824c-3.18-45.68-3.57-58.625-3.947-71.139c-0.168-5.619-0.328-10.926-0.725-19.016
				l0.639-0.031c0.398,8.096,0.561,13.406,0.729,19.027c0.375,12.51,0.764,25.445,3.941,71.119L263.529,311.824z"/>
		</g>
		<g>
			<path fill="#1D1A63" d="M270.656,310.936c-1.795-45.834-2.408-56.26-3.059-67.295c-0.281-4.813-0.574-9.781-0.977-17.908
				l0.641-0.025c0.4,8.117,0.691,13.084,0.975,17.891c0.65,11.045,1.266,21.473,3.059,67.313L270.656,310.936z"/>
		</g>
		<g>
			<path fill="#1D1A63" d="M268.922,311.576c-1.912-44.479-2.598-56.477-3.262-68.08c-0.314-5.518-0.615-10.732-1.033-19.26
				l0.641-0.031c0.416,8.525,0.717,13.738,1.033,19.254c0.664,11.605,1.35,23.605,3.262,68.092L268.922,311.576z"/>
		</g>
		<g>
			<path fill="#1D1A63" d="M276.32,310.217c-1.771-45.332-2.348-54.844-2.955-64.916c-0.277-4.584-0.564-9.32-0.975-17.643
				l0.641-0.031c0.408,8.32,0.695,13.059,0.973,17.635c0.609,10.074,1.186,19.594,2.955,64.93L276.32,310.217z"/>
		</g>
		<g>
			<path fill="#1D1A63" d="M273.885,310.936c-1.477-34.438-2.014-48.906-2.361-58.482c-0.326-8.848-0.51-13.721-1.127-26.299
				l0.637-0.027c0.621,12.576,0.803,17.451,1.127,26.299c0.354,9.58,0.889,24.049,2.369,58.482L273.885,310.936z"/>
		</g>
		<g>
			<path fill="#1D1A63" d="M282.09,310.66c-1.756-44.908-2.332-54.184-2.939-64.002c-0.279-4.535-0.57-9.227-0.988-17.719
				l0.641-0.031c0.416,8.488,0.707,13.176,0.988,17.709c0.605,9.824,1.182,19.102,2.939,64.016L282.09,310.66z"/>
		</g>
		<g>
			<path fill="#1D1A63" d="M279.594,310.779c-1.553-36.205-1.998-49.625-2.293-58.504c-0.248-7.434-0.396-11.92-0.98-23.781
				l0.639-0.033c0.586,11.871,0.734,16.355,0.98,23.793c0.295,8.879,0.74,22.297,2.295,58.494L279.594,310.779z"/>
		</g>
		<g>
			<path fill="#1D1A63" d="M285.127,310.217c-1.822-42.49-2.49-52.492-3.08-61.316c-0.322-4.83-0.625-9.385-1.086-18.717
				l0.641-0.031c0.457,9.326,0.762,13.883,1.082,18.707c0.59,8.824,1.258,18.83,3.086,61.33L285.127,310.217z"/>
		</g>
		<g>
			<path fill="#1D1A63" d="M287.369,310.217c-1.791-41.701-2.576-51.855-3.27-60.814c-0.396-5.133-0.74-9.566-1.215-19.219
				l0.639-0.031c0.475,9.643,0.818,14.072,1.215,19.197c0.699,8.967,1.482,19.131,3.273,60.84L287.369,310.217z"/>
		</g>
		<g>
			<path fill="#1D1A63" d="M290.342,309.654c-1.768-41.105-2.738-51.121-3.52-59.172c-0.479-4.895-0.887-9.125-1.375-19.018
				l0.643-0.031c0.484,9.881,0.895,14.098,1.369,18.988c0.783,8.055,1.756,18.08,3.521,59.205L290.342,309.654z"/>
		</g>
		<g>
			<path fill="#1D1A63" d="M292.262,309.654c-1.762-41.105-2.736-51.121-3.516-59.172c-0.477-4.895-0.891-9.125-1.373-19.018
				l0.639-0.031c0.484,9.881,0.895,14.098,1.371,18.988c0.781,8.055,1.758,18.08,3.521,59.205L292.262,309.654z"/>
		</g>
		<g>
			<path fill="#1D1A63" d="M295.469,309.654c-1.76-40.988-2.732-50.301-3.514-57.787c-0.477-4.58-0.891-8.539-1.379-18.479
				l0.641-0.031c0.49,9.922,0.898,13.875,1.377,18.443c0.783,7.496,1.754,16.818,3.518,57.826L295.469,309.654z"/>
		</g>
		<g>
			<path fill="#1D1A63" d="M298.141,308.697c-2.162-42.225-2.746-47.752-4.316-62.527c-0.373-3.521-0.803-7.57-1.324-12.766
				l0.641-0.063c0.52,5.191,0.949,9.238,1.322,12.764c1.568,14.783,2.158,20.314,4.316,62.559L298.141,308.697z"/>
		</g>
		<g>
			<path fill="#1D1A63" d="M301.08,308.693c-1.758-40.947-2.668-49.42-3.402-56.232c-0.451-4.203-0.842-7.832-1.334-17.791
				l0.643-0.031c0.488,9.941,0.881,13.564,1.328,17.754c0.734,6.822,1.648,15.307,3.408,56.271L301.08,308.693z"/>
		</g>
		<g>
			<path fill="#1D1A63" d="M257.783,311.641C257.736,310.967,253.09,244,253.09,220h0.639c0,24,4.648,90.826,4.697,91.5
				L257.783,311.641z"/>
		</g>
		<g>
			<path fill="#1D1A63" d="M252.307,313.779c-0.047-0.713-4.346-71.779-4.346-94.779h0.639c0,23,4.303,94.484,4.346,95.201
				L252.307,313.779z"/>
		</g>
		<g>
			<path fill="#1D1A63" d="M77.686,242.162l-0.135-0.625c0.658-0.143,66.888-14.387,154.47-22.338l0.057,0.637
				C144.542,227.785,78.346,242.02,77.686,242.162z"/>
		</g>
		<g>
			<path fill="#1D1A63" d="M77.066,255.949l-0.091-0.633c0.665-0.094,67.477-9.359,155.046-17.313l0.057,0.639
				C144.526,246.594,77.726,255.859,77.066,255.949z"/>
		</g>
		<g>
			<path fill="#1D1A63" d="M77.338,272.51l-0.076-0.635c0.66-0.078,67.192-8.074,154.759-16.025l0.057,0.639
				C144.522,264.439,77.997,272.432,77.338,272.51z"/>
		</g>
		<g>
			<path fill="#1D1A63" d="M76.848,284.053l-0.06-0.639c0.642-0.059,65.326-5.838,156.5-11.539l0.041,0.639
				C142.162,278.215,77.49,283.994,76.848,284.053z"/>
		</g>
		<g>
			<path fill="#1D1A63" d="M76.837,300.717l-0.04-0.637c0.608-0.039,62.035-3.939,156.498-7.791l0.025,0.639
				C138.865,296.777,77.446,300.682,76.837,300.717z"/>
		</g>
		<g>
			<path fill="#1D1A63" d="M219.291,314h-0.641c0-24-1.588-99.014-1.605-99.756l0.643,0.273
				C217.703,215.262,219.291,290,219.291,314z"/>
		</g>
		<g>
			<path fill="#1D1A63" d="M218.008,314h-0.639c0-24-1.588-99.334-1.604-100.08l0.641,0.439C216.42,215.102,218.008,290,218.008,314
				z"/>
		</g>
		<g>
			<path fill="#1D1A63" d="M202.623,314h-0.641c0-24-1.585-99.014-1.604-99.756l0.639,0.273
				C201.035,215.262,202.623,290,202.623,314z"/>
		</g>
		<g>
			<path fill="#1D1A63" d="M201.34,314h-0.639c0-24-1.589-99.014-1.604-99.756l0.643,0.273C199.754,215.262,201.34,290,201.34,314z"
				/>
		</g>
		<g>
			<path fill="#1D1A63" d="M185.314,315h-0.642c0-24-1.585-98-1.601-99h0.642C183.727,217,185.314,291,185.314,315z"/>
		</g>
		<g>
			<path fill="#1D1A63" d="M186.6,315h-0.643c0-24-1.588-98-1.605-99h0.642C185.009,217,186.6,291,186.6,315z"/>
		</g>
		<g>
			<path fill="#1D1A63" d="M171.212,315h-0.642c0-24-1.584-96-1.605-96h0.645C169.624,219,171.212,291,171.212,315z"/>
		</g>
		<g>
			<path fill="#1D1A63" d="M172.495,315h-0.643c0-24-1.586-96-1.602-96h0.641C170.907,219,172.495,291,172.495,315z"/>
		</g>
		<g>
			<path fill="#1D1A63" d="M158.391,316h-0.643c0-25-1.584-95.213-1.601-95.926l0.639-0.014
				C156.804,220.771,158.391,291,158.391,316z"/>
		</g>
		<g>
			<path fill="#1D1A63" d="M156.467,316h-0.643c0-25-1.586-95.213-1.602-95.926l0.641-0.014
				C154.878,220.771,156.467,291,156.467,316z"/>
		</g>
		<g>
			<path fill="#1D1A63" d="M144.93,316h-0.643c0-25-1.586-93.277-1.6-93.969l0.637,0.004C143.342,222.725,144.93,291,144.93,316z"/>
		</g>
		<g>
			<path fill="#1D1A63" d="M143.005,316h-0.642c0-25-1.588-93.438-1.6-94.129l0.637-0.08C141.418,222.486,143.005,291,143.005,316z"
				/>
		</g>
		<g>
			<path fill="#1D1A63" d="M128.901,316h-0.642c0-25-1.583-91.742-1.599-92.422l0.64-0.182C127.316,224.074,128.901,291,128.901,316
				z"/>
		</g>
		<g>
			<path fill="#1D1A63" d="M117.345,316h-0.642c0-25-1.566-89.836-1.583-90.498l0.64-0.184C115.778,225.979,117.345,291,117.345,316
				z"/>
		</g>
		<g>
			<path fill="#1D1A63" d="M105.825,320h-0.643c0-27-1.586-90.908-1.602-91.563l0.641,0.643C104.239,229.73,105.825,293,105.825,320
				z"/>
		</g>
		<g>
			<path fill="#1D1A63" d="M95.569,320h-0.643c0-29-1.584-88.113-1.603-88.734l0.643,0.77C93.981,232.658,95.569,291,95.569,320z"/>
		</g>
		<g>
			
				<rect x="213.928" y="201.456" transform="matrix(0.6468 0.7627 -0.7627 0.6468 247.4053 -83.7233)" fill="#1D1A63" width="0.32" height="47.549"/>
		</g>
		<g>
			
				<rect x="220.849" y="206.447" transform="matrix(0.6438 0.7652 -0.7652 0.6438 247.9689 -90.337)" fill="#1D1A63" width="0.322" height="29.424"/>
		</g>
		<g>
			
				<rect x="215.878" y="202.735" transform="matrix(0.6473 0.7622 -0.7622 0.6473 245.1412 -86.4995)" fill="#1D1A63" width="0.323" height="37.814"/>
		</g>
		<g>
			
				<rect x="250.331" y="278.387" transform="matrix(0.7457 0.6663 -0.6663 0.7457 262.8592 -90.8803)" fill="#1D1A63" width="0.32" height="41.085"/>
		</g>
		<g>
			
				<rect x="244.896" y="290.552" transform="matrix(0.7427 0.6696 -0.6696 0.7427 266.1318 -86.066)" fill="#1D1A63" width="0.321" height="25.421"/>
		</g>
		<g>
			
				<rect x="249.102" y="285.89" transform="matrix(0.7427 0.6696 -0.6696 0.7427 266.5203 -89.1492)" fill="#1D1A63" width="0.321" height="32.673"/>
		</g>
		<g>
			
				<rect x="102.528" y="259.98" transform="matrix(0.6503 0.7597 -0.7597 0.6503 259.5554 24.9402)" fill="#1D1A63" width="0.321" height="68.822"/>
		</g>
		<g>
			
				<rect x="92.481" y="278.97" transform="matrix(0.6473 0.7622 -0.7622 0.6473 261.5459 35.2879)" fill="#1D1A63" width="0.323" height="42.584"/>
		</g>
		<g>
			
				<rect x="99.695" y="272.199" transform="matrix(0.6432 0.7657 -0.7657 0.6432 265.0052 30.4276)" fill="#1D1A63" width="0.319" height="54.728"/>
		</g>
	</g>
	<g>
		<g>
			<g opacity="0.3">
				<polygon fill-rule="evenodd" clip-rule="evenodd" fill="#F5F5F5" points="25.494,86.185 8.101,79.683 8.101,105.386 
					25.494,105.386 				"/>
				<polygon fill-rule="evenodd" clip-rule="evenodd" fill="#F5F5F5" points="58.331,98.455 58.331,105.386 75.725,105.386 
					76.895,105.386 				"/>
				<polygon fill-rule="evenodd" clip-rule="evenodd" fill="#F5F5F5" points="51.375,95.856 30.198,87.943 35.193,105.386 
					48.65,105.386 				"/>
			</g>
			<g>
				
					<rect x="95.731" y="46.642" fill-rule="evenodd" clip-rule="evenodd" fill="#F2F2F2" stroke="#F2F2F2" stroke-width="0.5" stroke-miterlimit="10" width="0.452" height="58.762"/>
				
					<rect x="97.643" y="46.642" fill-rule="evenodd" clip-rule="evenodd" fill="#F2F2F2" stroke="#F2F2F2" stroke-width="0.5" stroke-miterlimit="10" width="0.457" height="58.762"/>
				
					<rect x="99.561" y="46.642" fill-rule="evenodd" clip-rule="evenodd" fill="#F2F2F2" stroke="#F2F2F2" stroke-width="0.5" stroke-miterlimit="10" width="0.453" height="58.762"/>
				
					<rect x="101.476" y="46.642" fill-rule="evenodd" clip-rule="evenodd" fill="#F2F2F2" stroke="#F2F2F2" stroke-width="0.5" stroke-miterlimit="10" width="0.452" height="58.762"/>
				
					<rect x="103.391" y="46.642" fill-rule="evenodd" clip-rule="evenodd" fill="#F2F2F2" stroke="#F2F2F2" stroke-width="0.5" stroke-miterlimit="10" width="0.451" height="58.762"/>
				
					<rect x="105.305" y="46.642" fill-rule="evenodd" clip-rule="evenodd" fill="#F2F2F2" stroke="#F2F2F2" stroke-width="0.5" stroke-miterlimit="10" width="0.455" height="58.762"/>
				
					<rect x="107.223" y="46.642" fill-rule="evenodd" clip-rule="evenodd" fill="#F2F2F2" stroke="#F2F2F2" stroke-width="0.5" stroke-miterlimit="10" width="0.451" height="58.762"/>
				
					<rect x="109.137" y="46.642" fill-rule="evenodd" clip-rule="evenodd" fill="#F2F2F2" stroke="#F2F2F2" stroke-width="0.5" stroke-miterlimit="10" width="0.451" height="58.762"/>
				
					<rect x="111.053" y="46.642" fill-rule="evenodd" clip-rule="evenodd" fill="#F2F2F2" stroke="#F2F2F2" stroke-width="0.5" stroke-miterlimit="10" width="0.45" height="58.762"/>
				
					<rect x="111.053" y="46.642" fill-rule="evenodd" clip-rule="evenodd" fill="#F2F2F2" stroke="#F2F2F2" stroke-width="0.5" stroke-miterlimit="10" width="0.45" height="58.762"/>
				
					<rect x="112.967" y="46.642" fill-rule="evenodd" clip-rule="evenodd" fill="#F2F2F2" stroke="#F2F2F2" stroke-width="0.5" stroke-miterlimit="10" width="0.452" height="58.762"/>
				
					<rect x="114.881" y="71.276" fill-rule="evenodd" clip-rule="evenodd" fill="#F2F2F2" stroke="#F2F2F2" stroke-width="0.5" stroke-miterlimit="10" width="0.452" height="13.601"/>
				
					<rect x="114.881" y="46.642" fill-rule="evenodd" clip-rule="evenodd" fill="#F2F2F2" stroke="#F2F2F2" stroke-width="0.5" stroke-miterlimit="10" width="0.452" height="13.621"/>
				
					<rect x="116.796" y="71.276" fill-rule="evenodd" clip-rule="evenodd" fill="#F2F2F2" stroke="#F2F2F2" stroke-width="0.5" stroke-miterlimit="10" width="0.454" height="13.601"/>
				
					<rect x="116.796" y="46.642" fill-rule="evenodd" clip-rule="evenodd" fill="#F2F2F2" stroke="#F2F2F2" stroke-width="0.5" stroke-miterlimit="10" width="0.454" height="13.621"/>
				
					<rect x="118.713" y="71.276" fill-rule="evenodd" clip-rule="evenodd" fill="#F2F2F2" stroke="#F2F2F2" stroke-width="0.5" stroke-miterlimit="10" width="0.451" height="13.601"/>
				
					<rect x="118.713" y="46.642" fill-rule="evenodd" clip-rule="evenodd" fill="#F2F2F2" stroke="#F2F2F2" stroke-width="0.5" stroke-miterlimit="10" width="0.451" height="13.586"/>
				
					<rect x="120.627" y="71.276" fill-rule="evenodd" clip-rule="evenodd" fill="#F2F2F2" stroke="#F2F2F2" stroke-width="0.5" stroke-miterlimit="10" width="0.451" height="13.601"/>
				
					<rect x="120.627" y="46.642" fill-rule="evenodd" clip-rule="evenodd" fill="#F2F2F2" stroke="#F2F2F2" stroke-width="0.5" stroke-miterlimit="10" width="0.451" height="13.621"/>
				
					<rect x="122.544" y="71.259" fill-rule="evenodd" clip-rule="evenodd" fill="#F2F2F2" stroke="#F2F2F2" stroke-width="0.5" stroke-miterlimit="10" width="0.454" height="13.617"/>
				
					<rect x="122.544" y="46.642" fill-rule="evenodd" clip-rule="evenodd" fill="#F2F2F2" stroke="#F2F2F2" stroke-width="0.5" stroke-miterlimit="10" width="0.454" height="13.569"/>
				
					<rect x="124.458" y="71.259" fill-rule="evenodd" clip-rule="evenodd" fill="#F2F2F2" stroke="#F2F2F2" stroke-width="0.5" stroke-miterlimit="10" width="0.454" height="13.617"/>
				
					<rect x="124.458" y="46.642" fill-rule="evenodd" clip-rule="evenodd" fill="#F2F2F2" stroke="#F2F2F2" stroke-width="0.5" stroke-miterlimit="10" width="0.454" height="13.586"/>
				
					<rect x="126.374" y="71.292" fill-rule="evenodd" clip-rule="evenodd" fill="#F2F2F2" stroke="#F2F2F2" stroke-width="0.5" stroke-miterlimit="10" width="0.452" height="13.584"/>
				
					<rect x="126.374" y="46.642" fill-rule="evenodd" clip-rule="evenodd" fill="#F2F2F2" stroke="#F2F2F2" stroke-width="0.5" stroke-miterlimit="10" width="0.452" height="13.586"/>
				
					<rect x="128.29" y="71.276" fill-rule="evenodd" clip-rule="evenodd" fill="#F2F2F2" stroke="#F2F2F2" stroke-width="0.5" stroke-miterlimit="10" width="0.451" height="13.601"/>
				
					<rect x="128.29" y="46.642" fill-rule="evenodd" clip-rule="evenodd" fill="#F2F2F2" stroke="#F2F2F2" stroke-width="0.5" stroke-miterlimit="10" width="0.451" height="13.621"/>
				
					<rect x="130.204" y="71.259" fill-rule="evenodd" clip-rule="evenodd" fill="#F2F2F2" stroke="#F2F2F2" stroke-width="0.5" stroke-miterlimit="10" width="0.453" height="13.617"/>
				
					<rect x="130.204" y="46.642" fill-rule="evenodd" clip-rule="evenodd" fill="#F2F2F2" stroke="#F2F2F2" stroke-width="0.5" stroke-miterlimit="10" width="0.453" height="13.586"/>
				
					<rect x="132.12" y="71.276" fill-rule="evenodd" clip-rule="evenodd" fill="#F2F2F2" stroke="#F2F2F2" stroke-width="0.5" stroke-miterlimit="10" width="0.453" height="13.601"/>
				
					<rect x="132.12" y="46.642" fill-rule="evenodd" clip-rule="evenodd" fill="#F2F2F2" stroke="#F2F2F2" stroke-width="0.5" stroke-miterlimit="10" width="0.453" height="13.621"/>
				
					<rect x="134.036" y="71.292" fill-rule="evenodd" clip-rule="evenodd" fill="#F2F2F2" stroke="#F2F2F2" stroke-width="0.5" stroke-miterlimit="10" width="0.451" height="13.584"/>
				
					<rect x="134.036" y="46.642" fill-rule="evenodd" clip-rule="evenodd" fill="#F2F2F2" stroke="#F2F2F2" stroke-width="0.5" stroke-miterlimit="10" width="0.451" height="13.621"/>
				
					<rect x="135.965" y="46.642" fill-rule="evenodd" clip-rule="evenodd" fill="#F2F2F2" stroke="#F2F2F2" stroke-width="0.5" stroke-miterlimit="10" width="0.438" height="13.586"/>
				
					<rect x="137.882" y="46.642" fill-rule="evenodd" clip-rule="evenodd" fill="#F2F2F2" stroke="#F2F2F2" stroke-width="0.5" stroke-miterlimit="10" width="0.436" height="13.586"/>
				
					<rect x="139.884" y="46.642" fill-rule="evenodd" clip-rule="evenodd" fill="#F2F2F2" stroke="#F2F2F2" stroke-width="0.5" stroke-miterlimit="10" width="0.451" height="13.569"/>
			</g>
			<path fill-rule="evenodd" clip-rule="evenodd" fill="#F2F2F2" d="M105.76,52.183c-4.162-3.59-10.467-5.369-18.943-5.369H75.725
				H58.331h-5.989L41.913,83.343L31.5,46.814H8.101v28.037l17.202,6.341l-0.209-4.77l-0.818-8.616h0.158l4.183,14.607l24.065,8.869
				l5.649-19.76v15.961v5.883l19.361,7.135V87.175h9.768c4.266,0,7.94-0.483,11.004-1.434c3.064-0.949,5.607-2.313,7.625-4.107
				c2.021-1.796,3.519-3.953,4.476-6.51c0.957-2.554,1.445-5.401,1.445-8.545C112.009,60.557,109.919,55.758,105.76,52.183z
				 M91.362,72.001c-1.447,1-3.326,1.502-5.627,1.502h-8.043V60.486h5.503c1.044,0,2.159,0.071,3.358,0.191
				c1.221,0.139,2.334,0.431,3.38,0.864c1.026,0.432,1.898,1.051,2.575,1.863c0.68,0.812,1.027,1.899,1.027,3.261
				C93.536,69.223,92.805,70.982,91.362,72.001z"/>
			<polygon fill-rule="evenodd" clip-rule="evenodd" fill="#F2F2F2" points="30.198,87.943 51.374,95.856 52.178,93.046 
				29.239,84.589 			"/>
			<polygon fill-rule="evenodd" clip-rule="evenodd" fill="#F2F2F2" points="58.331,95.314 58.331,98.455 76.895,105.386 
				77.692,105.386 77.692,102.451 			"/>
			<polygon fill-rule="evenodd" clip-rule="evenodd" fill="#F2F2F2" points="25.391,83.172 8.101,76.8 8.101,79.683 25.494,86.185 
				25.494,85.535 			"/>
		</g>
	</g>
</g>
</svg>
