<?xml version="1.0" encoding="utf-8"?>
<!-- Generator: Adobe Illustrator 16.0.0, SVG Export Plug-In . SVG Version: 6.00 Build 0)  -->
<!DOCTYPE svg PUBLIC "-//W3C//DTD SVG 1.1//EN" "http://www.w3.org/Graphics/SVG/1.1/DTD/svg11.dtd">
<svg version="1.1" id="Capa_1" xmlns="http://www.w3.org/2000/svg" xmlns:xlink="http://www.w3.org/1999/xlink" x="0px" y="0px"
	 width="260px" height="50px" viewBox="0 0 260 50" enable-background="new 0 0 260 50" xml:space="preserve">
<g>
	<g>
		<polygon fill-rule="evenodd" clip-rule="evenodd" fill="#8FD2E4" points="16.082,33.344 2,28.081 2,48.889 16.082,48.889 		"/>
		<polygon fill-rule="evenodd" clip-rule="evenodd" fill="#8FD2E4" points="42.667,43.277 42.667,48.889 56.75,48.889 
			57.697,48.889 		"/>
		<polygon fill-rule="evenodd" clip-rule="evenodd" fill="#8FD2E4" points="37.036,41.173 19.89,34.767 23.934,48.889 
			34.829,48.889 		"/>
	</g>
	<g>
		
			<rect x="72.946" y="1.329" fill-rule="evenodd" clip-rule="evenodd" fill="#1B1A63" stroke="#1B1A63" stroke-width="0.5" stroke-miterlimit="10" width="0.367" height="47.574"/>
		
			<rect x="74.495" y="1.329" fill-rule="evenodd" clip-rule="evenodd" fill="#1B1A63" stroke="#1B1A63" stroke-width="0.5" stroke-miterlimit="10" width="0.369" height="47.574"/>
		
			<rect x="76.046" y="1.329" fill-rule="evenodd" clip-rule="evenodd" fill="#1B1A63" stroke="#1B1A63" stroke-width="0.5" stroke-miterlimit="10" width="0.368" height="47.574"/>
		
			<rect x="77.598" y="1.329" fill-rule="evenodd" clip-rule="evenodd" fill="#1B1A63" stroke="#1B1A63" stroke-width="0.5" stroke-miterlimit="10" width="0.367" height="47.574"/>
		
			<rect x="79.148" y="1.329" fill-rule="evenodd" clip-rule="evenodd" fill="#1B1A63" stroke="#1B1A63" stroke-width="0.5" stroke-miterlimit="10" width="0.365" height="47.574"/>
		
			<rect x="80.698" y="1.329" fill-rule="evenodd" clip-rule="evenodd" fill="#1B1A63" stroke="#1B1A63" stroke-width="0.5" stroke-miterlimit="10" width="0.367" height="47.574"/>
		
			<rect x="82.25" y="1.329" fill-rule="evenodd" clip-rule="evenodd" fill="#1B1A63" stroke="#1B1A63" stroke-width="0.5" stroke-miterlimit="10" width="0.366" height="47.574"/>
		
			<rect x="83.799" y="1.329" fill-rule="evenodd" clip-rule="evenodd" fill="#1B1A63" stroke="#1B1A63" stroke-width="0.5" stroke-miterlimit="10" width="0.367" height="47.574"/>
		
			<rect x="85.351" y="1.329" fill-rule="evenodd" clip-rule="evenodd" fill="#1B1A63" stroke="#1B1A63" stroke-width="0.5" stroke-miterlimit="10" width="0.365" height="47.574"/>
		
			<rect x="85.351" y="1.329" fill-rule="evenodd" clip-rule="evenodd" fill="#1B1A63" stroke="#1B1A63" stroke-width="0.5" stroke-miterlimit="10" width="0.365" height="47.574"/>
		
			<rect x="86.901" y="1.329" fill-rule="evenodd" clip-rule="evenodd" fill="#1B1A63" stroke="#1B1A63" stroke-width="0.5" stroke-miterlimit="10" width="0.366" height="47.574"/>
		
			<rect x="88.45" y="21.274" fill-rule="evenodd" clip-rule="evenodd" fill="#1B1A63" stroke="#1B1A63" stroke-width="0.5" stroke-miterlimit="10" width="0.367" height="11.011"/>
		
			<rect x="88.45" y="1.329" fill-rule="evenodd" clip-rule="evenodd" fill="#1B1A63" stroke="#1B1A63" stroke-width="0.5" stroke-miterlimit="10" width="0.367" height="11.029"/>
		
			<rect x="90.001" y="21.274" fill-rule="evenodd" clip-rule="evenodd" fill="#1B1A63" stroke="#1B1A63" stroke-width="0.5" stroke-miterlimit="10" width="0.367" height="11.011"/>
		
			<rect x="90.001" y="1.329" fill-rule="evenodd" clip-rule="evenodd" fill="#1B1A63" stroke="#1B1A63" stroke-width="0.5" stroke-miterlimit="10" width="0.367" height="11.029"/>
		
			<rect x="91.553" y="21.274" fill-rule="evenodd" clip-rule="evenodd" fill="#1B1A63" stroke="#1B1A63" stroke-width="0.5" stroke-miterlimit="10" width="0.365" height="11.011"/>
		
			<rect x="91.553" y="1.329" fill-rule="evenodd" clip-rule="evenodd" fill="#1B1A63" stroke="#1B1A63" stroke-width="0.5" stroke-miterlimit="10" width="0.365" height="10.999"/>
		
			<rect x="93.104" y="21.274" fill-rule="evenodd" clip-rule="evenodd" fill="#1B1A63" stroke="#1B1A63" stroke-width="0.5" stroke-miterlimit="10" width="0.365" height="11.011"/>
		
			<rect x="93.104" y="1.329" fill-rule="evenodd" clip-rule="evenodd" fill="#1B1A63" stroke="#1B1A63" stroke-width="0.5" stroke-miterlimit="10" width="0.365" height="11.029"/>
		
			<rect x="94.654" y="21.259" fill-rule="evenodd" clip-rule="evenodd" fill="#1B1A63" stroke="#1B1A63" stroke-width="0.5" stroke-miterlimit="10" width="0.367" height="11.026"/>
		
			<rect x="94.654" y="1.329" fill-rule="evenodd" clip-rule="evenodd" fill="#1B1A63" stroke="#1B1A63" stroke-width="0.5" stroke-miterlimit="10" width="0.367" height="10.987"/>
		
			<rect x="96.204" y="21.259" fill-rule="evenodd" clip-rule="evenodd" fill="#1B1A63" stroke="#1B1A63" stroke-width="0.5" stroke-miterlimit="10" width="0.367" height="11.026"/>
		
			<rect x="96.204" y="1.329" fill-rule="evenodd" clip-rule="evenodd" fill="#1B1A63" stroke="#1B1A63" stroke-width="0.5" stroke-miterlimit="10" width="0.367" height="10.999"/>
		
			<rect x="97.754" y="21.287" fill-rule="evenodd" clip-rule="evenodd" fill="#1B1A63" stroke="#1B1A63" stroke-width="0.5" stroke-miterlimit="10" width="0.367" height="10.998"/>
		
			<rect x="97.754" y="1.329" fill-rule="evenodd" clip-rule="evenodd" fill="#1B1A63" stroke="#1B1A63" stroke-width="0.5" stroke-miterlimit="10" width="0.367" height="10.999"/>
		
			<rect x="99.306" y="21.274" fill-rule="evenodd" clip-rule="evenodd" fill="#1B1A63" stroke="#1B1A63" stroke-width="0.5" stroke-miterlimit="10" width="0.366" height="11.011"/>
		
			<rect x="99.306" y="1.329" fill-rule="evenodd" clip-rule="evenodd" fill="#1B1A63" stroke="#1B1A63" stroke-width="0.5" stroke-miterlimit="10" width="0.366" height="11.029"/>
		
			<rect x="100.855" y="21.259" fill-rule="evenodd" clip-rule="evenodd" fill="#1B1A63" stroke="#1B1A63" stroke-width="0.5" stroke-miterlimit="10" width="0.367" height="11.026"/>
		
			<rect x="100.855" y="1.329" fill-rule="evenodd" clip-rule="evenodd" fill="#1B1A63" stroke="#1B1A63" stroke-width="0.5" stroke-miterlimit="10" width="0.367" height="10.999"/>
		
			<rect x="102.407" y="21.274" fill-rule="evenodd" clip-rule="evenodd" fill="#1B1A63" stroke="#1B1A63" stroke-width="0.5" stroke-miterlimit="10" width="0.366" height="11.011"/>
		
			<rect x="102.407" y="1.329" fill-rule="evenodd" clip-rule="evenodd" fill="#1B1A63" stroke="#1B1A63" stroke-width="0.5" stroke-miterlimit="10" width="0.366" height="11.029"/>
		
			<rect x="103.958" y="21.287" fill-rule="evenodd" clip-rule="evenodd" fill="#1B1A63" stroke="#1B1A63" stroke-width="0.5" stroke-miterlimit="10" width="0.366" height="10.998"/>
		
			<rect x="103.958" y="1.329" fill-rule="evenodd" clip-rule="evenodd" fill="#1B1A63" stroke="#1B1A63" stroke-width="0.5" stroke-miterlimit="10" width="0.366" height="11.029"/>
		
			<rect x="105.521" y="1.329" fill-rule="evenodd" clip-rule="evenodd" fill="#1B1A63" stroke="#1B1A63" stroke-width="0.5" stroke-miterlimit="10" width="0.354" height="10.999"/>
		
			<rect x="107.072" y="1.329" fill-rule="evenodd" clip-rule="evenodd" fill="#1B1A63" stroke="#1B1A63" stroke-width="0.5" stroke-miterlimit="10" width="0.353" height="10.999"/>
		
			<rect x="108.694" y="1.329" fill-rule="evenodd" clip-rule="evenodd" fill="#1B1A63" stroke="#1B1A63" stroke-width="0.5" stroke-miterlimit="10" width="0.365" height="10.987"/>
	</g>
	<path fill-rule="evenodd" clip-rule="evenodd" fill="#1B1A63" d="M81.065,5.816C77.696,2.909,72.593,1.47,65.729,1.47H56.75H42.667
		h-4.848l-8.444,29.573L20.944,1.47H2v22.698l13.928,5.133l-0.17-3.862l-0.663-6.975h0.128l3.386,11.826l19.483,7.182l4.574-15.999
		v12.923v4.762l15.675,5.776V34.146h7.908c3.454,0,6.428-0.392,8.908-1.161c2.481-0.769,4.54-1.873,6.174-3.324
		c1.635-1.455,2.848-3.201,3.623-5.271c0.775-2.068,1.171-4.374,1.171-6.918C86.126,12.595,84.434,8.71,81.065,5.816z
		 M69.408,21.861c-1.17,0.81-2.692,1.215-4.555,1.215h-6.511V12.538h4.455c0.846,0,1.748,0.057,2.72,0.155
		c0.987,0.112,1.889,0.349,2.736,0.699c0.831,0.349,1.536,0.851,2.084,1.509c0.551,0.657,0.833,1.538,0.833,2.641
		C71.169,19.611,70.578,21.036,69.408,21.861z"/>
	<polygon fill-rule="evenodd" clip-rule="evenodd" fill="#1B1A63" points="19.891,34.767 37.035,41.173 37.685,38.899 
		19.114,32.053 	"/>
	<polygon fill-rule="evenodd" clip-rule="evenodd" fill="#1B1A63" points="42.667,40.734 42.667,43.277 57.697,48.889 
		58.342,48.889 58.342,46.513 	"/>
	<polygon fill-rule="evenodd" clip-rule="evenodd" fill="#1B1A63" points="15.998,30.904 2,25.746 2,28.081 16.082,33.344 
		16.082,32.817 	"/>
	<g>
		<g>
			<path d="M127.546,42.271h2.501c1.01,0,1.673,0.592,1.673,1.609s-0.663,1.609-1.673,1.609h-1.964v2.414h-0.537V42.271z
				 M128.083,45.032h1.846c0.742,0,1.254-0.379,1.254-1.152c0-0.772-0.513-1.151-1.254-1.151h-1.846V45.032z"/>
			<path d="M136.063,45.868c0,1.167-0.679,2.153-1.926,2.153c-1.246,0-1.925-0.986-1.925-2.153c0-1.168,0.679-2.153,1.925-2.153
				C135.384,43.715,136.063,44.7,136.063,45.868z M132.709,45.868c0,0.867,0.474,1.735,1.428,1.735c0.955,0,1.429-0.868,1.429-1.735
				c0-0.868-0.474-1.735-1.429-1.735C133.183,44.133,132.709,45,132.709,45.868z"/>
			<path d="M140.382,47.903h-0.458V47.13h-0.016c-0.213,0.529-0.86,0.892-1.451,0.892c-1.239,0-1.831-1.002-1.831-2.153
				c0-1.152,0.592-2.153,1.831-2.153c0.607,0,1.198,0.308,1.412,0.891h0.016v-2.335h0.497V47.903z M138.457,47.604
				c1.057,0,1.428-0.892,1.428-1.735c0-0.845-0.371-1.735-1.428-1.735c-0.947,0-1.334,0.891-1.334,1.735
				C137.123,46.712,137.51,47.604,138.457,47.604z"/>
			<path d="M141.616,46.002c0.008,0.726,0.386,1.602,1.341,1.602c0.726,0,1.12-0.426,1.278-1.041h0.496
				c-0.213,0.923-0.749,1.459-1.774,1.459c-1.294,0-1.838-0.994-1.838-2.153c0-1.073,0.544-2.153,1.838-2.153
				c1.31,0,1.83,1.144,1.791,2.287H141.616z M144.251,45.584c-0.024-0.749-0.489-1.451-1.294-1.451c-0.813,0-1.263,0.71-1.341,1.451
				H144.251z"/>
			<path d="M145.415,43.833h0.457v0.954h0.016c0.253-0.654,0.805-1.041,1.539-1.01v0.497c-0.899-0.047-1.515,0.615-1.515,1.46v2.169
				h-0.497V43.833z"/>
			<path d="M152.455,42.271h0.536v4.063c0,1.145-0.426,1.688-1.641,1.688c-1.294,0-1.577-0.946-1.569-1.925h0.536
				c0.016,0.481-0.031,1.468,1.081,1.468c0.836,0,1.057-0.427,1.057-1.46V42.271z"/>
			<path d="M157.327,47.903h-0.457V47.17h-0.016c-0.261,0.544-0.797,0.852-1.404,0.852c-1.025,0-1.428-0.6-1.428-1.546v-2.643h0.497
				v2.65c0.023,0.733,0.3,1.12,1.088,1.12c0.853,0,1.223-0.805,1.223-1.633v-2.138h0.497V47.903z"/>
			<path d="M161.844,47.903h-0.457V47.13h-0.017c-0.213,0.529-0.859,0.892-1.451,0.892c-1.238,0-1.83-1.002-1.83-2.153
				c0-1.152,0.592-2.153,1.83-2.153c0.607,0,1.199,0.308,1.412,0.891h0.016v-2.335h0.497V47.903z M159.919,47.604
				c1.058,0,1.428-0.892,1.428-1.735c0-0.845-0.37-1.735-1.428-1.735c-0.946,0-1.333,0.891-1.333,1.735
				C158.586,46.712,158.973,47.604,159.919,47.604z"/>
			<path d="M162.795,42.271h0.497v0.797h-0.497V42.271z M162.795,43.833h0.497v4.07h-0.497V43.833z"/>
			<path d="M167.116,45.11c-0.134-0.607-0.505-0.978-1.151-0.978c-0.955,0-1.428,0.867-1.428,1.735c0,0.867,0.473,1.735,1.428,1.735
				c0.615,0,1.12-0.481,1.183-1.159h0.497c-0.134,0.978-0.772,1.577-1.68,1.577c-1.247,0-1.925-0.986-1.925-2.153
				c0-1.168,0.678-2.153,1.925-2.153c0.867,0,1.538,0.465,1.648,1.396H167.116z"/>
			<path d="M168.344,42.271h0.497v0.797h-0.497V42.271z M168.344,43.833h0.497v4.07h-0.497V43.833z"/>
			<path d="M169.746,45.079c0.048-0.954,0.718-1.364,1.649-1.364c0.718,0,1.498,0.221,1.498,1.309v2.162
				c0,0.189,0.095,0.3,0.292,0.3c0.056,0,0.118-0.016,0.158-0.031v0.418c-0.11,0.023-0.189,0.031-0.323,0.031
				c-0.505,0-0.584-0.284-0.584-0.71h-0.016c-0.348,0.528-0.702,0.828-1.483,0.828c-0.749,0-1.364-0.371-1.364-1.191
				c0-1.144,1.112-1.183,2.185-1.31c0.41-0.047,0.639-0.103,0.639-0.552c0-0.671-0.48-0.836-1.064-0.836
				c-0.615,0-1.073,0.283-1.089,0.946H169.746z M172.396,45.679h-0.016c-0.063,0.118-0.284,0.158-0.418,0.182
				c-0.844,0.149-1.894,0.142-1.894,0.938c0,0.497,0.442,0.805,0.907,0.805c0.758,0,1.429-0.481,1.42-1.278V45.679z"/>
			<path d="M173.893,42.271h0.497v5.633h-0.497V42.271z"/>
			<path d="M177.534,45.963v-0.458h1.972v0.458H177.534z"/>
			<path d="M182.988,46.05c-0.023,1.159,0.813,1.515,1.838,1.515c0.592,0,1.491-0.324,1.491-1.145c0-0.639-0.639-0.892-1.159-1.018
				l-1.255-0.308c-0.662-0.165-1.27-0.481-1.27-1.356c0-0.553,0.354-1.586,1.94-1.586c1.112,0,2.091,0.6,2.082,1.751h-0.536
				c-0.031-0.859-0.741-1.293-1.538-1.293c-0.733,0-1.412,0.283-1.412,1.12c0,0.528,0.395,0.749,0.852,0.859l1.373,0.34
				c0.797,0.213,1.459,0.56,1.459,1.482c0,0.387-0.157,1.609-2.153,1.609c-1.333,0-2.312-0.6-2.248-1.972H182.988z"/>
			<path d="M187.56,45.079c0.048-0.954,0.718-1.364,1.649-1.364c0.718,0,1.498,0.221,1.498,1.309v2.162c0,0.189,0.095,0.3,0.292,0.3
				c0.056,0,0.118-0.016,0.158-0.031v0.418c-0.11,0.023-0.189,0.031-0.323,0.031c-0.505,0-0.584-0.284-0.584-0.71h-0.016
				c-0.348,0.528-0.702,0.828-1.483,0.828c-0.749,0-1.365-0.371-1.365-1.191c0-1.144,1.113-1.183,2.186-1.31
				c0.41-0.047,0.639-0.103,0.639-0.552c0-0.671-0.48-0.836-1.064-0.836c-0.615,0-1.073,0.283-1.089,0.946H187.56z M190.21,45.679
				h-0.016c-0.063,0.118-0.283,0.158-0.418,0.182c-0.844,0.149-1.894,0.142-1.894,0.938c0,0.497,0.442,0.805,0.907,0.805
				c0.758,0,1.429-0.481,1.42-1.278V45.679z"/>
			<path d="M191.69,43.833h0.497v0.702h0.016c0.181-0.489,0.726-0.82,1.302-0.82c1.144,0,1.49,0.599,1.49,1.569v2.619h-0.497v-2.54
				c0-0.702-0.229-1.23-1.033-1.23c-0.789,0-1.262,0.6-1.277,1.396v2.375h-0.497V43.833z"/>
			<path d="M196.72,43.833h0.828v0.418h-0.828v2.745c0,0.323,0.047,0.513,0.401,0.536c0.143,0,0.284-0.008,0.427-0.023v0.426
				c-0.15,0-0.292,0.016-0.442,0.016c-0.662,0-0.892-0.221-0.883-0.915v-2.784h-0.71v-0.418h0.71V42.61h0.497V43.833z"/>
			<path d="M198.271,42.271h0.497v0.797h-0.497V42.271z M198.271,43.833h0.497v4.07h-0.497V43.833z"/>
			<path d="M199.674,45.079c0.048-0.954,0.718-1.364,1.649-1.364c0.718,0,1.498,0.221,1.498,1.309v2.162
				c0,0.189,0.095,0.3,0.292,0.3c0.056,0,0.118-0.016,0.158-0.031v0.418c-0.11,0.023-0.189,0.031-0.323,0.031
				c-0.505,0-0.584-0.284-0.584-0.71h-0.016c-0.348,0.528-0.702,0.828-1.483,0.828c-0.749,0-1.364-0.371-1.364-1.191
				c0-1.144,1.112-1.183,2.185-1.31c0.41-0.047,0.639-0.103,0.639-0.552c0-0.671-0.48-0.836-1.064-0.836
				c-0.615,0-1.073,0.283-1.089,0.946H199.674z M202.324,45.679h-0.016c-0.063,0.118-0.284,0.158-0.418,0.182
				c-0.844,0.149-1.894,0.142-1.894,0.938c0,0.497,0.442,0.805,0.907,0.805c0.758,0,1.429-0.481,1.42-1.278V45.679z"/>
			<path d="M207.252,47.572c-0.008,1.215-0.474,1.956-1.807,1.956c-0.813,0-1.617-0.362-1.688-1.23h0.497
				c0.11,0.6,0.639,0.813,1.191,0.813c0.915,0,1.31-0.544,1.31-1.538V47.02h-0.016c-0.229,0.497-0.71,0.837-1.294,0.837
				c-1.302,0-1.838-0.932-1.838-2.091c0-1.12,0.662-2.051,1.838-2.051c0.592,0,1.097,0.37,1.294,0.82h0.016v-0.702h0.497V47.572z
				 M206.755,45.82c0-0.797-0.371-1.688-1.31-1.688c-0.947,0-1.341,0.844-1.341,1.688c0,0.82,0.426,1.617,1.341,1.617
				C206.305,47.438,206.755,46.649,206.755,45.82z"/>
			<path d="M211.84,45.868c0,1.167-0.679,2.153-1.925,2.153c-1.247,0-1.925-0.986-1.925-2.153c0-1.168,0.678-2.153,1.925-2.153
				C211.161,43.715,211.84,44.7,211.84,45.868z M208.487,45.868c0,0.867,0.473,1.735,1.428,1.735c0.954,0,1.428-0.868,1.428-1.735
				c0-0.868-0.474-1.735-1.428-1.735C208.96,44.133,208.487,45,208.487,45.868z"/>
			<path d="M218.35,47.903h-0.457V47.13h-0.017c-0.213,0.529-0.859,0.892-1.451,0.892c-1.238,0-1.83-1.002-1.83-2.153
				c0-1.152,0.592-2.153,1.83-2.153c0.607,0,1.199,0.308,1.412,0.891h0.016v-2.335h0.497V47.903z M216.425,47.604
				c1.058,0,1.428-0.892,1.428-1.735c0-0.845-0.37-1.735-1.428-1.735c-0.946,0-1.333,0.891-1.333,1.735
				C215.092,46.712,215.479,47.604,216.425,47.604z"/>
			<path d="M219.585,46.002c0.008,0.726,0.386,1.602,1.341,1.602c0.726,0,1.12-0.426,1.278-1.041h0.496
				c-0.213,0.923-0.749,1.459-1.774,1.459c-1.294,0-1.838-0.994-1.838-2.153c0-1.073,0.544-2.153,1.838-2.153
				c1.31,0,1.83,1.144,1.791,2.287H219.585z M222.22,45.584c-0.024-0.749-0.489-1.451-1.294-1.451c-0.813,0-1.263,0.71-1.341,1.451
				H222.22z"/>
			<path d="M223.392,42.271h0.497v5.633h-0.497V42.271z"/>
			<path d="M227.128,42.271h3.889v0.458h-3.353v2.035h3.14v0.457h-3.14v2.225h3.393v0.458h-3.929V42.271z"/>
			<path d="M234.145,45.023c-0.023-0.615-0.497-0.891-1.065-0.891c-0.441,0-0.962,0.173-0.962,0.702c0,0.441,0.505,0.6,0.844,0.686
				l0.663,0.15c0.567,0.087,1.159,0.418,1.159,1.128c0,0.884-0.876,1.223-1.633,1.223c-0.946,0-1.594-0.441-1.673-1.436h0.497
				c0.04,0.671,0.537,1.018,1.199,1.018c0.466,0,1.112-0.205,1.112-0.773c0-0.473-0.441-0.631-0.892-0.741l-0.639-0.142
				c-0.646-0.174-1.136-0.395-1.136-1.089c0-0.828,0.813-1.144,1.53-1.144c0.813,0,1.459,0.426,1.491,1.309H234.145z"/>
			<path d="M236.286,43.833h0.829v0.418h-0.829v2.745c0,0.323,0.048,0.513,0.402,0.536c0.143,0,0.284-0.008,0.427-0.023v0.426
				c-0.15,0-0.292,0.016-0.442,0.016c-0.662,0-0.891-0.221-0.883-0.915v-2.784h-0.71v-0.418h0.71V42.61h0.496V43.833z"/>
			<path d="M238.123,46.002c0.008,0.726,0.386,1.602,1.341,1.602c0.726,0,1.12-0.426,1.278-1.041h0.496
				c-0.213,0.923-0.749,1.459-1.774,1.459c-1.294,0-1.838-0.994-1.838-2.153c0-1.073,0.544-2.153,1.838-2.153
				c1.31,0,1.83,1.144,1.791,2.287H238.123z M240.758,45.584c-0.024-0.749-0.489-1.451-1.294-1.451c-0.813,0-1.263,0.71-1.341,1.451
				H240.758z"/>
			<path d="M241.922,43.833h0.457v0.954h0.016c0.253-0.654,0.805-1.041,1.539-1.01v0.497c-0.899-0.047-1.515,0.615-1.515,1.46v2.169
				h-0.497V43.833z"/>
			<path d="M247.907,45.868c0,1.167-0.679,2.153-1.925,2.153c-1.247,0-1.925-0.986-1.925-2.153c0-1.168,0.678-2.153,1.925-2.153
				C247.229,43.715,247.907,44.7,247.907,45.868z M244.555,45.868c0,0.867,0.473,1.735,1.428,1.735c0.954,0,1.428-0.868,1.428-1.735
				c0-0.868-0.474-1.735-1.428-1.735C245.027,44.133,244.555,45,244.555,45.868z"/>
		</g>
	</g>
	<g>
		<g>
			<path fill="#1B1A63" d="M127.934,3.576h5.344l1.742,7.171h0.034l1.742-7.171h5.344v12.191h-3.552v-7.82h-0.034l-2.117,7.82h-2.8
				l-2.117-7.82h-0.034v7.82h-3.552V3.576z"/>
			<path fill="#1B1A63" d="M147.462,5.95h-3.381V3.576h3.381V5.95z M144.081,6.906h3.381v8.862h-3.381V6.906z"/>
			<path fill="#1B1A63" d="M149.389,6.906h3.262v1.127h0.034c0.632-0.888,1.536-1.349,2.885-1.349c1.589,0,3.04,0.973,3.04,3.005
				v6.079h-3.381v-4.645c0-1.024-0.12-1.741-1.11-1.741c-0.58,0-1.349,0.29-1.349,1.708v4.678h-3.381V6.906z"/>
			<path fill="#1B1A63" d="M163.898,5.95h-3.381V3.576h3.381V5.95z M160.518,6.906h3.381v8.862h-3.381V6.906z"/>
			<path fill="#1B1A63" d="M170.947,9.484c-0.017-0.291-0.17-0.513-0.393-0.666c-0.204-0.171-0.478-0.256-0.751-0.256
				c-0.479,0-1.024,0.103-1.024,0.683c0,0.256,0.205,0.375,0.393,0.461c0.563,0.239,1.844,0.308,2.971,0.683
				c1.127,0.358,2.117,1.024,2.117,2.476c0,2.459-2.355,3.125-4.507,3.125c-2.084,0-4.371-0.837-4.423-3.125h3.228
				c0.017,0.308,0.153,0.563,0.409,0.786c0.171,0.154,0.495,0.256,0.905,0.256c0.444,0,1.144-0.17,1.144-0.683
				s-0.29-0.666-1.86-0.939c-2.579-0.444-3.62-1.263-3.62-2.783c0-2.236,2.407-2.817,4.184-2.817c1.912,0,4.217,0.529,4.303,2.8
				H170.947z"/>
			<path fill="#1B1A63" d="M179.686,6.906h1.811v2.083h-1.811v3.091c0,0.819,0.188,1.178,1.042,1.178
				c0.256,0,0.513-0.017,0.769-0.051v2.561c-0.684,0-1.451,0.103-2.169,0.103c-1.434,0-3.021-0.222-3.021-2.646V8.989h-1.503V6.906
				h1.503V4.208h3.38V6.906z"/>
			<path fill="#1B1A63" d="M185.42,12.097c0.085,1.007,0.666,1.725,1.725,1.725c0.546,0,1.144-0.205,1.417-0.632h3.159
				c-0.684,1.912-2.544,2.8-4.56,2.8c-2.834,0-4.969-1.673-4.969-4.627c0-2.578,1.879-4.678,4.679-4.678
				c3.518,0,5.037,1.963,5.037,5.413H185.42z M188.664,10.338c0-0.82-0.614-1.485-1.485-1.485c-1.008,0-1.588,0.529-1.741,1.485
				H188.664z"/>
			<path fill="#1B1A63" d="M193.321,6.906h3.244v1.417h0.034c0.547-1.059,1.264-1.639,2.493-1.639c0.342,0,0.666,0.051,0.99,0.136
				v2.988c-0.342-0.12-0.648-0.222-1.332-0.222c-1.332,0-2.049,0.786-2.049,2.681v3.5h-3.381V6.906z"/>
			<path fill="#1B1A63" d="M204.349,5.95h-3.381V3.576h3.381V5.95z M200.968,6.906h3.381v8.862h-3.381V6.906z"/>
			<path fill="#1B1A63" d="M210.732,15.99c-3.33,0-4.833-2.203-4.833-4.662c0-2.458,1.503-4.644,4.833-4.644
				c3.329,0,4.832,2.186,4.832,4.644C215.564,13.787,214.062,15.99,210.732,15.99z M210.732,9.143c-1.281,0-1.452,1.247-1.452,2.186
				s0.171,2.203,1.452,2.203c1.28,0,1.451-1.264,1.451-2.203S212.013,9.143,210.732,9.143z"/>
			<path fill="#1B1A63" d="M127.951,24.058h6.284c3.313,0,4.474,2.425,4.474,4.166c0,2.954-1.98,4.337-4.781,4.337h-2.22v3.688
				h-3.757V24.058z M131.708,29.658h1.451c0.974,0,1.998-0.068,1.998-1.298c0-1.11-0.854-1.178-1.776-1.178h-1.673V29.658z"/>
			<path fill="#1B1A63" d="M149.137,36.249h-3.262v-1.127h-0.034c-0.632,0.888-1.536,1.349-2.886,1.349
				c-1.588,0-3.039-0.973-3.039-3.005v-6.079h3.381v4.645c0,1.024,0.119,1.742,1.11,1.742c0.58,0,1.349-0.29,1.349-1.708v-4.679
				h3.381V36.249z M145.09,26.533h-2.322l1.69-2.544h3.568L145.09,26.533z"/>
			<path fill="#1B1A63" d="M150.977,24.058h3.381v4.303h0.034c0.513-0.751,1.417-1.194,2.425-1.194c2.971,0,3.773,2.526,3.773,4.609
				c0,2.22-1.213,4.695-3.723,4.695c-1.656,0-2.168-0.632-2.595-1.195h-0.034v0.974h-3.262V24.058z M155.724,29.624
				c-1.213,0-1.485,1.145-1.485,2.186c0,1.059,0.272,2.203,1.485,2.203c1.212,0,1.485-1.145,1.485-2.203
				C157.209,30.769,156.936,29.624,155.724,29.624z"/>
			<path fill="#1B1A63" d="M162.104,24.058h3.381v12.191h-3.381V24.058z"/>
			<path fill="#1B1A63" d="M170.862,26.432h-3.381v-2.374h3.381V26.432z M167.481,27.387h3.381v8.862h-3.381V27.387z"/>
			<path fill="#1B1A63" d="M178.509,30.751c-0.034-0.358-0.153-0.648-0.375-0.837c-0.205-0.188-0.495-0.29-0.854-0.29
				c-1.298,0-1.486,1.127-1.486,2.203c0,1.075,0.188,2.186,1.486,2.186c0.733,0,1.246-0.598,1.314-1.298h3.227
				c-0.324,2.407-2.22,3.756-4.609,3.756c-2.664,0-4.799-1.844-4.799-4.644c0-2.801,2.135-4.661,4.799-4.661
				c2.321,0,4.303,1.144,4.507,3.585H178.509z"/>
			<path fill="#1B1A63" d="M187.675,36.471c-3.33,0-4.832-2.202-4.832-4.661s1.502-4.644,4.832-4.644
				c3.329,0,4.832,2.185,4.832,4.644S191.004,36.471,187.675,36.471z M187.675,29.624c-1.281,0-1.452,1.246-1.452,2.186
				s0.171,2.203,1.452,2.203c1.28,0,1.451-1.264,1.451-2.203S188.955,29.624,187.675,29.624z"/>
			<path fill="#1B1A63" d="M199.723,24.058h9.425v3.125h-5.669v1.52h4.866v2.902h-4.866v4.645h-3.756V24.058z"/>
			<path fill="#1B1A63" d="M213.873,26.432h-3.381v-2.374h3.381V26.432z M210.492,27.387h3.381v8.862h-3.381V27.387z"/>
			<path fill="#1B1A63" d="M220.922,29.966c-0.017-0.29-0.17-0.513-0.393-0.666c-0.204-0.171-0.478-0.256-0.751-0.256
				c-0.479,0-1.024,0.103-1.024,0.683c0,0.256,0.205,0.376,0.393,0.461c0.563,0.239,1.844,0.308,2.971,0.683
				c1.127,0.359,2.117,1.024,2.117,2.477c0,2.458-2.355,3.124-4.507,3.124c-2.084,0-4.371-0.836-4.423-3.124h3.228
				c0.017,0.307,0.153,0.563,0.409,0.785c0.171,0.153,0.495,0.256,0.905,0.256c0.444,0,1.144-0.171,1.144-0.683
				c0-0.513-0.29-0.666-1.86-0.939c-2.579-0.443-3.62-1.264-3.62-2.783c0-2.236,2.407-2.816,4.184-2.816
				c1.912,0,4.217,0.528,4.303,2.8H220.922z"/>
			<path fill="#1B1A63" d="M231.316,30.751c-0.034-0.358-0.153-0.648-0.375-0.837c-0.205-0.188-0.495-0.29-0.854-0.29
				c-1.298,0-1.486,1.127-1.486,2.203c0,1.075,0.188,2.186,1.486,2.186c0.733,0,1.246-0.598,1.314-1.298h3.227
				c-0.324,2.407-2.22,3.756-4.609,3.756c-2.664,0-4.798-1.844-4.798-4.644c0-2.801,2.134-4.661,4.798-4.661
				c2.321,0,4.303,1.144,4.507,3.585H231.316z"/>
			<path fill="#1B1A63" d="M244.665,34.269c0,0.666,0.034,1.417,0.41,1.98h-3.449c-0.085-0.239-0.137-0.598-0.119-0.837h-0.034
				c-0.718,0.82-1.759,1.059-2.852,1.059c-1.708,0-3.125-0.819-3.125-2.681c0-2.8,3.278-2.697,5.003-3.021
				c0.461-0.086,0.922-0.223,0.922-0.786c0-0.598-0.563-0.819-1.109-0.819c-1.042,0-1.247,0.529-1.264,0.905h-3.142
				c0.103-2.493,2.459-2.902,4.559-2.902c4.234,0,4.2,1.758,4.2,3.466V34.269z M241.421,32.271c-0.409,0.205-0.87,0.324-1.332,0.427
				c-0.751,0.171-1.144,0.358-1.144,0.956c0,0.41,0.444,0.82,1.059,0.82c0.769,0,1.366-0.461,1.417-1.384V32.271z"/>
			<path fill="#1B1A63" d="M246.522,24.058h3.381v12.191h-3.381V24.058z"/>
		</g>
	</g>
</g>
</svg>
