<?xml version="1.0" encoding="utf-8"?>
<!-- Generator: Adobe Illustrator 16.0.0, SVG Export Plug-In . SVG Version: 6.00 Build 0)  -->
<!DOCTYPE svg PUBLIC "-//W3C//DTD SVG 1.1//EN" "http://www.w3.org/Graphics/SVG/1.1/DTD/svg11.dtd">
<svg version="1.1" id="Capa_1" xmlns="http://www.w3.org/2000/svg" xmlns:xlink="http://www.w3.org/1999/xlink" x="0px" y="0px"
	 width="164px" height="262.667px" viewBox="113 -1050.167 164 262.667" enable-background="new 113 -1050.167 164 262.667"
	 xml:space="preserve">
<g>
	<polygon fill="none" stroke="#498C9B" stroke-width="0.5" points="245.084,-834.458 262.772,-834.578 256.622,-793.048 
		254.887,-800.382 239.419,-800.507 237.957,-803.428 237.531,-804.402 237.223,-805.313 236.984,-807.659 237.285,-809.154 
		238.015,-810.279 238.719,-811.19 238.873,-811.709 238.292,-812.204 238.111,-812.748 237.957,-813.872 237.073,-814.663 
		235.186,-814.755 234.486,-815.244 233.694,-815.701 233.148,-815.574 232.507,-815.639 232.69,-817.89 244.84,-818.076 	"/>
	<polygon fill="none" stroke="#498C9B" stroke-width="0.5" points="175.11,-1036.546 175.262,-1035.39 178.031,-1029.641 
		177.697,-1028.332 179.586,-1025.588 181.598,-1023.67 182.813,-1023.942 183.456,-1023 184.152,-1020.72 184.215,-1016.787 
		182.994,-1015.878 182.569,-1013.808 181.383,-1011.035 181.442,-1009.816 181.746,-1008.568 182.416,-1007.375 274.77,-1007.016 
		274.225,-1037.738 198.615,-1038.287 196.757,-1035.36 191.035,-1035.36 185.369,-1036.673 	"/>
	<polygon fill="none" stroke="#498C9B" stroke-width="0.5" points="172.217,-969.502 172.307,-973.063 176.845,-972.883 
		176.936,-971.476 179.615,-971.542 180.197,-972.453 185.801,-972.393 185.463,-976.293 186.254,-977.206 186.346,-980.008 
		185.705,-980.703 186.223,-981.373 185.977,-982.929 185.248,-984.295 185.404,-988.774 186.346,-990.176 187.625,-989.99 
		188.293,-990.997 188.753,-993.221 182.664,-993.28 181.442,-990.143 180.926,-986.706 180.896,-983.932 178.822,-983.901 
		177.485,-981.373 177.512,-978.604 173.707,-978.637 173.738,-980.338 169.508,-980.524 166.369,-981.585 165.244,-980.643 
		165.062,-980.036 162.684,-980.703 162.808,-983.262 161.681,-983.72 160.949,-984.694 159.674,-984.271 157.417,-987.434 
		157.877,-990.084 149.35,-990.025 149.896,-987.104 149.35,-984.968 145.666,-986.036 144.356,-979.702 142.619,-979.887 
		142.346,-978.418 140.763,-979.062 140.214,-978.06 140.579,-976.442 139.576,-975.379 139.363,-968.193 138.051,-963.802 
		138.051,-960.914 139.697,-959.421 139.877,-957.654 142.497,-957.624 143.928,-955.742 145.053,-954.609 148.191,-955.249 
		148.377,-952.568 150.047,-952.603 150.295,-951.412 151.695,-951.504 151.54,-953.301 152.18,-953.756 152.123,-955.341 
		153.03,-955.675 153.214,-956.315 152.428,-957.534 152.573,-959.604 153.644,-960.392 154.924,-960.458 156.107,-959.421 
		163.082,-959.454 162.928,-966.363 170.357,-966.271 170.42,-964.174 171.608,-964.26 171.727,-962.923 174.653,-962.956 
		174.592,-969.53 	"/>
	<polygon fill="none" stroke="#498C9B" stroke-width="0.5" points="211.041,-901.81 212.045,-903.092 212.625,-905.371 
		212.745,-906.686 212.562,-907.808 210.979,-910.091 209.06,-911.95 207.049,-913.195 206.229,-912.375 205.041,-911.95 
		203.307,-912.072 202.729,-912.773 202.85,-915.815 199.741,-918.437 199.438,-919.384 200.381,-920.694 200.263,-922.946 
		198.8,-925.379 197.795,-927.938 193.99,-926.2 192.892,-925.408 190,-927.664 188.508,-927.083 188.357,-924.403 
		187.591,-921.114 185.586,-917.739 196.787,-907.997 202.179,-901.875 	"/>
	<polygon fill="none" stroke="#498C9B" stroke-width="0.5" points="211.041,-901.81 212.074,-899.895 213.232,-898.214 
		214.725,-896.487 215.699,-896.088 218.104,-896.694 220.024,-896.422 220.57,-895.817 222.732,-894.442 224.072,-892.829 
		223.98,-889.94 224.378,-889.115 225.503,-889.084 225.354,-887.987 227.393,-885.247 229.186,-885.247 231.319,-880.222 
		232.357,-880.039 232.205,-879.003 231.228,-877.696 232.205,-876.871 232.289,-874.862 234.606,-874.225 234.606,-873.611 
		268.376,-872.949 272.455,-901.17 	"/>
	<polygon fill="none" stroke="#498C9B" stroke-width="0.5" points="234.575,-873.557 268.405,-872.973 264.693,-847.943 
		261.768,-849.436 259.822,-851.386 257.019,-852.115 256.195,-852.028 256.594,-850.381 255.131,-849.136 253.212,-849.136 
		250.473,-850.261 249.773,-851.025 249.285,-852.208 248.34,-853.301 246.298,-854.855 246.182,-856.472 241.548,-859.396 
		240.271,-859.396 239.723,-860.066 239.419,-861.462 239.146,-862.168 237.99,-862.898 236.74,-862.104 232.143,-864.509 
		231.898,-865.334 232.231,-867.311 231.196,-868.287 231.076,-870.206 232.326,-871.273 234.24,-870.631 234.762,-871.577 	"/>
	<polygon fill="none" stroke="#498C9B" stroke-width="0.5" points="232.627,-817.982 244.84,-818.076 245.112,-837.017 
		237.898,-837.227 238.015,-848.647 236.129,-848.89 236.129,-851.232 234.853,-851.692 234.67,-852.544 229.766,-852.604 
		229.766,-857.392 206.686,-857.324 208.087,-854.401 209,-853.301 209.607,-854.035 212.045,-852.088 212.625,-851.05 
		212.776,-850.079 213.778,-848.309 213.445,-846.971 215.453,-844.476 216.795,-843.346 217.466,-841.616 218.166,-842.071 
		219.262,-839.389 220.116,-839.481 220.664,-839.33 220.725,-838.564 221.301,-837.837 222.819,-837.924 223.248,-836.923 
		222.606,-836.071 223.523,-834.824 223.495,-832.781 223.857,-831.382 224.591,-830.56 225.81,-829.435 227.82,-826.358 
		228.061,-824.744 227.393,-823.16 227.849,-822.493 227.697,-820.847 228.67,-820.174 229.799,-820.174 230.344,-820.847 
		232.415,-818.654 	"/>
	<polygon fill="none" stroke="#498C9B" stroke-width="0.5" points="194.172,-890.395 195.604,-890.697 196.362,-891.669 
		196.422,-892.124 197.642,-892.888 200.658,-890.086 200.658,-889.386 199.896,-889.053 199.953,-888.318 202.056,-888.386 
		202.208,-886.646 210.826,-886.524 211.133,-880.039 214.818,-879.826 214.818,-877.271 217.799,-877.271 217.741,-872.548 
		223.1,-872.272 224.224,-873.708 234.641,-873.643 234.606,-874.164 232.289,-874.926 232.205,-876.846 231.257,-877.696 
		232.205,-878.972 232.326,-880.102 231.319,-880.257 229.186,-885.217 227.393,-885.247 225.383,-887.955 225.503,-889.084 
		224.345,-889.084 223.98,-889.999 224.072,-892.829 222.764,-894.409 220.57,-895.779 220.024,-896.452 218.104,-896.756 
		215.76,-896.088 214.725,-896.513 213.203,-898.281 212.074,-899.895 211.041,-901.81 202.147,-901.901 196.818,-907.961 
		196.665,-904.398 195.816,-904.059 195.023,-904.946 193.863,-905.801 193.47,-905.801 192.953,-905.252 192.983,-902.967 
		192.22,-902.512 191.095,-901.75 190.336,-900.562 189.115,-897.883 188.691,-897.606 187.625,-898.552 186.375,-898.948 
		185.098,-898.797 182.752,-897.09 182.873,-896.088 183.209,-895.817 184.003,-895.659 184.607,-895.48 184.428,-894.688 
		184.672,-893.958 185.492,-893.619 185.705,-891.064 187.564,-889.297 192.163,-887.716 193.04,-887.53 193.287,-889.542 	"/>
	<polygon fill="#8FD0DF" stroke="#498C9B" stroke-width="0.5" points="164.026,-928.36 168.593,-932.233 169.72,-931.136 
		172.644,-931.683 175.172,-931.499 176.449,-934.39 177.087,-935.001 179.98,-935.518 180.836,-934.875 180.804,-931.895 
		185.189,-931.803 185.646,-931.228 188.387,-931.136 188.475,-927.083 188.357,-924.375 187.591,-921.114 185.586,-917.739 
		176.57,-920.081 176.148,-918.072 173.281,-918.225 170.026,-920.232 168.135,-919.809 167.711,-919.96 167.951,-923.064 
		166.705,-924.156 165.731,-926.601 	"/>
	<polygon fill="none" stroke="#498C9B" stroke-width="0.5" points="150.445,-841.218 150.781,-867.922 150.903,-874.558 
		153.912,-874.619 154.34,-879.797 150.295,-879.859 150.08,-883.267 146.364,-883.358 146.241,-888.351 147.949,-888.318 
		149.441,-894.534 147.826,-894.959 149.229,-898.797 150.109,-898.857 151.175,-897.944 151.938,-897.765 153.156,-897.574 
		153.248,-898.797 152.697,-900.015 152.64,-900.896 148.285,-900.962 148.348,-903.092 150.781,-903.179 151.39,-908.57 
		140.063,-911.52 138.813,-909.82 136.01,-910.516 134.369,-906.958 131.628,-907.019 130.625,-905.068 122.706,-904.854 
		123.223,-895.137 121.395,-888.351 120.119,-888.598 119.479,-884.544 121.152,-884.181 121.275,-881.411 129.253,-879.215 
		129.953,-877.722 131.203,-876.263 133.455,-875.378 134.34,-874.011 134.033,-871.088 134.153,-869.294 135.13,-867.129 
		136.652,-862.898 137.018,-856.291 138.11,-854.097 139.514,-853.822 140.093,-853.215 140.122,-852.362 138.662,-852.327 
		137.564,-851.263 137.535,-849.681 138.57,-848.282 138.662,-847.396 140.004,-846.606 140.429,-845.358 139.729,-843.773 
		138.632,-842.496 138.847,-838.446 	"/>
	<g>
		<polygon fill="none" stroke="#498C9B" stroke-width="0.5" points="184.883,-870.662 185.463,-870.662 185.888,-871.115 
			186.498,-870.784 187.168,-871.723 188.053,-872.338 188.626,-871.881 189.236,-871.846 189.602,-872.457 189.939,-872.489 
			190.271,-871.909 190.578,-871.94 191.035,-872.244 191.493,-872.215 192.163,-871.636 192.738,-872.152 193.592,-871.636 
			193.377,-870.353 194.385,-869.716 194.477,-869.016 195.63,-867.766 196.73,-868.221 197.063,-867.83 196.545,-867.19 
			196.879,-866.577 199.104,-866.577 200.291,-867.221 200.414,-864.844 201.631,-863.045 202.396,-862.589 202.761,-862.529 
			203.489,-862.042 204.37,-861.951 205.346,-860.826 204.467,-860.033 205.92,-858.788 206.686,-857.265 208.053,-854.371 
			208.971,-853.301 209.607,-854.067 212.012,-852.028 212.65,-851.05 212.717,-850.079 213.778,-848.282 213.387,-847.037 
			215.516,-844.412 216.795,-843.287 217.406,-841.519 218.166,-842.132 219.232,-839.359 220.082,-839.481 220.633,-839.33 
			220.725,-838.599 221.27,-837.805 222.764,-837.896 223.22,-836.896 222.582,-836.1 223.555,-834.852 223.463,-832.753 
			223.891,-831.444 224.499,-830.68 225.81,-829.461 227.909,-826.325 208.053,-829.796 208.053,-835.067 203.885,-838.022 
			203.822,-839.419 200.291,-839.849 198.857,-840.212 197.914,-841.186 197.825,-843.837 196.577,-845.051 194.812,-845.847 
			192.803,-846.025 192.646,-846.879 191.677,-847.063 184.976,-858.753 		"/>
		<polygon fill="none" stroke="#498C9B" stroke-width="0.5" points="160.218,-1036.732 162.504,-1036.885 163.598,-1035.487 
			170.971,-1034.115 171.455,-1036.7 175.08,-1036.487 175.293,-1035.332 178.094,-1029.583 177.697,-1028.417 179.707,-1025.588 
			181.567,-1023.706 182.844,-1024.034 183.48,-1023 184.152,-1020.72 184.215,-1016.726 182.994,-1015.814 182.629,-1014.079 
			181.383,-1010.973 181.837,-1008.446 182.48,-1007.255 184.123,-1004.824 184.215,-1003.812 185.522,-1003.514 185.553,-1002.14 
			187.015,-999.735 187.959,-997.271 188.538,-994.565 188.658,-993.193 182.752,-993.28 181.412,-990.143 180.926,-986.552 
			180.896,-983.967 178.855,-983.967 177.424,-981.345 177.424,-978.637 173.648,-978.604 173.707,-980.307 169.508,-980.557 
			166.279,-981.617 165.244,-980.643 164.999,-980.036 162.684,-980.557 162.869,-983.262 161.772,-983.72 160.891,-984.694 
			159.701,-984.239 158.639,-985.519 157.391,-987.403 157.813,-989.99 149.229,-990.025 148.923,-994.313 148.496,-996.994 
			149.717,-998.643 149.135,-1001.897 151.175,-1003.083 151.203,-1005.916 150.387,-1007.99 150.903,-1009.606 152.762,-1012.28 
			154.191,-1013.928 155.467,-1017.395 154.34,-1017.977 		"/>
		<polygon fill="none" stroke="#498C9B" stroke-width="0.5" points="182.537,-1007.32 274.77,-1007.016 275.076,-978.664 
			239.967,-979.731 239.752,-977.567 228.641,-977.567 228.061,-978.637 221.361,-978.758 220.997,-979.914 207.662,-979.822 
			206.475,-981.074 199.896,-980.979 199.833,-974.037 193.163,-973.945 193.04,-972.24 185.765,-972.453 185.463,-976.38 
			186.223,-977.294 186.346,-980.126 185.734,-980.643 186.223,-981.373 186.071,-982.776 185.342,-984.172 185.463,-988.806 
			186.314,-990.143 187.685,-989.963 188.234,-990.997 188.572,-992.276 188.691,-993.221 188.508,-994.499 187.896,-997.207 
			187.076,-999.735 185.522,-1002.14 185.522,-1003.514 184.064,-1003.812 184.152,-1004.792 		"/>
		<polygon fill="none" stroke="#498C9B" stroke-width="0.5" points="207.689,-933.234 211.775,-931.464 213.172,-931.957 
			214.328,-930.948 223.649,-930.707 223.676,-928.03 232.599,-927.91 233.542,-929.122 237.439,-929.094 238.719,-927.752 
			251.627,-927.572 251.66,-929.216 275.317,-928.79 275.047,-978.699 240.027,-979.731 239.723,-977.63 228.606,-977.567 
			228.032,-978.604 221.361,-978.758 220.876,-979.949 207.57,-979.822 207.475,-977.447 208.418,-976.197 208.454,-974.949 
			207.51,-974.158 207.51,-970.476 206.776,-969.226 206.897,-968.375 208.053,-968.004 208.512,-965.755 207.542,-964.599 
			207.629,-963.259 208.574,-962.13 208.695,-960.519 207.996,-959.454 208.242,-957.867 207.475,-956.89 207.967,-955.952 
			207.204,-954.582 207.204,-953.91 209.335,-953.819 209.396,-948.823 208.027,-946.941 207.996,-943.129 209.151,-942.767 
			210.221,-941.757 209.455,-938.382 209.492,-936.918 		"/>
		<polygon fill="none" stroke="#498C9B" stroke-width="0.5" points="193.04,-972.24 193.198,-973.917 199.864,-974.01 
			199.925,-980.916 206.504,-980.979 207.662,-979.822 207.445,-977.505 208.454,-976.168 208.391,-974.921 207.51,-974.096 
			207.475,-970.443 206.809,-969.198 206.929,-968.375 208.116,-967.948 208.512,-965.814 207.51,-964.599 207.629,-963.259 
			208.574,-962.16 208.695,-960.486 208.053,-959.454 208.242,-957.81 207.475,-956.866 207.967,-955.978 207.232,-954.638 
			207.262,-953.91 209.396,-953.756 209.396,-948.762 207.996,-946.908 207.996,-943.102 209.272,-942.734 210.221,-941.757 
			209.455,-938.444 209.492,-936.89 207.754,-933.266 206.417,-932.871 206.417,-931.101 201.783,-930.983 197.914,-930.219 
			196.912,-930.195 197.795,-927.938 193.99,-926.23 192.863,-925.441 190,-927.634 188.508,-927.083 188.387,-931.166 
			185.646,-931.228 185.098,-931.803 180.804,-931.895 180.867,-934.848 178.518,-936.707 177.087,-936.707 176.115,-937.468 
			173.951,-940.755 174.988,-942.188 175.96,-948.974 178.887,-948.738 178.945,-951.199 179.615,-952.907 178.429,-953.577 
			177.242,-954.098 176.57,-955.069 176.604,-956.374 177.087,-958.083 176.544,-958.875 175.322,-959.577 174.532,-960.884 
			171.883,-960.793 170.785,-961.121 170.816,-962.041 171.703,-962.345 171.727,-962.956 174.744,-963.014 174.592,-969.473 
			172.156,-969.438 172.307,-973.096 176.875,-972.91 176.875,-971.506 179.646,-971.542 180.256,-972.453 		"/>
		<polygon fill="none" stroke="#498C9B" stroke-width="0.5" points="150.08,-933.968 153.003,-939.383 152.941,-942.158 
			151.448,-943.738 147.979,-944.321 146.273,-946.998 145.268,-947.212 145.028,-954.582 143.928,-955.766 142.56,-957.505 
			139.877,-957.654 139.756,-959.389 138.11,-960.914 136.773,-960.545 135.646,-958.112 134.915,-957.138 134.219,-953.364 
			131.111,-951.046 129.345,-951.107 128.767,-949.587 129.132,-947.393 128.854,-945.717 127.666,-944.104 128.338,-943.009 
			129.006,-943.009 129.345,-943.315 130.076,-943.315 130.805,-942.038 130.805,-941.335 130.2,-940.208 129.524,-940.236 
			129.038,-940.606 128.398,-939.781 127.518,-937.987 128.767,-935.305 129.618,-932.808 130.684,-933.388 131.292,-934.848 
			133.026,-934.912 133.698,-933.968 136.469,-936.067 136.591,-933.815 137.934,-933.662 138.992,-935.881 140.822,-935.914 
			142.043,-934.848 144.902,-936.371 146.152,-936.185 		"/>
		<polygon fill="none" stroke="#498C9B" stroke-width="0.5" points="196.879,-930.157 197.914,-930.219 200.199,-930.649 
			201.783,-930.983 206.441,-931.07 206.441,-932.871 207.723,-933.204 211.741,-931.499 213.203,-931.957 214.391,-930.983 
			223.649,-930.707 223.649,-927.997 232.569,-927.938 233.571,-929.122 237.469,-929.094 238.748,-927.752 251.66,-927.512 
			251.723,-929.183 275.352,-928.853 275.288,-920.568 272.426,-901.14 211.041,-901.842 212.045,-903.092 212.625,-905.28 
			212.745,-906.648 212.596,-907.808 210.949,-910.124 209.12,-911.918 207.049,-913.195 206.229,-912.375 205.07,-911.985 
			203.307,-912.101 202.761,-912.744 202.816,-915.85 199.741,-918.437 199.438,-919.352 200.381,-920.722 200.229,-922.972 
			198.8,-925.441 		"/>
		<polygon fill="none" stroke="#498C9B" stroke-width="0.5" points="224.192,-857.411 224.441,-868.775 217.649,-868.863 
			217.799,-877.271 214.845,-877.271 214.818,-879.797 211.133,-880.069 210.826,-886.524 202.239,-886.674 202.092,-888.351 
			199.987,-888.318 199.925,-889.053 200.658,-889.418 200.658,-890.117 197.642,-892.888 196.422,-892.124 196.362,-891.699 
			195.63,-890.697 194.202,-890.395 193.258,-889.569 192.983,-886.955 192.646,-886.28 192.68,-885.731 192.163,-885.4 
			190.912,-883.85 189.968,-881.594 189.939,-879.55 187.136,-877.177 188.475,-873.522 186.528,-872.457 184.857,-871.088 
			184.883,-870.601 185.492,-870.692 185.888,-871.147 186.466,-870.808 187.201,-871.755 188.053,-872.338 188.602,-871.846 
			189.267,-871.846 189.573,-872.428 189.939,-872.457 190.271,-871.94 190.578,-871.968 191.001,-872.244 191.458,-872.215 
			192.131,-871.636 192.68,-872.152 193.592,-871.636 193.377,-870.327 194.417,-869.716 194.506,-868.987 195.604,-867.803 
			196.7,-868.258 197.096,-867.803 196.577,-867.221 196.852,-866.612 199.133,-866.612 200.263,-867.221 200.446,-864.751 
			201.662,-863.078 202.362,-862.589 202.729,-862.529 203.458,-862.042 204.313,-861.986 205.375,-860.826 204.434,-860.033 
			205.896,-858.788 206.656,-857.324 209.12,-857.352 		"/>
		<polygon fill="none" stroke="#498C9B" stroke-width="0.5" points="185.067,-898.765 186.314,-898.916 187.625,-898.552 
			188.691,-897.638 189.086,-897.856 190.336,-900.597 191.125,-901.721 192.22,-902.542 192.983,-902.88 192.983,-905.252 
			193.441,-905.828 193.863,-905.828 195.052,-904.919 195.785,-904.034 196.665,-904.337 196.818,-907.961 185.586,-917.739 
			176.57,-920.114 176.115,-918.042 173.281,-918.194 170.026,-920.264 168.135,-919.774 168.744,-917.98 169.082,-915.968 
			169.814,-913.838 169.965,-910.764 169.72,-909.699 168.717,-909 168.717,-908.483 169.445,-907.719 169.445,-906.867 
			168.959,-906.528 168.776,-904.366 169.293,-904.059 168.865,-903.488 169.233,-903.061 169.935,-902.967 170.301,-904.125 
			170.664,-904.004 170.484,-903.092 171.15,-902.663 171.793,-903.517 173.707,-901.326 174.438,-901.14 175.417,-900.229 
			178.672,-899.286 179.952,-899.437 181.016,-898.857 181.504,-898.673 182.781,-897.117 		"/>
		<polygon fill="none" stroke="#498C9B" stroke-width="0.5" points="168.168,-919.809 168.776,-917.949 169.048,-916.063 
			169.814,-913.806 169.965,-910.764 169.752,-909.758 168.717,-909 168.717,-908.448 169.413,-907.749 169.445,-906.867 
			162.627,-902.599 155.349,-902.698 154.191,-901.17 153.611,-900.896 148.25,-901.017 148.348,-903.092 150.781,-903.151 
			151.357,-908.599 151.938,-908.967 152.484,-911.256 153.523,-912.136 154.525,-912.254 154.797,-914.237 160.527,-913.322 
			163.598,-919.715 167.648,-919.743 167.681,-920.019 		"/>
		<polygon fill="none" stroke="#498C9B" stroke-width="0.5" points="140.822,-935.914 142.043,-934.815 144.902,-936.402 
			146.213,-936.185 150.08,-933.968 153.068,-939.477 154.34,-938.687 154.83,-937.435 155.5,-936.555 156.658,-936.098 
			157.357,-934.543 158.424,-933.842 159.674,-932.021 160.553,-931.744 161.896,-930.678 164.026,-928.36 164.76,-927.664 
			165.701,-926.687 166.705,-924.132 167.923,-923.094 167.681,-919.743 163.569,-919.715 160.553,-913.29 154.797,-914.237 
			154.525,-912.254 153.49,-912.136 152.484,-911.256 151.938,-908.938 151.39,-908.599 148.102,-909.516 149.408,-921.666 
			146.975,-921.722 147.008,-923.489 146.152,-923.979 142.713,-924.314 141.764,-924.735 141.98,-926.104 141.615,-926.625 
			140.975,-926.717 140.641,-927.236 141.006,-927.844 141.006,-928.393 140.334,-929.035 		"/>
		<polygon fill="none" stroke="#498C9B" stroke-width="0.5" points="130.227,-931.773 129.56,-932.871 130.717,-933.388 
			131.324,-934.912 133,-934.942 133.667,-933.968 136.469,-936.039 136.591,-933.815 137.934,-933.629 138.992,-935.881 
			140.822,-935.881 140.306,-928.971 141.006,-928.427 141.006,-927.811 140.641,-927.203 140.975,-926.747 141.645,-926.625 
			141.98,-926.08 141.764,-924.735 142.742,-924.314 146.182,-923.979 147.008,-923.489 146.975,-921.722 149.408,-921.666 
			148.102,-909.516 140.031,-911.493 138.813,-909.82 135.982,-910.459 134.396,-906.958 131.628,-906.985 130.625,-905.068 
			122.734,-904.946 122.556,-907.537 120.234,-917.062 120.452,-921.052 121.551,-921.786 121.854,-924.462 122.949,-924.858 
			123.771,-924.224 124.503,-923.25 126.848,-924.07 128.887,-928.91 127.879,-930.006 128.854,-931.101 		"/>
		<polygon fill="none" stroke="#498C9B" stroke-width="0.5" points="170.938,-894.077 171.793,-894.867 179.891,-899.465 
			180.955,-898.887 181.504,-898.673 182.752,-897.18 182.844,-896.175 183.241,-895.817 184.607,-895.48 184.459,-894.688 
			184.701,-893.982 185.522,-893.593 185.705,-891.124 187.591,-889.297 192.068,-887.743 193.075,-887.565 192.983,-886.888 
			192.68,-886.28 192.646,-885.703 192.163,-885.4 190.912,-883.783 189.939,-881.594 189.908,-879.55 187.136,-877.177 
			188.475,-873.557 186.466,-872.428 184.82,-871.088 183.393,-872.032 182.203,-872.244 180.409,-873.611 180.624,-874.741 
			178.582,-874.803 176.297,-876.171 175.354,-877.449 174.532,-877.88 173.738,-876.72 172.458,-876.72 170.877,-875.991 
			170.328,-876.324 169.145,-877.661 167.281,-878.487 165.701,-878.633 164.179,-880.986 164.146,-882.049 163.966,-882.599 
			164.238,-883.875 166.826,-886.221 166.826,-887.226 166.524,-888.014 168.717,-888.172 169.385,-888.749 169.385,-889.297 		"/>
		<polygon fill="none" stroke="#498C9B" stroke-width="0.5" points="164.179,-880.889 164.146,-882.019 163.966,-882.565 
			164.238,-883.91 166.796,-886.158 166.857,-887.195 166.553,-888.014 168.685,-888.172 169.385,-888.749 169.354,-889.265 
			170.908,-894.077 171.727,-894.867 179.92,-899.437 178.672,-899.314 176.875,-899.831 175.354,-900.319 174.349,-901.17 
			173.648,-901.352 171.76,-903.547 171.121,-902.635 170.449,-903.12 170.664,-904.034 170.301,-904.125 169.965,-902.934 
			169.171,-903.061 168.836,-903.456 169.322,-904.125 168.776,-904.337 168.959,-906.528 162.627,-902.635 155.379,-902.722 
			154.222,-901.2 153.67,-900.896 152.64,-900.927 152.67,-900.041 153.248,-898.857 153.156,-897.574 151.998,-897.698 
			151.203,-897.944 150.08,-898.887 149.262,-898.829 147.858,-894.991 149.408,-894.501 147.918,-888.318 146.273,-888.351 
			146.364,-883.389 150.08,-883.267 150.295,-879.826 154.34,-879.765 153.912,-874.59 150.962,-874.529 150.813,-867.922 
			163.449,-867.83 165.366,-875.225 165.731,-878.609 		"/>
		<polygon fill="none" stroke="#498C9B" stroke-width="0.5" points="150.413,-841.151 150.781,-867.922 163.449,-867.858 
			165.395,-875.225 165.731,-878.609 167.281,-878.456 169.048,-877.696 169.841,-876.871 170.357,-876.324 170.877,-875.991 
			172.458,-876.72 173.707,-876.72 174.532,-877.88 175.354,-877.449 176.264,-876.204 178.582,-874.803 180.624,-874.741 
			180.409,-873.678 182.176,-872.244 183.359,-872.06 184.857,-871.088 184.976,-858.691 191.703,-847.063 192.646,-846.879 
			192.803,-846.025 194.721,-845.877 196.545,-845.079 197.825,-843.837 197.948,-841.151 198.8,-840.271 200.263,-839.814 
			203.822,-839.419 203.885,-838.022 208.053,-835.128 208.087,-829.739 199.805,-831.164 199.777,-832.416 199.104,-832.385 
			199.285,-835.003 197.857,-835.279 193.137,-834.213 190.184,-834.303 189.267,-834.946 188.538,-836.253 184.793,-836.923 
			186.498,-838.717 184.277,-839.269 183.147,-838.871 181.082,-835.949 177.332,-836.374 175.658,-841.245 163.754,-844.258 		"/>
	</g>
	<polygon fill="#8FD0DF" stroke="#498C9B" stroke-width="0.5" points="179.952,-935.518 178.488,-936.642 177.119,-936.642 
		176.115,-937.497 173.922,-940.847 175.047,-942.279 176.052,-948.974 178.945,-948.738 178.945,-951.018 179.615,-952.933 
		177.242,-954.061 176.544,-954.945 176.632,-956.344 177.211,-957.99 176.57,-958.963 175.322,-959.547 174.562,-960.884 
		171.915,-960.793 170.847,-961.121 170.877,-962.073 171.703,-962.373 171.668,-964.174 170.42,-964.111 170.357,-966.212 
		162.992,-966.336 163.174,-959.389 156.078,-959.389 154.892,-960.486 153.703,-960.458 152.64,-959.547 152.455,-957.565 
		153.248,-956.344 153.003,-955.585 152.123,-955.341 152.153,-953.7 151.51,-953.206 151.727,-951.443 150.321,-951.412 
		150.08,-952.543 148.377,-952.568 148.222,-955.249 145.119,-954.515 145.268,-947.24 146.273,-947.061 148.07,-944.288 
		149.35,-944.076 151.448,-943.71 152.91,-942.158 153.03,-939.507 154.373,-938.622 154.83,-937.376 155.532,-936.524 
		156.658,-936.067 157.357,-934.576 158.424,-933.815 159.701,-931.985 160.553,-931.744 161.926,-930.678 163.996,-928.36 
		168.593,-932.199 169.688,-931.136 171.486,-931.464 172.644,-931.683 175.202,-931.499 176.449,-934.359 177.087,-935.034 	"/>
	<polygon fill="none" stroke="#498C9B" stroke-width="0.5" points="231.076,-870.176 231.228,-868.287 232.261,-867.282 
		231.898,-865.361 232.143,-864.538 236.861,-862.196 237.99,-862.924 239.207,-862.139 239.781,-860.066 240.363,-859.335 
		241.645,-859.366 246.239,-856.411 246.36,-854.888 248.368,-853.274 249.349,-852.268 249.865,-850.958 250.531,-850.291 
		253.369,-849.164 255.191,-849.193 256.594,-850.407 256.195,-851.996 257.05,-852.174 259.943,-851.329 261.768,-849.407 
		264.723,-847.943 262.772,-834.548 245.084,-834.486 245.112,-837.017 237.928,-837.227 238.049,-848.647 236.098,-848.86 
		236.129,-851.232 234.821,-851.692 234.67,-852.544 229.766,-852.638 229.766,-857.392 224.192,-857.411 224.441,-868.775 
		217.649,-868.832 217.741,-872.581 223.128,-872.272 224.284,-873.708 234.549,-873.522 234.732,-871.543 234.24,-870.631 
		232.357,-871.273 	"/>
</g>
</svg>
