<?xml version="1.0" encoding="utf-8"?>
<!-- Generator: Adobe Illustrator 16.0.0, SVG Export Plug-In . SVG Version: 6.00 Build 0)  -->
<!DOCTYPE svg PUBLIC "-//W3C//DTD SVG 1.1//EN" "http://www.w3.org/Graphics/SVG/1.1/DTD/svg11.dtd">
<svg version="1.1" id="Capa_1" xmlns="http://www.w3.org/2000/svg" xmlns:xlink="http://www.w3.org/1999/xlink" x="0px" y="0px"
	 width="164px" height="262.667px" viewBox="0 0 164 262.667" enable-background="new 0 0 164 262.667" xml:space="preserve">
<g>
	<g>
		<polygon fill="none" stroke="#498C9B" stroke-width="0.5" points="129.668,212.543 147.356,212.423 141.207,253.954 
			139.472,246.62 124.004,246.495 122.541,243.574 122.115,242.599 121.808,241.688 121.568,239.342 121.869,237.847 122.6,236.722 
			123.303,235.811 123.457,235.292 122.877,234.797 122.695,234.253 122.541,233.129 121.658,232.338 119.771,232.249 
			119.07,231.757 118.278,231.3 117.732,231.427 117.092,231.363 117.274,229.11 129.424,228.925 		"/>
		<polygon fill="none" stroke="#498C9B" stroke-width="0.5" points="59.694,10.456 59.847,11.611 62.616,17.36 62.281,18.669 
			64.17,21.414 66.183,23.332 67.396,23.059 68.041,24.001 68.736,26.282 68.799,30.214 67.579,31.124 67.153,33.193 65.967,35.966 
			66.026,37.185 66.331,38.433 67,39.626 159.354,39.985 158.81,9.263 83.199,8.714 81.341,11.641 75.62,11.641 69.954,10.329 		"/>
		<polygon fill="none" stroke="#498C9B" stroke-width="0.5" points="56.801,77.5 56.892,73.938 61.43,74.119 61.521,75.525 
			64.2,75.459 64.781,74.548 70.385,74.608 70.047,70.708 70.838,69.795 70.931,66.994 70.29,66.298 70.808,65.628 70.562,64.073 
			69.833,62.707 69.988,58.227 70.931,56.826 72.209,57.011 72.877,56.004 73.337,53.781 67.249,53.721 66.026,56.858 65.51,60.295 
			65.48,63.069 63.406,63.1 62.069,65.628 62.097,68.397 58.292,68.365 58.322,66.662 54.092,66.477 50.954,65.417 49.829,66.358 
			49.646,66.965 47.269,66.298 47.393,63.74 46.266,63.282 45.534,62.307 44.258,62.73 42.001,59.567 42.461,56.917 33.935,56.976 
			34.48,59.897 33.935,62.034 30.25,60.965 28.94,67.299 27.204,67.115 26.931,68.583 25.348,67.939 24.798,68.941 25.164,70.559 
			24.161,71.623 23.947,78.808 22.635,83.2 22.635,86.087 24.281,87.581 24.461,89.347 27.082,89.377 28.513,91.259 29.638,92.391 
			32.775,91.751 32.961,94.433 34.631,94.398 34.879,95.589 36.279,95.498 36.125,93.701 36.765,93.246 36.708,91.661 
			37.614,91.327 37.798,90.686 37.013,89.467 37.158,87.397 38.229,86.609 39.508,86.543 40.691,87.581 47.667,87.547 
			47.513,80.638 54.941,80.73 55.004,82.828 56.192,82.742 56.312,84.079 59.237,84.045 59.176,77.471 		"/>
		<polygon fill="none" stroke="#498C9B" stroke-width="0.5" points="95.625,145.191 96.629,143.91 97.209,141.63 97.33,140.315 
			97.146,139.193 95.563,136.911 93.645,135.051 91.633,133.806 90.813,134.626 89.625,135.051 87.892,134.929 87.313,134.228 
			87.435,131.186 84.326,128.564 84.021,127.617 84.965,126.307 84.848,124.055 83.385,121.623 82.379,119.063 78.575,120.8 
			77.477,121.593 74.584,119.337 73.092,119.918 72.941,122.597 72.175,125.887 70.17,129.262 81.372,139.004 86.764,145.126 		"/>
		<polygon fill="none" stroke="#498C9B" stroke-width="0.5" points="95.625,145.191 96.658,147.106 97.816,148.788 99.31,150.514 
			100.283,150.914 102.688,150.307 104.608,150.58 105.154,151.184 107.316,152.559 108.656,154.172 108.564,157.061 
			108.963,157.886 110.088,157.917 109.938,159.013 111.978,161.754 113.771,161.754 115.903,166.78 116.941,166.962 
			116.789,167.999 115.813,169.305 116.789,170.13 116.873,172.139 119.19,172.776 119.19,173.389 152.961,174.052 157.039,145.832 
					"/>
		<polygon fill="none" stroke="#498C9B" stroke-width="0.5" points="119.16,173.444 152.989,174.028 149.277,199.058 
			146.353,197.565 144.406,195.616 141.604,194.886 140.779,194.973 141.178,196.621 139.715,197.866 137.797,197.866 
			135.058,196.741 134.357,195.976 133.869,194.793 132.924,193.701 130.883,192.146 130.767,190.53 126.133,187.605 
			124.855,187.605 124.308,186.935 124.004,185.54 123.73,184.833 122.574,184.103 121.324,184.897 116.728,182.493 
			116.482,181.667 116.815,179.69 115.78,178.713 115.66,176.795 116.91,175.728 118.824,176.371 119.347,175.424 		"/>
		<polygon fill="none" stroke="#498C9B" stroke-width="0.5" points="117.211,229.019 129.424,228.925 129.696,209.984 
			122.482,209.774 122.6,198.354 120.713,198.111 120.713,195.769 119.438,195.309 119.254,194.458 114.351,194.397 
			114.351,189.609 91.271,189.677 92.672,192.6 93.584,193.701 94.191,192.965 96.629,194.914 97.209,195.952 97.36,196.922 
			98.362,198.692 98.029,200.031 100.037,202.525 101.379,203.656 102.051,205.385 102.75,204.93 103.847,207.613 104.701,207.52 
			105.248,207.67 105.31,208.437 105.885,209.165 107.403,209.079 107.832,210.079 107.19,210.931 108.107,212.177 108.08,214.22 
			108.441,215.62 109.176,216.441 110.395,217.566 112.404,220.643 112.646,222.256 111.978,223.841 112.434,224.508 
			112.281,226.156 113.254,226.828 114.383,226.828 114.928,226.156 117,228.347 		"/>
		<polygon fill="none" stroke="#498C9B" stroke-width="0.5" points="78.756,156.606 80.188,156.304 80.946,155.333 81.006,154.876 
			82.227,154.114 85.242,156.916 85.242,157.616 84.48,157.949 84.537,158.683 86.641,158.616 86.793,160.355 95.41,160.477 
			95.717,166.962 99.402,167.175 99.402,169.729 102.383,169.729 102.326,174.454 107.685,174.729 108.809,173.293 119.226,173.358 
			119.19,172.836 116.873,172.076 116.789,170.156 115.842,169.305 116.789,168.03 116.91,166.9 115.903,166.745 113.771,161.785 
			111.978,161.754 109.967,159.046 110.088,157.917 108.93,157.917 108.564,157.001 108.656,154.172 107.349,152.592 
			105.154,151.221 104.608,150.549 102.688,150.247 100.344,150.914 99.31,150.489 97.787,148.72 96.658,147.106 95.625,145.191 
			86.731,145.1 81.402,139.041 81.25,142.603 80.4,142.942 79.607,142.055 78.447,141.201 78.055,141.201 77.538,141.75 
			77.567,144.035 76.805,144.49 75.68,145.251 74.92,146.439 73.7,149.119 73.275,149.395 72.209,148.45 70.959,148.052 
			69.683,148.205 67.336,149.912 67.458,150.914 67.793,151.184 68.587,151.342 69.191,151.521 69.013,152.314 69.256,153.043 
			70.077,153.381 70.29,155.936 72.148,157.705 76.748,159.286 77.625,159.471 77.872,157.459 		"/>
		<polygon fill="none" stroke="#498C9B" stroke-width="0.5" points="48.61,118.641 53.177,114.768 54.305,115.866 57.229,115.318 
			59.756,115.501 61.034,112.61 61.671,112 64.564,111.483 65.42,112.126 65.389,115.106 69.773,115.199 70.23,115.773 
			72.972,115.866 73.06,119.918 72.941,122.626 72.175,125.887 70.17,129.262 61.154,126.92 60.732,128.929 57.866,128.776 
			54.61,126.769 52.719,127.192 52.295,127.042 52.536,123.937 51.29,122.845 50.315,120.4 		"/>
		<polygon fill="none" stroke="#498C9B" stroke-width="0.5" points="35.029,205.785 35.366,179.081 35.487,172.443 38.497,172.382 
			38.924,167.205 34.879,167.142 34.665,163.734 30.948,163.643 30.826,158.65 32.534,158.683 34.025,152.467 32.411,152.042 
			33.813,148.205 34.693,148.144 35.759,149.057 36.522,149.236 37.741,149.427 37.833,148.205 37.281,146.986 37.225,146.105 
			32.87,146.04 32.933,143.91 35.366,143.823 35.975,138.431 24.646,135.481 23.396,137.181 20.594,136.485 18.954,140.043 
			16.212,139.982 15.209,141.933 7.291,142.147 7.808,151.865 5.979,158.65 4.704,158.403 4.063,162.458 5.736,162.82 5.859,165.59 
			13.837,167.787 14.538,169.28 15.788,170.739 18.04,171.624 18.924,172.991 18.618,175.914 18.737,177.708 19.714,179.873 
			21.236,184.103 21.603,190.71 22.694,192.905 24.099,193.179 24.677,193.787 24.707,194.639 23.247,194.674 22.148,195.739 
			22.12,197.32 23.154,198.719 23.247,199.605 24.588,200.395 25.014,201.643 24.313,203.228 23.216,204.505 23.432,208.555 		"/>
		<g>
			<polygon fill="#8FD0DF" stroke="#498C9B" stroke-width="0.5" points="69.467,176.338 70.047,176.338 70.473,175.886 
				71.083,176.217 71.752,175.278 72.638,174.664 73.21,175.121 73.82,175.156 74.187,174.544 74.523,174.512 74.855,175.092 
				75.163,175.061 75.62,174.756 76.078,174.788 76.748,175.366 77.322,174.848 78.176,175.366 77.961,176.648 78.969,177.286 
				79.062,177.985 80.214,179.235 81.314,178.781 81.647,179.171 81.129,179.811 81.463,180.423 83.688,180.423 84.875,179.781 
				84.998,182.158 86.215,183.957 86.98,184.413 87.346,184.472 88.074,184.959 88.955,185.05 89.931,186.175 89.051,186.968 
				90.504,188.213 91.271,189.736 92.638,192.63 93.556,193.701 94.191,192.934 96.597,194.973 97.234,195.952 97.301,196.922 
				98.362,198.719 97.972,199.964 100.101,202.59 101.379,203.714 101.99,205.482 102.75,204.87 103.816,207.642 104.666,207.52 
				105.217,207.67 105.31,208.402 105.854,209.197 107.349,209.104 107.805,210.105 107.166,210.901 108.14,212.149 
				108.047,214.249 108.476,215.557 109.084,216.322 110.395,217.541 112.494,220.676 92.638,217.206 92.638,211.934 
				88.469,208.979 88.406,207.583 84.875,207.152 83.441,206.79 82.499,205.815 82.41,203.165 81.162,201.951 79.396,201.155 
				77.388,200.976 77.23,200.123 76.261,199.938 69.561,188.249 			"/>
			<polygon fill="#8FD0DF" stroke="#498C9B" stroke-width="0.5" points="44.802,10.269 47.088,10.117 48.183,11.514 55.556,12.886 
				56.04,10.301 59.665,10.514 59.877,11.669 62.678,17.418 62.281,18.584 64.292,21.414 66.151,23.295 67.428,22.967 
				68.064,24.001 68.736,26.282 68.799,30.275 67.579,31.187 67.213,32.921 65.967,36.028 66.421,38.555 67.064,39.747 
				68.708,42.177 68.799,43.189 70.106,43.488 70.138,44.861 71.6,47.266 72.543,49.73 73.123,52.436 73.243,53.808 67.336,53.721 
				65.997,56.858 65.51,60.45 65.48,63.035 63.439,63.035 62.008,65.657 62.008,68.365 58.232,68.397 58.292,66.694 54.092,66.444 
				50.863,65.384 49.829,66.358 49.583,66.965 47.269,66.444 47.454,63.74 46.356,63.282 45.476,62.307 44.286,62.762 
				43.224,61.482 41.976,59.598 42.396,57.011 33.813,56.976 33.507,52.688 33.081,50.007 34.301,48.358 33.719,45.104 
				35.759,43.918 35.788,41.085 34.972,39.011 35.487,37.395 37.347,34.721 38.775,33.074 40.051,29.606 38.924,29.024 			"/>
			<polygon fill="#8FD0DF" stroke="#498C9B" stroke-width="0.5" points="67.122,39.681 159.354,39.985 159.66,68.337 
				124.551,67.269 124.336,69.434 113.226,69.434 112.646,68.365 105.945,68.244 105.582,67.087 92.246,67.179 91.06,65.927 
				84.48,66.022 84.418,72.964 77.748,73.056 77.625,74.761 70.35,74.548 70.047,70.622 70.808,69.708 70.931,66.875 70.318,66.358 
				70.808,65.628 70.655,64.225 69.926,62.83 70.047,58.195 70.898,56.858 72.27,57.04 72.818,56.004 73.156,54.725 73.275,53.781 
				73.092,52.502 72.48,49.794 71.661,47.266 70.106,44.861 70.106,43.488 68.648,43.189 68.736,42.21 			"/>
			<polygon fill="#8FD0DF" stroke="#498C9B" stroke-width="0.5" points="92.273,113.767 96.359,115.538 97.756,115.044 
				98.912,116.053 108.233,116.294 108.26,118.971 117.184,119.09 118.127,117.879 122.023,117.908 123.303,119.25 136.211,119.428 
				136.244,117.786 159.901,118.211 159.631,68.302 124.611,67.269 124.308,69.372 113.19,69.434 112.617,68.397 105.945,68.244 
				105.461,67.052 92.154,67.179 92.06,69.554 93.002,70.804 93.039,72.052 92.094,72.843 92.094,76.525 91.36,77.775 
				91.481,78.626 92.638,78.998 93.097,81.247 92.127,82.402 92.213,83.743 93.158,84.872 93.279,86.482 92.58,87.547 
				92.826,89.134 92.06,90.111 92.551,91.049 91.789,92.419 91.789,93.091 93.92,93.182 93.98,98.178 92.611,100.06 92.58,103.872 
				93.735,104.234 94.806,105.244 94.039,108.62 94.076,110.083 			"/>
			<polygon fill="#8FD0DF" stroke="#498C9B" stroke-width="0.5" points="77.625,74.761 77.783,73.084 84.449,72.992 84.51,66.085 
				91.088,66.022 92.246,67.179 92.029,69.497 93.039,70.833 92.976,72.081 92.094,72.906 92.06,76.558 91.394,77.803 
				91.514,78.626 92.701,79.053 93.097,81.187 92.094,82.402 92.213,83.743 93.158,84.841 93.279,86.515 92.638,87.547 
				92.826,89.191 92.06,90.135 92.551,91.023 91.816,92.364 91.847,93.091 93.98,93.246 93.98,98.24 92.58,100.093 92.58,103.899 
				93.856,104.267 94.806,105.244 94.039,108.557 94.076,110.111 92.338,113.735 91.002,114.129 91.002,115.9 86.367,116.018 
				82.499,116.783 81.497,116.806 82.379,119.063 78.575,120.771 77.447,121.56 74.584,119.368 73.092,119.918 72.972,115.835 
				70.23,115.773 69.683,115.199 65.389,115.106 65.452,112.153 63.103,110.294 61.671,110.294 60.7,109.534 58.536,106.247 
				59.572,104.813 60.544,98.027 63.472,98.263 63.529,95.802 64.2,94.094 63.014,93.424 61.827,92.903 61.154,91.932 
				61.188,90.627 61.671,88.918 61.128,88.126 59.906,87.424 59.117,86.117 56.467,86.208 55.37,85.88 55.4,84.96 56.288,84.657 
				56.312,84.045 59.329,83.986 59.176,77.528 56.741,77.563 56.892,73.906 61.459,74.091 61.459,75.496 64.23,75.459 64.84,74.548 
							"/>
			<polygon fill="#8FD0DF" stroke="#498C9B" stroke-width="0.5" points="81.463,116.844 82.499,116.783 84.783,116.351 
				86.367,116.018 91.025,115.931 91.025,114.129 92.308,113.796 96.326,115.501 97.787,115.044 98.976,116.018 108.233,116.294 
				108.233,119.003 117.153,119.063 118.155,117.879 122.053,117.908 123.332,119.25 136.244,119.49 136.308,117.818 
				159.937,118.148 159.873,126.433 157.01,145.861 95.625,145.16 96.629,143.91 97.209,141.721 97.33,140.352 97.181,139.193 
				95.533,136.877 93.705,135.083 91.633,133.806 90.813,134.626 89.654,135.016 87.892,134.9 87.346,134.257 87.4,131.151 
				84.326,128.564 84.021,127.649 84.965,126.28 84.813,124.03 83.385,121.56 			"/>
			<polygon fill="#8FD0DF" stroke="#498C9B" stroke-width="0.5" points="108.776,189.59 109.025,178.226 102.233,178.137 
				102.383,169.729 99.43,169.729 99.402,167.205 95.717,166.932 95.41,160.477 86.824,160.328 86.676,158.65 84.571,158.683 
				84.51,157.949 85.242,157.583 85.242,156.883 82.227,154.114 81.006,154.876 80.946,155.301 80.214,156.304 78.787,156.606 
				77.842,157.431 77.567,160.046 77.23,160.721 77.265,161.27 76.748,161.601 75.497,163.151 74.552,165.408 74.523,167.452 
				71.72,169.825 73.06,173.479 71.112,174.544 69.441,175.914 69.467,176.4 70.077,176.309 70.473,175.854 71.05,176.193 
				71.786,175.247 72.638,174.664 73.187,175.156 73.852,175.156 74.158,174.574 74.523,174.544 74.855,175.061 75.163,175.034 
				75.585,174.756 76.042,174.788 76.715,175.366 77.265,174.848 78.176,175.366 77.961,176.674 79.001,177.286 79.09,178.014 
				80.188,179.199 81.285,178.744 81.681,179.199 81.162,179.781 81.437,180.389 83.717,180.389 84.848,179.781 85.03,182.25 
				86.246,183.923 86.946,184.413 87.313,184.472 88.043,184.959 88.896,185.015 89.959,186.175 89.019,186.968 90.48,188.213 
				91.24,189.677 93.705,189.649 			"/>
			<polygon fill="#8FD0DF" stroke="#498C9B" stroke-width="0.5" points="69.651,148.236 70.898,148.085 72.209,148.45 
				73.275,149.364 73.67,149.146 74.92,146.405 75.709,145.281 76.805,144.459 77.567,144.122 77.567,141.75 78.025,141.173 
				78.447,141.173 79.636,142.083 80.37,142.967 81.25,142.665 81.402,139.041 70.17,129.262 61.154,126.887 60.7,128.959 
				57.866,128.807 54.61,126.738 52.719,127.227 53.329,129.021 53.667,131.034 54.398,133.164 54.549,136.238 54.305,137.302 
				53.301,138.001 53.301,138.518 54.029,139.283 54.029,140.134 53.543,140.473 53.36,142.635 53.877,142.942 53.45,143.513 
				53.817,143.94 54.52,144.035 54.885,142.876 55.249,142.998 55.068,143.91 55.734,144.338 56.377,143.484 58.292,145.675 
				59.022,145.861 60.001,146.772 63.256,147.714 64.537,147.564 65.601,148.144 66.088,148.329 67.366,149.884 			"/>
			<polygon fill="#8FD0DF" stroke="#498C9B" stroke-width="0.5" points="52.752,127.192 53.36,129.052 53.632,130.938 
				54.398,133.195 54.549,136.238 54.336,137.244 53.301,138.001 53.301,138.553 53.998,139.251 54.029,140.134 47.211,144.402 
				39.934,144.303 38.775,145.832 38.195,146.105 32.834,145.984 32.933,143.91 35.366,143.849 35.941,138.402 36.522,138.035 
				37.068,135.746 38.107,134.866 39.109,134.748 39.381,132.764 45.111,133.679 48.183,127.287 52.232,127.258 52.266,126.982 			
				"/>
			<polygon fill="#8FD0DF" stroke="#498C9B" stroke-width="0.5" points="25.406,111.087 26.627,112.186 29.486,110.599 
				30.797,110.816 34.665,113.034 37.652,107.524 38.924,108.314 39.415,109.566 40.084,110.447 41.243,110.903 41.941,112.458 
				43.008,113.159 44.258,114.98 45.138,115.257 46.48,116.324 48.61,118.641 49.344,119.337 50.286,120.314 51.29,122.87 
				52.507,123.908 52.266,127.258 48.153,127.287 45.138,133.711 39.381,132.764 39.109,134.748 38.075,134.866 37.068,135.746 
				36.522,138.063 35.975,138.402 32.687,137.485 33.993,125.335 31.56,125.28 31.592,123.512 30.736,123.022 27.297,122.687 
				26.349,122.266 26.564,120.897 26.2,120.376 25.56,120.285 25.226,119.765 25.59,119.158 25.59,118.608 24.918,117.966 			"/>
			<polygon fill="#8FD0DF" stroke="#498C9B" stroke-width="0.5" points="14.812,115.228 14.145,114.129 15.301,113.614 
				15.909,112.089 17.584,112.059 18.251,113.034 21.053,110.962 21.175,113.186 22.519,113.373 23.577,111.121 25.406,111.121 
				24.891,118.031 25.59,118.575 25.59,119.19 25.226,119.798 25.56,120.254 26.229,120.376 26.564,120.921 26.349,122.266 
				27.327,122.687 30.767,123.022 31.592,123.512 31.56,125.28 33.993,125.335 32.687,137.485 24.616,135.508 23.396,137.181 
				20.566,136.542 18.98,140.043 16.212,140.016 15.209,141.933 7.318,142.055 7.141,139.464 4.818,129.939 5.037,125.95 
				6.135,125.215 6.438,122.54 7.534,122.143 8.355,122.777 9.087,123.751 11.433,122.93 13.472,118.091 12.463,116.996 
				13.438,115.9 			"/>
			<polygon fill="#8FD0DF" stroke="#498C9B" stroke-width="0.5" points="55.522,152.924 56.377,152.134 64.476,147.537 
				65.54,148.115 66.088,148.329 67.336,149.822 67.428,150.827 67.826,151.184 69.191,151.521 69.043,152.314 69.286,153.018 
				70.106,153.409 70.29,155.877 72.175,157.705 76.652,159.258 77.66,159.436 77.567,160.114 77.265,160.721 77.23,161.298 
				76.748,161.601 75.497,163.218 74.523,165.408 74.493,167.452 71.72,169.825 73.06,173.444 71.05,174.574 69.404,175.914 
				67.978,174.969 66.788,174.756 64.994,173.389 65.208,172.26 63.167,172.2 60.881,170.831 59.938,169.552 59.117,169.122 
				58.322,170.282 57.042,170.282 55.461,171.01 54.913,170.677 53.729,169.339 51.866,168.514 50.286,168.369 48.764,166.015 
				48.73,164.953 48.55,164.402 48.822,163.126 51.411,160.781 51.411,159.775 51.108,158.988 53.301,158.83 53.969,158.252 
				53.969,157.705 			"/>
			<polygon fill="#8FD0DF" stroke="#498C9B" stroke-width="0.5" points="48.764,166.113 48.73,164.982 48.55,164.435 
				48.822,163.091 51.38,160.843 51.441,159.806 51.138,158.988 53.27,158.83 53.969,158.252 53.938,157.736 55.493,152.924 
				56.312,152.134 64.504,147.564 63.256,147.687 61.459,147.17 59.938,146.682 58.934,145.832 58.232,145.649 56.344,143.455 
				55.706,144.367 55.034,143.881 55.249,142.967 54.885,142.876 54.549,144.067 53.755,143.94 53.42,143.545 53.906,142.876 
				53.36,142.665 53.543,140.473 47.211,144.367 39.963,144.28 38.807,145.801 38.254,146.105 37.225,146.075 37.254,146.96 
				37.833,148.144 37.741,149.427 36.583,149.303 35.788,149.057 34.665,148.115 33.847,148.171 32.442,152.009 33.993,152.5 
				32.502,158.683 30.857,158.65 30.948,163.613 34.665,163.734 34.879,167.175 38.924,167.236 38.497,172.412 35.546,172.472 
				35.397,179.081 48.034,179.171 49.951,171.776 50.315,168.392 			"/>
			<polygon fill="#8FD0DF" stroke="#498C9B" stroke-width="0.5" points="34.998,205.85 35.366,179.081 48.034,179.143 
				49.979,171.776 50.315,168.392 51.866,168.545 53.632,169.305 54.425,170.13 54.941,170.677 55.461,171.01 57.042,170.282 
				58.292,170.282 59.117,169.122 59.938,169.552 60.849,170.797 63.167,172.2 65.208,172.26 64.994,173.324 66.76,174.756 
				67.943,174.941 69.441,175.914 69.561,188.31 76.288,199.938 77.23,200.123 77.388,200.976 79.306,201.125 81.129,201.921 
				82.41,203.165 82.533,205.85 83.385,206.73 84.848,207.187 88.406,207.583 88.469,208.979 92.638,211.874 92.672,217.262 
				84.39,215.836 84.361,214.585 83.688,214.617 83.869,211.999 82.441,211.722 77.722,212.789 74.769,212.699 73.852,212.055 
				73.123,210.749 69.377,210.079 71.083,208.285 68.861,207.732 67.731,208.13 65.667,211.052 61.917,210.627 60.243,205.755 
				48.338,202.744 			"/>
		</g>
		<polygon fill="none" stroke="#498C9B" stroke-width="0.5" points="64.537,111.483 63.072,110.359 61.704,110.359 60.7,109.504 
			58.506,106.155 59.631,104.722 60.636,98.027 63.529,98.263 63.529,95.983 64.2,94.068 61.827,92.94 61.128,92.056 61.216,90.658 
			61.795,89.011 61.154,88.039 59.906,87.455 59.146,86.117 56.5,86.208 55.432,85.88 55.461,84.928 56.288,84.628 56.252,82.828 
			55.004,82.889 54.941,80.79 47.577,80.666 47.758,87.613 40.663,87.613 39.477,86.515 38.288,86.543 37.225,87.455 37.04,89.436 
			37.833,90.658 37.587,91.416 36.708,91.661 36.737,93.301 36.094,93.795 36.312,95.558 34.905,95.589 34.665,94.458 
			32.961,94.433 32.807,91.751 29.704,92.486 29.853,99.761 30.857,99.94 32.654,102.712 33.935,102.925 36.033,103.292 
			37.495,104.842 37.614,107.495 38.958,108.379 39.415,109.625 40.117,110.477 41.243,110.934 41.941,112.424 43.008,113.186 
			44.286,115.015 45.138,115.257 46.51,116.324 48.581,118.641 53.177,114.802 54.272,115.866 56.07,115.538 57.229,115.318 
			59.787,115.501 61.034,112.642 61.671,111.967 		"/>
		<polygon fill="none" stroke="#498C9B" stroke-width="0.5" points="115.66,176.826 115.813,178.713 116.846,179.719 
			116.482,181.64 116.728,182.461 121.445,184.805 122.574,184.078 123.791,184.863 124.365,186.935 124.947,187.667 
			126.229,187.635 130.824,190.59 130.944,192.114 132.953,193.727 133.934,194.733 134.449,196.043 135.115,196.709 
			137.953,197.837 139.775,197.808 141.178,196.594 140.779,195.004 141.635,194.829 144.527,195.672 146.353,197.594 
			149.308,199.058 147.356,212.454 129.668,212.515 129.696,209.984 122.513,209.774 122.633,198.354 120.683,198.141 
			120.713,195.769 119.405,195.309 119.254,194.458 114.351,194.364 114.351,189.609 108.776,189.59 109.025,178.226 
			102.233,178.169 102.326,174.42 107.713,174.729 108.869,173.293 119.133,173.479 119.316,175.458 118.824,176.371 
			116.941,175.728 		"/>
	</g>
	<g>
		<polygon fill="none" stroke="#498C9B" stroke-width="0.5" points="129.668,212.543 147.356,212.423 141.207,253.954 
			139.472,246.62 124.004,246.495 122.541,243.574 122.115,242.599 121.808,241.688 121.568,239.342 121.869,237.847 122.6,236.722 
			123.303,235.811 123.457,235.292 122.877,234.797 122.695,234.253 122.541,233.129 121.658,232.338 119.771,232.247 
			119.07,231.757 118.278,231.3 117.732,231.427 117.092,231.363 117.274,229.111 129.424,228.925 		"/>
		<polygon fill="none" stroke="#498C9B" stroke-width="0.5" points="59.694,10.456 59.847,11.611 62.616,17.36 62.281,18.669 
			64.17,21.414 66.183,23.332 67.396,23.059 68.041,24.001 68.736,26.282 68.799,30.214 67.579,31.124 67.153,33.193 65.967,35.966 
			66.026,37.185 66.331,38.433 67,39.626 159.354,39.985 158.81,9.263 83.199,8.714 81.341,11.641 75.62,11.641 69.954,10.329 		"/>
		<polygon fill="none" stroke="#498C9B" stroke-width="0.5" points="56.801,77.5 56.892,73.938 61.43,74.119 61.521,75.525 
			64.2,75.459 64.781,74.548 70.385,74.608 70.047,70.708 70.838,69.795 70.931,66.994 70.29,66.298 70.808,65.628 70.562,64.073 
			69.833,62.707 69.988,58.227 70.931,56.826 72.209,57.011 72.877,56.004 73.337,53.781 67.249,53.721 66.026,56.858 65.51,60.295 
			65.48,63.069 63.406,63.1 62.069,65.628 62.097,68.397 58.292,68.365 58.322,66.664 54.092,66.477 50.954,65.417 49.829,66.358 
			49.646,66.965 47.269,66.298 47.393,63.74 46.266,63.282 45.534,62.307 44.258,62.73 42.001,59.567 42.461,56.917 33.935,56.976 
			34.48,59.897 33.935,62.034 30.25,60.965 28.94,67.299 27.204,67.115 26.931,68.583 25.348,67.939 24.798,68.941 25.164,70.559 
			24.161,71.623 23.947,78.808 22.635,83.2 22.635,86.087 24.281,87.581 24.461,89.347 27.082,89.377 28.513,91.259 29.638,92.392 
			32.775,91.752 32.961,94.433 34.631,94.398 34.879,95.589 36.279,95.498 36.125,93.701 36.765,93.246 36.708,91.661 
			37.614,91.327 37.798,90.686 37.013,89.467 37.158,87.397 38.229,86.609 39.508,86.543 40.691,87.581 47.667,87.547 
			47.513,80.638 54.941,80.73 55.004,82.828 56.192,82.742 56.312,84.079 59.237,84.045 59.176,77.471 		"/>
		<polygon fill="none" stroke="#498C9B" stroke-width="0.5" points="95.625,145.191 96.629,143.91 97.209,141.63 97.33,140.315 
			97.146,139.193 95.563,136.911 93.645,135.051 91.633,133.806 90.813,134.626 89.625,135.051 87.892,134.929 87.313,134.228 
			87.435,131.186 84.326,128.564 84.021,127.618 84.965,126.307 84.848,124.055 83.385,121.623 82.379,119.063 78.575,120.801 
			77.477,121.593 74.584,119.337 73.092,119.918 72.941,122.598 72.175,125.887 70.17,129.262 81.372,139.004 86.764,145.126 		"/>
		<polygon fill="none" stroke="#498C9B" stroke-width="0.5" points="95.625,145.191 96.658,147.106 97.816,148.788 99.31,150.514 
			100.283,150.914 102.688,150.307 104.608,150.58 105.154,151.184 107.316,152.559 108.656,154.172 108.564,157.061 
			108.963,157.886 110.088,157.917 109.938,159.014 111.978,161.754 113.771,161.754 115.903,166.78 116.941,166.962 
			116.789,167.999 115.813,169.305 116.789,170.13 116.873,172.139 119.19,172.776 119.19,173.39 152.961,174.052 157.039,145.832 
					"/>
		<polygon fill="none" stroke="#498C9B" stroke-width="0.5" points="119.16,173.444 152.989,174.028 149.277,199.058 
			146.353,197.565 144.406,195.616 141.604,194.886 140.779,194.973 141.178,196.621 139.715,197.866 137.797,197.866 
			135.058,196.741 134.357,195.976 133.869,194.793 132.924,193.701 130.883,192.146 130.767,190.53 126.133,187.605 
			124.855,187.605 124.308,186.935 124.004,185.54 123.73,184.833 122.574,184.103 121.324,184.897 116.728,182.493 
			116.482,181.667 116.815,179.69 115.78,178.714 115.66,176.795 116.91,175.728 118.824,176.371 119.347,175.424 		"/>
		<polygon fill="none" stroke="#498C9B" stroke-width="0.5" points="117.211,229.019 129.424,228.925 129.696,209.984 
			122.482,209.774 122.6,198.354 120.713,198.111 120.713,195.769 119.438,195.309 119.254,194.458 114.351,194.397 
			114.351,189.609 91.271,189.677 92.672,192.6 93.584,193.701 94.191,192.966 96.629,194.914 97.209,195.952 97.36,196.922 
			98.362,198.692 98.029,200.031 100.037,202.525 101.379,203.656 102.051,205.385 102.75,204.93 103.847,207.613 104.701,207.52 
			105.248,207.671 105.31,208.437 105.885,209.165 107.403,209.078 107.832,210.079 107.19,210.93 108.107,212.177 108.08,214.22 
			108.441,215.62 109.176,216.441 110.395,217.566 112.404,220.643 112.646,222.257 111.978,223.841 112.434,224.508 
			112.281,226.155 113.254,226.828 114.383,226.828 114.928,226.155 117,228.347 		"/>
		<polygon fill="none" stroke="#498C9B" stroke-width="0.5" points="78.756,156.606 80.188,156.304 80.946,155.333 81.006,154.877 
			82.227,154.114 85.242,156.916 85.242,157.616 84.48,157.949 84.537,158.683 86.641,158.616 86.793,160.355 95.41,160.477 
			95.717,166.962 99.402,167.175 99.402,169.73 102.383,169.73 102.326,174.454 107.685,174.729 108.809,173.293 119.226,173.358 
			119.19,172.837 116.873,172.076 116.789,170.156 115.842,169.305 116.789,168.03 116.91,166.899 115.903,166.745 113.771,161.785 
			111.978,161.754 109.967,159.046 110.088,157.917 108.93,157.917 108.564,157.002 108.656,154.172 107.349,152.592 
			105.154,151.222 104.608,150.549 102.688,150.246 100.344,150.914 99.31,150.489 97.787,148.72 96.658,147.106 95.625,145.191 
			86.731,145.1 81.402,139.041 81.25,142.603 80.4,142.942 79.607,142.055 78.447,141.201 78.055,141.201 77.538,141.75 
			77.567,144.035 76.805,144.49 75.68,145.251 74.92,146.439 73.7,149.119 73.275,149.395 72.209,148.45 70.959,148.053 
			69.683,148.205 67.336,149.912 67.458,150.914 67.793,151.184 68.587,151.342 69.191,151.521 69.013,152.313 69.256,153.043 
			70.077,153.382 70.29,155.937 72.148,157.705 76.748,159.286 77.625,159.471 77.872,157.459 		"/>
		<polygon fill="none" stroke="#498C9B" stroke-width="0.5" points="35.029,205.784 35.366,179.08 35.487,172.443 38.497,172.382 
			38.924,167.205 34.879,167.142 34.665,163.734 30.948,163.643 30.826,158.65 32.534,158.683 34.025,152.467 32.411,152.042 
			33.813,148.205 34.693,148.144 35.759,149.057 36.522,149.236 37.741,149.427 37.833,148.205 37.281,146.986 37.225,146.105 
			32.87,146.04 32.933,143.91 35.366,143.823 35.975,138.431 24.646,135.481 23.396,137.181 20.594,136.485 18.954,140.043 
			16.212,139.982 15.209,141.933 7.291,142.147 7.808,151.865 5.979,158.65 4.704,158.403 4.063,162.458 5.736,162.82 5.859,165.59 
			13.837,167.787 14.538,169.28 15.788,170.739 18.04,171.624 18.924,172.991 18.618,175.914 18.737,177.708 19.714,179.873 
			21.236,184.103 21.603,190.71 22.694,192.905 24.099,193.179 24.677,193.787 24.707,194.639 23.247,194.674 22.148,195.739 
			22.12,197.32 23.154,198.719 23.247,199.605 24.588,200.395 25.014,201.643 24.313,203.228 23.216,204.505 23.432,208.555 		"/>
		<g>
			<polygon fill="none" stroke="#498C9B" stroke-width="0.5" points="69.467,176.339 70.047,176.339 70.473,175.886 71.083,176.217 
				71.752,175.278 72.638,174.664 73.21,175.121 73.82,175.156 74.187,174.544 74.523,174.512 74.855,175.092 75.163,175.061 
				75.62,174.757 76.078,174.787 76.748,175.366 77.322,174.849 78.176,175.366 77.961,176.648 78.969,177.286 79.062,177.985 
				80.214,179.235 81.314,178.781 81.647,179.171 81.129,179.811 81.463,180.424 83.688,180.424 84.875,179.781 84.998,182.158 
				86.215,183.957 86.98,184.413 87.346,184.472 88.074,184.959 88.955,185.05 89.931,186.175 89.051,186.968 90.504,188.213 
				91.271,189.736 92.638,192.63 93.556,193.701 94.191,192.934 96.597,194.973 97.234,195.952 97.301,196.922 98.362,198.719 
				97.972,199.964 100.101,202.589 101.379,203.714 101.99,205.482 102.75,204.87 103.816,207.642 104.666,207.52 105.217,207.671 
				105.31,208.402 105.854,209.197 107.349,209.105 107.805,210.105 107.166,210.901 108.14,212.149 108.047,214.249 
				108.476,215.557 109.084,216.322 110.395,217.541 112.494,220.676 92.638,217.206 92.638,211.934 88.469,208.979 88.406,207.583 
				84.875,207.152 83.441,206.79 82.499,205.815 82.41,203.165 81.162,201.951 79.396,201.155 77.388,200.976 77.23,200.123 
				76.261,199.938 69.561,188.249 			"/>
			<polygon fill="none" stroke="#498C9B" stroke-width="0.5" points="44.802,10.269 47.088,10.117 48.183,11.514 55.556,12.886 
				56.04,10.301 59.665,10.514 59.877,11.669 62.678,17.418 62.281,18.584 64.292,21.414 66.151,23.295 67.428,22.967 
				68.064,24.001 68.736,26.282 68.799,30.275 67.579,31.187 67.213,32.922 65.967,36.028 66.421,38.555 67.064,39.747 
				68.708,42.177 68.799,43.189 70.106,43.488 70.138,44.861 71.6,47.266 72.543,49.73 73.123,52.436 73.243,53.808 67.336,53.721 
				65.997,56.858 65.51,60.45 65.48,63.035 63.439,63.035 62.008,65.657 62.008,68.365 58.232,68.397 58.292,66.694 54.092,66.444 
				50.863,65.384 49.829,66.358 49.583,66.965 47.269,66.444 47.454,63.74 46.356,63.282 45.476,62.307 44.286,62.762 
				43.224,61.482 41.976,59.598 42.396,57.011 33.813,56.976 33.507,52.688 33.081,50.007 34.301,48.358 33.719,45.104 
				35.759,43.918 35.788,41.085 34.972,39.011 35.487,37.395 37.347,34.721 38.775,33.074 40.051,29.606 38.924,29.024 			"/>
			<polygon fill="none" stroke="#498C9B" stroke-width="0.5" points="67.122,39.681 159.354,39.985 159.66,68.337 124.551,67.27 
				124.336,69.434 113.226,69.434 112.646,68.365 105.945,68.244 105.582,67.087 92.246,67.179 91.06,65.927 84.48,66.022 
				84.418,72.964 77.748,73.056 77.625,74.761 70.35,74.548 70.047,70.622 70.808,69.708 70.931,66.875 70.318,66.358 
				70.808,65.628 70.655,64.225 69.926,62.83 70.047,58.195 70.898,56.858 72.27,57.039 72.818,56.004 73.156,54.725 73.275,53.781 
				73.092,52.502 72.48,49.794 71.661,47.266 70.106,44.861 70.106,43.488 68.648,43.189 68.736,42.209 			"/>
			<polygon fill="none" stroke="#498C9B" stroke-width="0.5" points="92.273,113.767 96.359,115.538 97.756,115.044 98.912,116.053 
				108.233,116.294 108.26,118.971 117.184,119.091 118.127,117.879 122.023,117.908 123.303,119.25 136.211,119.429 
				136.244,117.786 159.901,118.211 159.631,68.302 124.611,67.27 124.308,69.372 113.19,69.434 112.617,68.397 105.945,68.244 
				105.461,67.052 92.154,67.179 92.06,69.554 93.002,70.804 93.039,72.052 92.094,72.843 92.094,76.525 91.36,77.775 
				91.481,78.626 92.638,78.998 93.097,81.247 92.127,82.402 92.213,83.743 93.158,84.872 93.279,86.482 92.58,87.547 
				92.826,89.134 92.06,90.111 92.551,91.049 91.789,92.419 91.789,93.091 93.92,93.182 93.98,98.178 92.611,100.06 92.58,103.873 
				93.735,104.234 94.806,105.245 94.039,108.62 94.076,110.083 			"/>
			<polygon fill="none" stroke="#498C9B" stroke-width="0.5" points="77.625,74.761 77.783,73.084 84.449,72.992 84.51,66.085 
				91.088,66.022 92.246,67.179 92.029,69.497 93.039,70.833 92.976,72.081 92.094,72.906 92.06,76.558 91.394,77.803 
				91.514,78.626 92.701,79.053 93.097,81.187 92.094,82.402 92.213,83.743 93.158,84.841 93.279,86.515 92.638,87.547 
				92.826,89.191 92.06,90.135 92.551,91.023 91.816,92.364 91.847,93.091 93.98,93.246 93.98,98.24 92.58,100.093 92.58,103.899 
				93.856,104.267 94.806,105.245 94.039,108.557 94.076,110.111 92.338,113.735 91.002,114.13 91.002,115.9 86.367,116.018 
				82.499,116.783 81.497,116.806 82.379,119.063 78.575,120.771 77.447,121.56 74.584,119.368 73.092,119.918 72.972,115.835 
				70.23,115.773 69.683,115.199 65.389,115.106 65.452,112.153 63.103,110.294 61.671,110.294 60.7,109.534 58.536,106.247 
				59.572,104.813 60.544,98.027 63.472,98.263 63.529,95.802 64.2,94.094 63.014,93.424 61.827,92.903 61.154,91.932 
				61.188,90.627 61.671,88.918 61.128,88.126 59.906,87.424 59.117,86.118 56.467,86.208 55.37,85.88 55.4,84.96 56.288,84.657 
				56.312,84.045 59.329,83.988 59.176,77.528 56.741,77.563 56.892,73.906 61.459,74.091 61.459,75.496 64.23,75.459 64.84,74.548 
							"/>
			<polygon fill="none" stroke="#498C9B" stroke-width="0.5" points="34.665,113.034 37.587,107.619 37.525,104.843 36.033,103.263 
				32.563,102.68 30.857,100.003 29.853,99.79 29.612,92.419 28.513,91.235 27.145,89.497 24.461,89.347 24.34,87.613 
				22.694,86.087 21.357,86.457 20.23,88.889 19.5,89.864 18.803,93.637 15.695,95.956 13.93,95.894 13.352,97.415 13.716,99.608 
				13.438,101.285 12.25,102.897 12.922,103.993 13.59,103.993 13.93,103.686 14.661,103.686 15.39,104.963 15.39,105.667 
				14.785,106.793 14.108,106.765 13.623,106.395 12.982,107.22 12.103,109.014 13.352,111.697 14.203,114.193 15.269,113.614 
				15.876,112.153 17.61,112.089 18.283,113.034 21.053,110.934 21.175,113.186 22.519,113.339 23.577,111.121 25.406,111.087 
				26.627,112.153 29.486,110.63 30.736,110.816 			"/>
			<polygon fill="none" stroke="#498C9B" stroke-width="0.5" points="81.463,116.844 82.499,116.783 84.783,116.352 86.367,116.018 
				91.025,115.931 91.025,114.13 92.308,113.797 96.326,115.502 97.787,115.044 98.976,116.018 108.233,116.294 108.233,119.004 
				117.153,119.063 118.155,117.879 122.053,117.908 123.332,119.25 136.244,119.49 136.308,117.818 159.937,118.148 
				159.873,126.433 157.01,145.861 95.625,145.16 96.629,143.91 97.209,141.721 97.33,140.353 97.181,139.193 95.533,136.877 
				93.705,135.083 91.633,133.806 90.813,134.626 89.654,135.016 87.892,134.9 87.346,134.257 87.4,131.151 84.326,128.564 
				84.021,127.649 84.965,126.28 84.813,124.03 83.385,121.56 			"/>
			<polygon fill="none" stroke="#498C9B" stroke-width="0.5" points="108.776,189.59 109.025,178.226 102.233,178.138 
				102.383,169.73 99.43,169.73 99.402,167.205 95.717,166.932 95.41,160.477 86.824,160.328 86.676,158.65 84.571,158.683 
				84.51,157.949 85.242,157.583 85.242,156.884 82.227,154.114 81.006,154.877 80.946,155.302 80.214,156.304 78.787,156.606 
				77.842,157.432 77.567,160.046 77.23,160.721 77.265,161.27 76.748,161.601 75.497,163.151 74.552,165.408 74.523,167.452 
				71.72,169.825 73.06,173.479 71.112,174.544 69.441,175.914 69.467,176.4 70.077,176.309 70.473,175.854 71.05,176.193 
				71.786,175.247 72.638,174.664 73.187,175.156 73.852,175.156 74.158,174.574 74.523,174.544 74.855,175.061 75.163,175.034 
				75.585,174.757 76.042,174.787 76.715,175.366 77.265,174.849 78.176,175.366 77.961,176.674 79.001,177.286 79.09,178.014 
				80.188,179.199 81.285,178.744 81.681,179.199 81.162,179.781 81.437,180.389 83.717,180.389 84.848,179.781 85.03,182.25 
				86.246,183.923 86.946,184.413 87.313,184.472 88.043,184.959 88.896,185.015 89.959,186.175 89.019,186.968 90.48,188.213 
				91.24,189.677 93.705,189.649 			"/>
			<polygon fill="none" stroke="#498C9B" stroke-width="0.5" points="69.651,148.236 70.898,148.085 72.209,148.45 73.275,149.364 
				73.67,149.145 74.92,146.405 75.709,145.281 76.805,144.459 77.567,144.122 77.567,141.75 78.025,141.173 78.447,141.173 
				79.636,142.083 80.37,142.967 81.25,142.665 81.402,139.041 70.17,129.262 61.154,126.887 60.7,128.959 57.866,128.807 
				54.61,126.738 52.719,127.227 53.329,129.021 53.667,131.034 54.398,133.164 54.549,136.238 54.305,137.302 53.301,138.001 
				53.301,138.518 54.029,139.283 54.029,140.134 53.543,140.473 53.36,142.635 53.877,142.942 53.45,143.513 53.817,143.94 
				54.52,144.035 54.885,142.876 55.249,142.998 55.068,143.91 55.734,144.338 56.377,143.484 58.292,145.675 59.022,145.861 
				60.001,146.772 63.256,147.715 64.537,147.564 65.601,148.144 66.088,148.329 67.366,149.884 			"/>
			<polygon fill="none" stroke="#498C9B" stroke-width="0.5" points="52.752,127.192 53.36,129.052 53.632,130.938 54.398,133.195 
				54.549,136.238 54.336,137.244 53.301,138.001 53.301,138.553 53.998,139.252 54.029,140.134 47.211,144.402 39.934,144.303 
				38.775,145.832 38.195,146.105 32.834,145.984 32.933,143.91 35.366,143.85 35.941,138.402 36.522,138.035 37.068,135.746 
				38.107,134.866 39.109,134.748 39.381,132.764 45.111,133.679 48.183,127.287 52.232,127.258 52.266,126.982 			"/>
			<polygon fill="none" stroke="#498C9B" stroke-width="0.5" points="25.406,111.087 26.627,112.186 29.486,110.599 30.797,110.816 
				34.665,113.034 37.652,107.524 38.924,108.314 39.415,109.566 40.084,110.447 41.243,110.903 41.941,112.458 43.008,113.16 
				44.258,114.98 45.138,115.257 46.48,116.324 48.61,118.641 49.344,119.337 50.286,120.314 51.29,122.87 52.507,123.908 
				52.266,127.258 48.153,127.287 45.138,133.711 39.381,132.764 39.109,134.748 38.075,134.866 37.068,135.746 36.522,138.063 
				35.975,138.402 32.687,137.485 33.993,125.335 31.56,125.28 31.592,123.512 30.736,123.022 27.297,122.687 26.349,122.266 
				26.564,120.897 26.2,120.376 25.56,120.285 25.226,119.765 25.59,119.158 25.59,118.608 24.918,117.966 			"/>
			<polygon fill="none" stroke="#498C9B" stroke-width="0.5" points="14.812,115.228 14.145,114.13 15.301,113.614 15.909,112.089 
				17.584,112.059 18.251,113.034 21.053,110.962 21.175,113.186 22.519,113.373 23.577,111.121 25.406,111.121 24.891,118.031 
				25.59,118.575 25.59,119.19 25.226,119.798 25.56,120.254 26.229,120.376 26.564,120.921 26.349,122.266 27.327,122.687 
				30.767,123.022 31.592,123.512 31.56,125.28 33.993,125.335 32.687,137.485 24.616,135.508 23.396,137.181 20.566,136.542 
				18.98,140.043 16.212,140.016 15.209,141.933 7.318,142.055 7.141,139.464 4.818,129.939 5.037,125.95 6.135,125.215 
				6.438,122.54 7.534,122.143 8.355,122.777 9.087,123.751 11.433,122.931 13.472,118.091 12.463,116.996 13.438,115.9 			"/>
			<polygon fill="none" stroke="#498C9B" stroke-width="0.5" points="55.522,152.924 56.377,152.134 64.476,147.537 65.54,148.115 
				66.088,148.329 67.336,149.822 67.428,150.827 67.826,151.184 69.191,151.521 69.043,152.313 69.286,153.019 70.106,153.409 
				70.29,155.877 72.175,157.705 76.652,159.258 77.66,159.436 77.567,160.114 77.265,160.721 77.23,161.298 76.748,161.601 
				75.497,163.218 74.523,165.408 74.493,167.452 71.72,169.825 73.06,173.444 71.05,174.574 69.404,175.914 67.978,174.969 
				66.788,174.757 64.994,173.39 65.208,172.26 63.167,172.199 60.881,170.831 59.938,169.552 59.117,169.122 58.322,170.282 
				57.042,170.282 55.461,171.01 54.913,170.677 53.729,169.34 51.866,168.514 50.286,168.369 48.764,166.015 48.73,164.953 
				48.55,164.402 48.822,163.126 51.411,160.781 51.411,159.775 51.108,158.988 53.301,158.83 53.969,158.252 53.969,157.705 			"/>
			<polygon fill="none" stroke="#498C9B" stroke-width="0.5" points="48.764,166.113 48.73,164.982 48.55,164.436 48.822,163.091 
				51.38,160.843 51.441,159.806 51.138,158.988 53.27,158.83 53.969,158.252 53.938,157.736 55.493,152.924 56.312,152.134 
				64.504,147.564 63.256,147.687 61.459,147.17 59.938,146.682 58.934,145.832 58.232,145.649 56.344,143.455 55.706,144.367 
				55.034,143.881 55.249,142.967 54.885,142.876 54.549,144.067 53.755,143.94 53.42,143.545 53.906,142.876 53.36,142.665 
				53.543,140.473 47.211,144.367 39.963,144.28 38.807,145.801 38.254,146.105 37.225,146.075 37.254,146.96 37.833,148.144 
				37.741,149.427 36.583,149.303 35.788,149.057 34.665,148.115 33.847,148.172 32.442,152.01 33.993,152.5 32.502,158.683 
				30.857,158.65 30.948,163.613 34.665,163.734 34.879,167.175 38.924,167.236 38.497,172.412 35.546,172.472 35.397,179.08 
				48.034,179.171 49.951,171.776 50.315,168.392 			"/>
			<polygon fill="none" stroke="#498C9B" stroke-width="0.5" points="34.998,205.85 35.366,179.08 48.034,179.143 49.979,171.776 
				50.315,168.392 51.866,168.545 53.632,169.305 54.425,170.13 54.941,170.677 55.461,171.01 57.042,170.282 58.292,170.282 
				59.117,169.122 59.938,169.552 60.849,170.797 63.167,172.199 65.208,172.26 64.994,173.324 66.76,174.757 67.943,174.941 
				69.441,175.914 69.561,188.31 76.288,199.938 77.23,200.123 77.388,200.976 79.306,201.125 81.129,201.922 82.41,203.165 
				82.533,205.85 83.385,206.73 84.848,207.187 88.406,207.583 88.469,208.979 92.638,211.874 92.672,217.262 84.39,215.837 
				84.361,214.585 83.688,214.617 83.869,211.999 82.441,211.722 77.722,212.789 74.769,212.699 73.852,212.055 73.123,210.749 
				69.377,210.079 71.083,208.285 68.861,207.732 67.731,208.13 65.667,211.052 61.917,210.627 60.243,205.756 48.338,202.744 			
				"/>
		</g>
		<polygon fill="none" stroke="#498C9B" stroke-width="0.5" points="115.66,176.826 115.813,178.714 116.846,179.719 
			116.482,181.64 116.728,182.463 121.445,184.805 122.574,184.078 123.791,184.863 124.365,186.935 124.947,187.667 
			126.229,187.635 130.824,190.59 130.944,192.114 132.953,193.727 133.934,194.733 134.449,196.043 135.115,196.71 
			137.953,197.837 139.775,197.808 141.178,196.594 140.779,195.005 141.635,194.828 144.527,195.672 146.353,197.594 
			149.308,199.058 147.356,212.454 129.668,212.515 129.696,209.984 122.513,209.774 122.633,198.354 120.683,198.141 
			120.713,195.769 119.405,195.309 119.254,194.458 114.351,194.364 114.351,189.609 108.776,189.59 109.025,178.226 
			102.233,178.169 102.326,174.42 107.713,174.729 108.869,173.293 119.133,173.479 119.316,175.458 118.824,176.371 
			116.941,175.728 		"/>
	</g>
</g>
</svg>
