<?xml version="1.0" encoding="utf-8"?>
<!-- Generator: Adobe Illustrator 16.0.0, SVG Export Plug-In . SVG Version: 6.00 Build 0)  -->
<!DOCTYPE svg PUBLIC "-//W3C//DTD SVG 1.1//EN" "http://www.w3.org/Graphics/SVG/1.1/DTD/svg11.dtd">
<svg version="1.1" id="Capa_1" xmlns="http://www.w3.org/2000/svg" xmlns:xlink="http://www.w3.org/1999/xlink" x="0px" y="0px"
	 width="164px" height="262.667px" viewBox="504 -1050.167 164 262.667" enable-background="new 504 -1050.167 164 262.667"
	 xml:space="preserve">
<g>
	<polygon fill="none" stroke="#498C9B" stroke-width="0.5" points="636.084,-834.46 653.772,-834.579 647.622,-793.047 
		645.887,-800.384 630.419,-800.507 628.957,-803.427 628.531,-804.403 628.223,-805.315 627.984,-807.659 628.285,-809.155 
		629.015,-810.28 629.719,-811.192 629.873,-811.71 629.292,-812.206 629.111,-812.749 628.957,-813.874 628.073,-814.663 
		626.186,-814.754 625.486,-815.245 624.694,-815.701 624.148,-815.575 623.507,-815.64 623.69,-817.892 635.84,-818.078 	"/>
	<polygon fill="none" stroke="#498C9B" stroke-width="0.5" points="566.11,-1036.547 566.262,-1035.391 569.031,-1029.642 
		568.697,-1028.332 570.586,-1025.589 572.598,-1023.671 573.813,-1023.944 574.456,-1023.002 575.152,-1020.719 575.215,-1016.788 
		573.994,-1015.877 573.569,-1013.807 572.383,-1011.034 572.442,-1009.818 572.746,-1008.567 573.416,-1007.375 665.77,-1007.015 
		665.225,-1037.74 589.615,-1038.288 587.757,-1035.362 582.035,-1035.362 576.369,-1036.672 	"/>
	<polygon fill="none" stroke="#498C9B" stroke-width="0.5" points="563.217,-969.502 563.307,-973.065 567.845,-972.884 
		567.936,-971.477 570.615,-971.542 571.197,-972.455 576.801,-972.394 576.463,-976.294 577.254,-977.207 577.346,-980.008 
		576.705,-980.704 577.223,-981.373 576.977,-982.929 576.248,-984.297 576.404,-988.774 577.346,-990.176 578.625,-989.991 
		579.293,-990.998 579.753,-993.22 573.664,-993.281 572.442,-990.143 571.926,-986.706 571.896,-983.933 569.822,-983.902 
		568.485,-981.373 568.512,-978.604 564.707,-978.637 564.738,-980.339 560.508,-980.525 557.369,-981.584 556.244,-980.643 
		556.062,-980.035 553.684,-980.704 553.808,-983.264 552.681,-983.72 551.949,-984.696 550.674,-984.271 548.417,-987.435 
		548.877,-990.084 540.35,-990.025 540.896,-987.104 540.35,-984.968 536.666,-986.038 535.356,-979.702 533.619,-979.888 
		533.346,-978.42 531.763,-979.062 531.214,-978.061 531.579,-976.441 530.576,-975.379 530.363,-968.192 529.051,-963.804 
		529.051,-960.916 530.697,-959.421 530.877,-957.655 533.497,-957.625 534.928,-955.741 536.053,-954.609 539.191,-955.25 
		539.377,-952.57 541.047,-952.603 541.295,-951.411 542.695,-951.505 542.54,-953.303 543.18,-953.757 543.123,-955.34 
		544.03,-955.675 544.214,-956.315 543.428,-957.534 543.573,-959.605 544.644,-960.394 545.924,-960.459 547.107,-959.421 
		554.082,-959.453 553.928,-966.365 561.357,-966.273 561.42,-964.173 562.608,-964.26 562.727,-962.923 565.653,-962.955 
		565.592,-969.529 	"/>
	<polygon fill="none" stroke="#498C9B" stroke-width="0.5" points="602.041,-901.811 603.045,-903.093 603.625,-905.372 
		603.745,-906.687 603.562,-907.809 601.979,-910.092 600.06,-911.951 598.049,-913.196 597.229,-912.375 596.041,-911.951 
		594.307,-912.071 593.729,-912.774 593.85,-915.817 590.741,-918.438 590.438,-919.384 591.381,-920.695 591.263,-922.947 
		589.8,-925.381 588.795,-927.937 584.99,-926.202 583.892,-925.408 581,-927.665 579.508,-927.083 579.357,-924.404 
		578.591,-921.115 576.586,-917.738 587.787,-907.998 593.179,-901.875 	"/>
	<polygon fill="none" stroke="#498C9B" stroke-width="0.5" points="602.041,-901.811 603.074,-899.895 604.232,-898.215 
		605.725,-896.487 606.699,-896.089 609.104,-896.695 611.024,-896.422 611.57,-895.816 613.732,-894.443 615.072,-892.829 
		614.98,-889.939 615.378,-889.114 616.503,-889.085 616.354,-887.987 618.393,-885.248 620.186,-885.248 622.319,-880.223 
		623.357,-880.04 623.205,-879.003 622.228,-877.698 623.205,-876.873 623.289,-874.862 625.606,-874.225 625.606,-873.612 
		659.376,-872.949 663.455,-901.169 	"/>
	<polygon fill="none" stroke="#498C9B" stroke-width="0.5" points="625.575,-873.556 659.405,-872.975 655.693,-847.945 
		652.768,-849.436 650.822,-851.386 648.019,-852.115 647.195,-852.028 647.594,-850.382 646.131,-849.137 644.212,-849.137 
		641.473,-850.261 640.773,-851.024 640.285,-852.209 639.34,-853.302 637.298,-854.857 637.182,-856.471 632.548,-859.397 
		631.271,-859.397 630.723,-860.065 630.419,-861.462 630.146,-862.169 628.99,-862.899 627.74,-862.105 623.143,-864.508 
		622.898,-865.333 623.231,-867.313 622.196,-868.288 622.076,-870.207 623.326,-871.273 625.24,-870.631 625.762,-871.578 	"/>
	<polygon fill="none" stroke="#498C9B" stroke-width="0.5" points="623.627,-817.984 635.84,-818.078 636.112,-837.016 
		628.898,-837.229 629.015,-848.647 627.129,-848.891 627.129,-851.232 625.853,-851.693 625.67,-852.544 620.766,-852.605 
		620.766,-857.391 597.686,-857.326 599.087,-854.401 600,-853.302 600.607,-854.037 603.045,-852.088 603.625,-851.05 
		603.776,-850.078 604.778,-848.309 604.445,-846.972 606.453,-844.476 607.795,-843.347 608.466,-841.617 609.166,-842.073 
		610.262,-839.391 611.116,-839.48 611.664,-839.331 611.725,-838.566 612.301,-837.836 613.819,-837.923 614.248,-836.924 
		613.606,-836.07 614.523,-834.825 614.495,-832.781 614.857,-831.383 615.591,-830.56 616.81,-829.435 618.82,-826.358 
		619.061,-824.744 618.393,-823.161 618.849,-822.492 618.697,-820.846 619.67,-820.175 620.799,-820.175 621.344,-820.846 
		623.415,-818.655 	"/>
	<polygon fill="none" stroke="#498C9B" stroke-width="0.5" points="585.172,-890.396 586.604,-890.697 587.362,-891.669 
		587.422,-892.126 588.642,-892.889 591.658,-890.086 591.658,-889.386 590.896,-889.053 590.953,-888.32 593.056,-888.385 
		593.208,-886.645 601.826,-886.524 602.133,-880.04 605.818,-879.827 605.818,-877.271 608.799,-877.271 608.741,-872.547 
		614.1,-872.273 615.224,-873.708 625.641,-873.643 625.606,-874.165 623.289,-874.927 623.205,-876.846 622.257,-877.698 
		623.205,-878.972 623.326,-880.102 622.319,-880.256 620.186,-885.218 618.393,-885.248 616.383,-887.956 616.503,-889.085 
		615.345,-889.085 614.98,-890 615.072,-892.829 613.764,-894.41 611.57,-895.78 611.024,-896.454 609.104,-896.757 
		606.76,-896.089 605.725,-896.514 604.203,-898.281 603.074,-899.895 602.041,-901.811 593.147,-901.903 587.818,-907.961 
		587.665,-904.399 586.816,-904.058 586.023,-904.947 584.863,-905.801 584.47,-905.801 583.953,-905.253 583.983,-902.967 
		583.22,-902.514 582.095,-901.751 581.336,-900.564 580.115,-897.884 579.691,-897.607 578.625,-898.553 577.375,-898.949 
		576.098,-898.797 573.752,-897.09 573.873,-896.089 574.209,-895.816 575.003,-895.66 575.607,-895.481 575.428,-894.689 
		575.672,-893.958 576.492,-893.62 576.705,-891.064 578.564,-889.297 583.163,-887.716 584.04,-887.531 584.287,-889.543 	"/>
	<polygon fill="none" stroke="#498C9B" stroke-width="0.5" points="555.026,-928.362 559.593,-932.234 560.72,-931.135 
		563.644,-931.683 566.172,-931.5 567.449,-934.391 568.087,-935.001 570.98,-935.518 571.836,-934.876 571.804,-931.896 
		576.189,-931.804 576.646,-931.227 579.387,-931.135 579.475,-927.083 579.357,-924.375 578.591,-921.115 576.586,-917.738 
		567.57,-920.082 567.148,-918.074 564.281,-918.225 561.026,-920.234 559.135,-919.809 558.711,-919.96 558.951,-923.065 
		557.705,-924.158 556.731,-926.6 	"/>
	<polygon fill="#8FD0DF" stroke="#498C9B" stroke-width="0.5" points="541.445,-841.218 541.781,-867.923 541.903,-874.558 
		544.912,-874.621 545.34,-879.798 541.295,-879.861 541.08,-883.268 537.364,-883.36 537.241,-888.351 538.949,-888.32 
		540.441,-894.535 538.826,-894.959 540.229,-898.797 541.109,-898.857 542.175,-897.945 542.938,-897.764 544.156,-897.576 
		544.248,-898.797 543.697,-900.016 543.64,-900.897 539.285,-900.961 539.348,-903.093 541.781,-903.18 542.39,-908.569 
		531.063,-911.521 529.813,-909.819 527.01,-910.517 525.369,-906.959 522.628,-907.02 521.625,-905.067 513.706,-904.855 
		514.223,-895.138 512.395,-888.351 511.119,-888.597 510.479,-884.545 512.152,-884.181 512.275,-881.413 520.253,-879.216 
		520.953,-877.722 522.203,-876.264 524.455,-875.378 525.34,-874.013 525.033,-871.087 525.153,-869.294 526.13,-867.129 
		527.652,-862.899 528.018,-856.292 529.11,-854.096 530.514,-853.824 531.093,-853.215 531.122,-852.361 529.662,-852.328 
		528.564,-851.263 528.535,-849.68 529.57,-848.283 529.662,-847.397 531.004,-846.608 531.429,-845.357 530.729,-843.774 
		529.632,-842.498 529.847,-838.445 	"/>
	<polygon fill="none" stroke="#498C9B" stroke-width="0.5" points="575.883,-870.663 576.463,-870.663 576.888,-871.117 
		577.498,-870.784 578.168,-871.722 579.053,-872.337 579.626,-871.881 580.236,-871.848 580.602,-872.458 580.939,-872.49 
		581.271,-871.908 581.578,-871.942 582.035,-872.246 582.493,-872.214 583.163,-871.638 583.738,-872.155 584.592,-871.638 
		584.377,-870.354 585.385,-869.716 585.477,-869.017 586.63,-867.767 587.73,-868.223 588.063,-867.832 587.545,-867.19 
		587.879,-866.58 590.104,-866.58 591.291,-867.221 591.414,-864.846 592.631,-863.045 593.396,-862.589 593.761,-862.53 
		594.489,-862.044 595.37,-861.953 596.346,-860.828 595.467,-860.034 596.92,-858.789 597.686,-857.265 599.053,-854.372 
		599.971,-853.302 600.607,-854.068 603.012,-852.028 603.65,-851.05 603.717,-850.078 604.778,-848.283 604.387,-847.038 
		606.516,-844.412 607.795,-843.287 608.406,-841.52 609.166,-842.133 610.232,-839.36 611.082,-839.48 611.633,-839.331 
		611.725,-838.599 612.27,-837.805 613.764,-837.897 614.22,-836.896 613.582,-836.102 614.555,-834.851 614.463,-832.754 
		614.891,-831.444 615.499,-830.681 616.81,-829.462 618.909,-826.327 599.053,-829.795 599.053,-835.069 594.885,-838.023 
		594.822,-839.42 591.291,-839.85 589.857,-840.211 588.914,-841.187 588.825,-843.839 587.577,-845.053 585.812,-845.847 
		583.803,-846.026 583.646,-846.88 582.677,-847.064 575.976,-858.754 	"/>
	<polygon fill="none" stroke="#498C9B" stroke-width="0.5" points="551.218,-1036.733 553.504,-1036.885 554.598,-1035.488 
		561.971,-1034.117 562.455,-1036.702 566.08,-1036.489 566.293,-1035.331 569.094,-1029.582 568.697,-1028.418 570.707,-1025.589 
		572.567,-1023.705 573.844,-1024.036 574.48,-1023.002 575.152,-1020.719 575.215,-1016.727 573.994,-1015.815 573.629,-1014.08 
		572.383,-1010.974 572.837,-1008.447 573.48,-1007.257 575.123,-1004.824 575.215,-1003.813 576.522,-1003.513 576.553,-1002.14 
		578.015,-999.737 578.959,-997.272 579.538,-994.564 579.658,-993.194 573.752,-993.281 572.412,-990.143 571.926,-986.554 
		571.896,-983.969 569.855,-983.969 568.424,-981.345 568.424,-978.637 564.648,-978.604 564.707,-980.308 560.508,-980.556 
		557.279,-981.619 556.244,-980.643 555.999,-980.035 553.684,-980.556 553.869,-983.264 552.772,-983.72 551.891,-984.696 
		550.701,-984.24 549.639,-985.521 548.391,-987.404 548.813,-989.991 540.229,-990.025 539.923,-994.313 539.496,-996.995 
		540.717,-998.643 540.135,-1001.899 542.175,-1003.083 542.203,-1005.917 541.387,-1007.991 541.903,-1009.605 543.762,-1012.28 
		545.191,-1013.928 546.467,-1017.396 545.34,-1017.978 	"/>
	<polygon fill="none" stroke="#498C9B" stroke-width="0.5" points="573.537,-1007.32 665.77,-1007.015 666.076,-978.665 
		630.967,-979.731 630.752,-977.566 619.641,-977.566 619.061,-978.637 612.361,-978.758 611.997,-979.915 598.662,-979.823 
		597.475,-981.073 590.896,-980.981 590.833,-974.038 584.163,-973.946 584.04,-972.242 576.765,-972.455 576.463,-976.381 
		577.223,-977.295 577.346,-980.126 576.734,-980.643 577.223,-981.373 577.071,-982.777 576.342,-984.171 576.463,-988.806 
		577.314,-990.143 578.685,-989.964 579.234,-990.998 579.572,-992.276 579.691,-993.22 579.508,-994.5 578.896,-997.208 
		578.076,-999.737 576.522,-1002.14 576.522,-1003.513 575.064,-1003.813 575.152,-1004.792 	"/>
	<polygon fill="none" stroke="#498C9B" stroke-width="0.5" points="598.689,-933.235 602.775,-931.466 604.172,-931.956 
		605.328,-930.95 614.649,-930.706 614.676,-928.029 623.599,-927.911 624.542,-929.123 628.439,-929.096 629.719,-927.754 
		642.627,-927.573 642.66,-929.216 666.317,-928.792 666.047,-978.698 631.027,-979.731 630.723,-977.631 619.606,-977.566 
		619.032,-978.604 612.361,-978.758 611.876,-979.948 598.57,-979.823 598.475,-977.448 599.418,-976.198 599.454,-974.95 
		598.51,-974.159 598.51,-970.478 597.776,-969.225 597.897,-968.375 599.053,-968.006 599.512,-965.757 598.542,-964.598 
		598.629,-963.259 599.574,-962.129 599.695,-960.52 598.996,-959.453 599.242,-957.867 598.475,-956.892 598.967,-955.951 
		598.204,-954.583 598.204,-953.912 600.335,-953.82 600.396,-948.824 599.027,-946.941 598.996,-943.13 600.151,-942.766 
		601.221,-941.759 600.455,-938.383 600.492,-936.92 	"/>
	<polygon fill="none" stroke="#498C9B" stroke-width="0.5" points="584.04,-972.242 584.198,-973.917 590.864,-974.011 
		590.925,-980.916 597.504,-980.981 598.662,-979.823 598.445,-977.505 599.454,-976.168 599.391,-974.923 598.51,-974.098 
		598.475,-970.444 597.809,-969.199 597.929,-968.375 599.116,-967.949 599.512,-965.815 598.51,-964.598 598.629,-963.259 
		599.574,-962.161 599.695,-960.486 599.053,-959.453 599.242,-957.812 598.475,-956.866 598.967,-955.98 598.232,-954.64 
		598.262,-953.912 600.396,-953.757 600.396,-948.763 598.996,-946.91 598.996,-943.104 600.272,-942.735 601.221,-941.759 
		600.455,-938.444 600.492,-936.889 598.754,-933.266 597.417,-932.871 597.417,-931.101 592.783,-930.983 588.914,-930.22 
		587.912,-930.194 588.795,-927.937 584.99,-926.231 583.863,-925.442 581,-927.633 579.508,-927.083 579.387,-931.167 
		576.646,-931.227 576.098,-931.804 571.804,-931.896 571.867,-934.85 569.518,-936.708 568.087,-936.708 567.115,-937.468 
		564.951,-940.755 565.988,-942.189 566.96,-948.976 569.887,-948.737 569.945,-951.199 570.615,-952.908 569.429,-953.576 
		568.242,-954.097 567.57,-955.07 567.604,-956.375 568.087,-958.084 567.544,-958.876 566.322,-959.579 565.532,-960.884 
		562.883,-960.792 561.785,-961.123 561.816,-962.042 562.703,-962.346 562.727,-962.955 565.744,-963.015 565.592,-969.474 
		563.156,-969.437 563.307,-973.096 567.875,-972.911 567.875,-971.505 570.646,-971.542 571.256,-972.455 	"/>
	<polygon fill="none" stroke="#498C9B" stroke-width="0.5" points="541.08,-933.968 544.003,-939.384 543.941,-942.158 
		542.448,-943.739 538.979,-944.32 537.273,-947 536.268,-947.214 536.028,-954.583 534.928,-955.767 533.56,-957.507 
		530.877,-957.655 530.756,-959.39 529.11,-960.916 527.773,-960.546 526.646,-958.111 525.915,-957.138 525.219,-953.364 
		522.111,-951.046 520.345,-951.107 519.767,-949.589 520.132,-947.393 519.854,-945.717 518.666,-944.103 519.338,-943.009 
		520.006,-943.009 520.345,-943.316 521.076,-943.316 521.805,-942.037 521.805,-941.337 521.2,-940.21 520.524,-940.237 
		520.038,-940.606 519.398,-939.781 518.518,-937.987 519.767,-935.306 520.618,-932.81 521.684,-933.387 522.292,-934.85 
		524.026,-934.913 524.698,-933.968 527.469,-936.066 527.591,-933.814 528.934,-933.663 529.992,-935.882 531.822,-935.914 
		533.043,-934.85 535.902,-936.371 537.152,-936.187 	"/>
	<polygon fill="none" stroke="#498C9B" stroke-width="0.5" points="587.879,-930.158 588.914,-930.22 591.199,-930.65 
		592.783,-930.983 597.441,-931.07 597.441,-932.871 598.723,-933.207 602.741,-931.5 604.203,-931.956 605.391,-930.983 
		614.649,-930.706 614.649,-927.998 623.569,-927.937 624.571,-929.123 628.469,-929.096 629.748,-927.754 642.66,-927.512 
		642.723,-929.183 666.352,-928.852 666.288,-920.569 663.426,-901.14 602.041,-901.842 603.045,-903.093 603.625,-905.28 
		603.745,-906.651 603.596,-907.809 601.949,-910.124 600.12,-911.919 598.049,-913.196 597.229,-912.375 596.07,-911.984 
		594.307,-912.102 593.761,-912.745 593.816,-915.851 590.741,-918.438 590.438,-919.353 591.381,-920.721 591.229,-922.973 
		589.8,-925.442 	"/>
	<polygon fill="none" stroke="#498C9B" stroke-width="0.5" points="615.192,-857.411 615.441,-868.776 608.649,-868.865 
		608.799,-877.271 605.845,-877.271 605.818,-879.798 602.133,-880.071 601.826,-886.524 593.239,-886.676 593.092,-888.351 
		590.987,-888.32 590.925,-889.053 591.658,-889.418 591.658,-890.118 588.642,-892.889 587.422,-892.126 587.362,-891.702 
		586.63,-890.697 585.202,-890.396 584.258,-889.57 583.983,-886.954 583.646,-886.281 583.68,-885.733 583.163,-885.4 
		581.912,-883.85 580.968,-881.593 580.939,-879.551 578.136,-877.177 579.475,-873.523 577.528,-872.458 575.857,-871.087 
		575.883,-870.602 576.492,-870.694 576.888,-871.148 577.466,-870.81 578.201,-871.756 579.053,-872.337 579.602,-871.848 
		580.267,-871.848 580.573,-872.427 580.939,-872.458 581.271,-871.942 581.578,-871.968 582.001,-872.246 582.458,-872.214 
		583.131,-871.638 583.68,-872.155 584.592,-871.638 584.377,-870.328 585.417,-869.716 585.506,-868.988 586.604,-867.803 
		587.7,-868.259 588.096,-867.803 587.577,-867.221 587.852,-866.613 590.133,-866.613 591.263,-867.221 591.446,-864.752 
		592.662,-863.08 593.362,-862.589 593.729,-862.53 594.458,-862.044 595.313,-861.986 596.375,-860.828 595.434,-860.034 
		596.896,-858.789 597.656,-857.326 600.12,-857.352 	"/>
	<polygon fill="none" stroke="#498C9B" stroke-width="0.5" points="576.067,-898.765 577.314,-898.917 578.625,-898.553 
		579.691,-897.638 580.086,-897.856 581.336,-900.597 582.125,-901.722 583.22,-902.542 583.983,-902.88 583.983,-905.253 
		584.441,-905.83 584.863,-905.83 586.052,-904.92 586.785,-904.035 587.665,-904.338 587.818,-907.961 576.586,-917.738 
		567.57,-920.113 567.115,-918.042 564.281,-918.194 561.026,-920.265 559.135,-919.775 559.744,-917.982 560.082,-915.969 
		560.814,-913.837 560.965,-910.765 560.72,-909.699 559.717,-909.001 559.717,-908.482 560.445,-907.719 560.445,-906.868 
		559.959,-906.53 559.776,-904.368 560.293,-904.058 559.865,-903.489 560.233,-903.062 560.935,-902.967 561.301,-904.125 
		561.664,-904.005 561.484,-903.093 562.15,-902.664 562.793,-903.518 564.707,-901.327 565.438,-901.14 566.417,-900.228 
		569.672,-899.287 570.952,-899.439 572.016,-898.857 572.504,-898.673 573.781,-897.117 	"/>
	<polygon fill="none" stroke="#498C9B" stroke-width="0.5" points="559.168,-919.809 559.776,-917.948 560.048,-916.063 
		560.814,-913.806 560.965,-910.765 560.752,-909.759 559.717,-909.001 559.717,-908.449 560.413,-907.749 560.445,-906.868 
		553.627,-902.598 546.349,-902.697 545.191,-901.169 544.611,-900.897 539.25,-901.017 539.348,-903.093 541.781,-903.153 
		542.357,-908.6 542.938,-908.967 543.484,-911.255 544.523,-912.136 545.525,-912.254 545.797,-914.236 551.527,-913.322 
		554.598,-919.717 558.648,-919.744 558.681,-920.021 	"/>
	<polygon fill="none" stroke="#498C9B" stroke-width="0.5" points="531.822,-935.914 533.043,-934.816 535.902,-936.404 
		537.213,-936.187 541.08,-933.968 544.068,-939.476 545.34,-938.687 545.83,-937.437 546.5,-936.556 547.658,-936.1 
		548.357,-934.545 549.424,-933.843 550.674,-932.021 551.553,-931.744 552.896,-930.679 555.026,-928.362 555.76,-927.665 
		556.701,-926.687 557.705,-924.131 558.923,-923.093 558.681,-919.744 554.569,-919.717 551.553,-913.29 545.797,-914.236 
		545.525,-912.254 544.49,-912.136 543.484,-911.255 542.938,-908.938 542.39,-908.6 539.102,-909.518 540.408,-921.667 
		537.975,-921.723 538.008,-923.49 537.152,-923.979 533.713,-924.315 532.764,-924.735 532.98,-926.106 532.615,-926.626 
		531.975,-926.718 531.641,-927.238 532.006,-927.846 532.006,-928.394 531.334,-929.036 	"/>
	<polygon fill="#8FD0DF" stroke="#498C9B" stroke-width="0.5" points="521.227,-931.775 520.56,-932.871 521.717,-933.387 
		522.324,-934.913 524,-934.941 524.667,-933.968 527.469,-936.04 527.591,-933.814 528.934,-933.63 529.992,-935.882 
		531.822,-935.882 531.306,-928.97 532.006,-928.427 532.006,-927.812 531.641,-927.204 531.975,-926.748 532.645,-926.626 
		532.98,-926.079 532.764,-924.735 533.742,-924.315 537.182,-923.979 538.008,-923.49 537.975,-921.723 540.408,-921.667 
		539.102,-909.518 531.031,-911.495 529.813,-909.819 526.982,-910.461 525.396,-906.959 522.628,-906.986 521.625,-905.067 
		513.734,-904.947 513.556,-907.537 511.234,-917.062 511.452,-921.054 512.551,-921.788 512.854,-924.464 513.949,-924.858 
		514.771,-924.223 515.503,-923.25 517.848,-924.071 519.887,-928.91 518.879,-930.008 519.854,-931.101 	"/>
	<polygon fill="none" stroke="#498C9B" stroke-width="0.5" points="561.938,-894.079 562.793,-894.868 570.891,-899.465 
		571.955,-898.886 572.504,-898.673 573.752,-897.182 573.844,-896.176 574.241,-895.816 575.607,-895.481 575.459,-894.689 
		575.701,-893.985 576.522,-893.593 576.705,-891.125 578.591,-889.297 583.068,-887.743 584.075,-887.565 583.983,-886.889 
		583.68,-886.281 583.646,-885.704 583.163,-885.4 581.912,-883.785 580.939,-881.593 580.908,-879.551 578.136,-877.177 
		579.475,-873.556 577.466,-872.427 575.82,-871.087 574.393,-872.031 573.203,-872.246 571.409,-873.612 571.624,-874.742 
		569.582,-874.802 567.297,-876.172 566.354,-877.45 565.532,-877.879 564.738,-876.72 563.458,-876.72 561.877,-875.992 
		561.328,-876.325 560.145,-877.662 558.281,-878.488 556.701,-878.634 555.179,-880.985 555.146,-882.049 554.966,-882.6 
		555.238,-883.876 557.826,-886.22 557.826,-887.227 557.524,-888.016 559.717,-888.172 560.385,-888.75 560.385,-889.297 	"/>
	<polygon fill="none" stroke="#498C9B" stroke-width="0.5" points="555.179,-880.889 555.146,-882.018 554.966,-882.566 
		555.238,-883.911 557.796,-886.16 557.857,-887.195 557.553,-888.016 559.685,-888.172 560.385,-888.75 560.354,-889.266 
		561.908,-894.079 562.727,-894.868 570.92,-899.439 569.672,-899.313 567.875,-899.83 566.354,-900.32 565.349,-901.169 
		564.648,-901.353 562.76,-903.549 562.121,-902.637 561.449,-903.12 561.664,-904.035 561.301,-904.125 560.965,-902.936 
		560.171,-903.062 559.836,-903.458 560.322,-904.125 559.776,-904.338 559.959,-906.53 553.627,-902.637 546.379,-902.724 
		545.222,-901.201 544.67,-900.897 543.64,-900.928 543.67,-900.042 544.248,-898.857 544.156,-897.576 542.998,-897.699 
		542.203,-897.945 541.08,-898.886 540.262,-898.831 538.858,-894.991 540.408,-894.503 538.918,-888.32 537.273,-888.351 
		537.364,-883.389 541.08,-883.268 541.295,-879.827 545.34,-879.766 544.912,-874.589 541.962,-874.529 541.813,-867.923 
		554.449,-867.832 556.366,-875.227 556.731,-878.608 	"/>
	<polygon fill="none" stroke="#498C9B" stroke-width="0.5" points="541.413,-841.153 541.781,-867.923 554.449,-867.858 
		556.395,-875.227 556.731,-878.608 558.281,-878.456 560.048,-877.698 560.841,-876.873 561.357,-876.325 561.877,-875.992 
		563.458,-876.72 564.707,-876.72 565.532,-877.879 566.354,-877.45 567.264,-876.205 569.582,-874.802 571.624,-874.742 
		571.409,-873.677 573.176,-872.246 574.359,-872.06 575.857,-871.087 575.976,-858.692 582.703,-847.064 583.646,-846.88 
		583.803,-846.026 585.721,-845.878 587.545,-845.08 588.825,-843.839 588.948,-841.153 589.8,-840.272 591.263,-839.816 
		594.822,-839.42 594.885,-838.023 599.053,-835.129 599.087,-829.74 590.805,-831.166 590.777,-832.417 590.104,-832.387 
		590.285,-835.003 588.857,-835.281 584.137,-834.214 581.184,-834.303 580.267,-834.946 579.538,-836.253 575.793,-836.924 
		577.498,-838.718 575.277,-839.268 574.147,-838.87 572.082,-835.95 568.332,-836.375 566.658,-841.248 554.754,-844.259 	"/>
	<polygon fill="none" stroke="#498C9B" stroke-width="0.5" points="570.952,-935.518 569.488,-936.643 568.119,-936.643 
		567.115,-937.498 564.922,-940.847 566.047,-942.281 567.052,-948.976 569.945,-948.737 569.945,-951.02 570.615,-952.934 
		568.242,-954.061 567.544,-954.947 567.632,-956.344 568.211,-957.991 567.57,-958.965 566.322,-959.547 565.562,-960.884 
		562.915,-960.792 561.847,-961.123 561.877,-962.074 562.703,-962.374 562.668,-964.173 561.42,-964.113 561.357,-966.213 
		553.992,-966.336 554.174,-959.39 547.078,-959.39 545.892,-960.486 544.703,-960.459 543.64,-959.547 543.455,-957.566 
		544.248,-956.344 544.003,-955.586 543.123,-955.34 543.153,-953.702 542.51,-953.207 542.727,-951.445 541.321,-951.411 
		541.08,-952.543 539.377,-952.57 539.222,-955.25 536.119,-954.515 536.268,-947.241 537.273,-947.062 539.07,-944.289 
		540.35,-944.077 542.448,-943.712 543.91,-942.158 544.03,-939.507 545.373,-938.622 545.83,-937.376 546.532,-936.525 
		547.658,-936.066 548.357,-934.577 549.424,-933.814 550.701,-931.987 551.553,-931.744 552.926,-930.679 554.996,-928.362 
		559.593,-932.2 560.688,-931.135 562.486,-931.466 563.644,-931.683 566.202,-931.5 567.449,-934.36 568.087,-935.033 	"/>
	<polygon fill="none" stroke="#498C9B" stroke-width="0.5" points="622.076,-870.175 622.228,-868.288 623.261,-867.282 
		622.898,-865.363 623.143,-864.54 627.861,-862.196 628.99,-862.925 630.207,-862.138 630.781,-860.065 631.363,-859.336 
		632.645,-859.366 637.239,-856.411 637.36,-854.888 639.368,-853.274 640.349,-852.27 640.865,-850.959 641.531,-850.291 
		644.369,-849.164 646.191,-849.195 647.594,-850.407 647.195,-851.997 648.05,-852.175 650.943,-851.329 652.768,-849.407 
		655.723,-847.945 653.772,-834.549 636.084,-834.487 636.112,-837.016 628.928,-837.229 629.049,-848.647 627.098,-848.859 
		627.129,-851.232 625.821,-851.693 625.67,-852.544 620.766,-852.639 620.766,-857.391 615.192,-857.411 615.441,-868.776 
		608.649,-868.831 608.741,-872.582 614.128,-872.273 615.284,-873.708 625.549,-873.523 625.732,-871.543 625.24,-870.631 
		623.357,-871.273 	"/>
</g>
</svg>
