<?xml version="1.0" encoding="utf-8"?>
<!-- Generator: Adobe Illustrator 16.0.0, SVG Export Plug-In . SVG Version: 6.00 Build 0)  -->
<!DOCTYPE svg PUBLIC "-//W3C//DTD SVG 1.1//EN" "http://www.w3.org/Graphics/SVG/1.1/DTD/svg11.dtd">
<svg version="1.1" id="Capa_1" xmlns="http://www.w3.org/2000/svg" xmlns:xlink="http://www.w3.org/1999/xlink" x="0px" y="0px"
	 width="164px" height="262.667px" viewBox="302 -1050.167 164 262.667" enable-background="new 302 -1050.167 164 262.667"
	 xml:space="preserve">
<g>
	<polygon fill="none" stroke="#498C9B" stroke-width="0.5" points="434.084,-834.46 451.772,-834.579 445.622,-793.047 
		443.887,-800.384 428.419,-800.507 426.957,-803.428 426.531,-804.403 426.223,-805.315 425.984,-807.659 426.285,-809.155 
		427.015,-810.28 427.719,-811.192 427.873,-811.71 427.292,-812.206 427.111,-812.749 426.957,-813.874 426.073,-814.663 
		424.186,-814.754 423.486,-815.245 422.694,-815.701 422.148,-815.575 421.507,-815.64 421.69,-817.892 433.84,-818.078 	"/>
	<polygon fill="none" stroke="#498C9B" stroke-width="0.5" points="364.11,-1036.547 364.262,-1035.391 367.031,-1029.642 
		366.697,-1028.333 368.586,-1025.588 370.598,-1023.671 371.813,-1023.943 372.456,-1023.002 373.152,-1020.719 373.215,-1016.788 
		371.994,-1015.877 371.569,-1013.807 370.383,-1011.034 370.442,-1009.818 370.746,-1008.568 371.416,-1007.375 463.77,-1007.015 
		463.225,-1037.738 387.615,-1038.288 385.757,-1035.361 380.035,-1035.361 374.369,-1036.673 	"/>
	<polygon fill="none" stroke="#498C9B" stroke-width="0.5" points="400.041,-901.811 401.045,-903.093 401.625,-905.372 
		401.745,-906.687 401.562,-907.809 399.979,-910.092 398.06,-911.951 396.049,-913.196 395.229,-912.375 394.041,-911.951 
		392.307,-912.071 391.729,-912.774 391.85,-915.817 388.741,-918.438 388.438,-919.384 389.381,-920.695 389.263,-922.947 
		387.8,-925.381 386.795,-927.937 382.99,-926.203 381.892,-925.408 379,-927.665 377.508,-927.083 377.357,-924.404 
		376.591,-921.115 374.586,-917.738 385.787,-907.998 391.179,-901.875 	"/>
	<polygon fill="none" stroke="#498C9B" stroke-width="0.5" points="400.041,-901.811 401.074,-899.895 402.232,-898.215 
		403.725,-896.487 404.699,-896.089 407.104,-896.695 409.024,-896.422 409.57,-895.816 411.732,-894.443 413.072,-892.829 
		412.98,-889.939 413.378,-889.114 414.503,-889.085 414.354,-887.987 416.393,-885.248 418.186,-885.248 420.319,-880.223 
		421.357,-880.04 421.205,-879.004 420.228,-877.698 421.205,-876.873 421.289,-874.863 423.606,-874.225 423.606,-873.612 
		457.376,-872.949 461.455,-901.169 	"/>
	<polygon fill="none" stroke="#498C9B" stroke-width="0.5" points="423.575,-873.557 457.405,-872.975 453.693,-847.945 
		450.768,-849.436 448.822,-851.386 446.019,-852.115 445.195,-852.028 445.594,-850.382 444.131,-849.137 442.212,-849.137 
		439.473,-850.261 438.773,-851.024 438.285,-852.209 437.34,-853.302 435.298,-854.857 435.182,-856.471 430.548,-859.397 
		429.271,-859.397 428.723,-860.065 428.419,-861.462 428.146,-862.169 426.99,-862.899 425.74,-862.105 421.143,-864.508 
		420.898,-865.333 421.231,-867.313 420.196,-868.288 420.076,-870.207 421.326,-871.274 423.24,-870.631 423.762,-871.578 	"/>
	<polygon fill="none" stroke="#498C9B" stroke-width="0.5" points="421.627,-817.984 433.84,-818.078 434.112,-837.016 
		426.898,-837.229 427.015,-848.647 425.129,-848.891 425.129,-851.232 423.853,-851.693 423.67,-852.544 418.766,-852.605 
		418.766,-857.391 395.686,-857.326 397.087,-854.401 398,-853.302 398.607,-854.037 401.045,-852.088 401.625,-851.051 
		401.776,-850.079 402.778,-848.309 402.445,-846.972 404.453,-844.476 405.795,-843.347 406.466,-841.617 407.166,-842.073 
		408.262,-839.391 409.116,-839.481 409.664,-839.331 409.725,-838.566 410.301,-837.837 411.819,-837.924 412.248,-836.924 
		411.606,-836.07 412.523,-834.825 412.495,-832.781 412.857,-831.383 413.591,-830.56 414.81,-829.436 416.82,-826.358 
		417.061,-824.744 416.393,-823.161 416.849,-822.492 416.697,-820.846 417.67,-820.175 418.799,-820.175 419.344,-820.846 
		421.415,-818.655 	"/>
	<polygon fill="none" stroke="#498C9B" stroke-width="0.5" points="383.172,-890.396 384.604,-890.698 385.362,-891.67 
		385.422,-892.126 386.642,-892.889 389.658,-890.086 389.658,-889.387 388.896,-889.053 388.953,-888.32 391.056,-888.385 
		391.208,-886.645 399.826,-886.524 400.133,-880.04 403.818,-879.827 403.818,-877.271 406.799,-877.271 406.741,-872.547 
		412.1,-872.273 413.224,-873.708 423.641,-873.643 423.606,-874.165 421.289,-874.927 421.205,-876.846 420.257,-877.698 
		421.205,-878.972 421.326,-880.102 420.319,-880.256 418.186,-885.218 416.393,-885.248 414.383,-887.956 414.503,-889.085 
		413.345,-889.085 412.98,-890 413.072,-892.829 411.764,-894.41 409.57,-895.78 409.024,-896.454 407.104,-896.757 
		404.76,-896.089 403.725,-896.514 402.203,-898.281 401.074,-899.895 400.041,-901.811 391.147,-901.903 385.818,-907.961 
		385.665,-904.399 384.816,-904.058 384.023,-904.947 382.863,-905.801 382.47,-905.801 381.953,-905.253 381.983,-902.967 
		381.22,-902.514 380.095,-901.751 379.336,-900.564 378.115,-897.884 377.691,-897.607 376.625,-898.553 375.375,-898.949 
		374.098,-898.797 371.752,-897.09 371.873,-896.089 372.209,-895.816 373.003,-895.66 373.607,-895.481 373.428,-894.689 
		373.672,-893.958 374.492,-893.62 374.705,-891.064 376.564,-889.297 381.163,-887.716 382.04,-887.531 382.287,-889.543 	"/>
	<polygon fill="none" stroke="#498C9B" stroke-width="0.5" points="353.026,-928.362 357.593,-932.234 358.72,-931.135 
		361.644,-931.683 364.172,-931.5 365.449,-934.391 366.087,-935.001 368.98,-935.518 369.836,-934.876 369.804,-931.896 
		374.189,-931.804 374.646,-931.227 377.387,-931.135 377.475,-927.083 377.357,-924.375 376.591,-921.115 374.586,-917.738 
		365.57,-920.082 365.148,-918.074 362.281,-918.225 359.026,-920.234 357.135,-919.809 356.711,-919.96 356.951,-923.065 
		355.705,-924.158 354.731,-926.6 	"/>
	<polygon fill="none" stroke="#498C9B" stroke-width="0.5" points="339.445,-841.218 339.781,-867.923 339.903,-874.558 
		342.912,-874.621 343.34,-879.798 339.295,-879.861 339.08,-883.268 335.364,-883.36 335.241,-888.351 336.949,-888.32 
		338.441,-894.535 336.826,-894.959 338.229,-898.797 339.109,-898.857 340.175,-897.945 340.938,-897.764 342.156,-897.576 
		342.248,-898.797 341.697,-900.016 341.64,-900.897 337.285,-900.961 337.348,-903.093 339.781,-903.18 340.39,-908.569 
		329.063,-911.521 327.813,-909.82 325.01,-910.517 323.369,-906.959 320.628,-907.02 319.625,-905.067 311.706,-904.855 
		312.223,-895.138 310.395,-888.351 309.119,-888.597 308.479,-884.545 310.152,-884.181 310.275,-881.413 318.253,-879.216 
		318.953,-877.722 320.203,-876.264 322.455,-875.378 323.34,-874.013 323.033,-871.087 323.153,-869.294 324.13,-867.129 
		325.652,-862.899 326.018,-856.292 327.11,-854.096 328.514,-853.824 329.093,-853.215 329.122,-852.362 327.662,-852.328 
		326.564,-851.263 326.535,-849.68 327.57,-848.283 327.662,-847.397 329.004,-846.608 329.429,-845.357 328.729,-843.774 
		327.632,-842.498 327.847,-838.445 	"/>
	<polygon fill="none" stroke="#498C9B" stroke-width="0.5" points="373.883,-870.663 374.463,-870.663 374.888,-871.117 
		375.498,-870.784 376.168,-871.722 377.053,-872.337 377.626,-871.881 378.236,-871.848 378.602,-872.458 378.939,-872.49 
		379.271,-871.909 379.578,-871.942 380.035,-872.247 380.493,-872.214 381.163,-871.638 381.738,-872.155 382.592,-871.638 
		382.377,-870.354 383.385,-869.716 383.477,-869.017 384.63,-867.767 385.73,-868.223 386.063,-867.832 385.545,-867.19 
		385.879,-866.58 388.104,-866.58 389.291,-867.221 389.414,-864.846 390.631,-863.045 391.396,-862.589 391.761,-862.53 
		392.489,-862.044 393.37,-861.953 394.346,-860.828 393.467,-860.034 394.92,-858.789 395.686,-857.265 397.053,-854.372 
		397.971,-853.302 398.607,-854.068 401.012,-852.028 401.65,-851.051 401.717,-850.079 402.778,-848.283 402.387,-847.038 
		404.516,-844.412 405.795,-843.287 406.406,-841.52 407.166,-842.133 408.232,-839.36 409.082,-839.481 409.633,-839.331 
		409.725,-838.6 410.27,-837.805 411.764,-837.897 412.22,-836.896 411.582,-836.102 412.555,-834.851 412.463,-832.754 
		412.891,-831.444 413.499,-830.681 414.81,-829.462 416.909,-826.327 397.053,-829.795 397.053,-835.069 392.885,-838.023 
		392.822,-839.42 389.291,-839.85 387.857,-840.211 386.914,-841.187 386.825,-843.839 385.577,-845.053 383.812,-845.847 
		381.803,-846.026 381.646,-846.88 380.677,-847.064 373.976,-858.754 	"/>
	<polygon fill="none" stroke="#498C9B" stroke-width="0.5" points="349.218,-1036.733 351.504,-1036.886 352.598,-1035.488 
		359.971,-1034.116 360.455,-1036.701 364.08,-1036.488 364.293,-1035.332 367.094,-1029.583 366.697,-1028.418 368.707,-1025.588 
		370.567,-1023.707 371.844,-1024.035 372.48,-1023.002 373.152,-1020.719 373.215,-1016.727 371.994,-1015.815 371.629,-1014.08 
		370.383,-1010.974 370.837,-1008.447 371.48,-1007.257 373.123,-1004.824 373.215,-1003.813 374.522,-1003.513 374.553,-1002.14 
		376.015,-999.737 376.959,-997.272 377.538,-994.564 377.658,-993.194 371.752,-993.281 370.412,-990.143 369.926,-986.554 
		369.896,-983.969 367.855,-983.969 366.424,-981.345 366.424,-978.638 362.648,-978.604 362.707,-980.308 358.508,-980.556 
		355.279,-981.619 354.244,-980.643 353.999,-980.035 351.684,-980.556 351.869,-983.264 350.772,-983.72 349.891,-984.696 
		348.701,-984.24 347.639,-985.521 346.391,-987.404 346.813,-989.991 338.229,-990.025 337.923,-994.313 337.496,-996.995 
		338.717,-998.643 338.135,-1001.899 340.175,-1003.084 340.203,-1005.917 339.387,-1007.991 339.903,-1009.605 341.762,-1012.28 
		343.191,-1013.928 344.467,-1017.396 343.34,-1017.978 	"/>
	<polygon fill="none" stroke="#498C9B" stroke-width="0.5" points="371.537,-1007.32 463.77,-1007.015 464.076,-978.665 
		428.967,-979.731 428.752,-977.566 417.641,-977.566 417.061,-978.638 410.361,-978.758 409.997,-979.915 396.662,-979.823 
		395.475,-981.073 388.896,-980.981 388.833,-974.038 382.163,-973.946 382.04,-972.242 374.765,-972.455 374.463,-976.381 
		375.223,-977.295 375.346,-980.126 374.734,-980.643 375.223,-981.373 375.071,-982.777 374.342,-984.171 374.463,-988.806 
		375.314,-990.143 376.685,-989.964 377.234,-990.998 377.572,-992.277 377.691,-993.22 377.508,-994.5 376.896,-997.208 
		376.076,-999.737 374.522,-1002.14 374.522,-1003.513 373.064,-1003.813 373.152,-1004.792 	"/>
	<polygon fill="none" stroke="#498C9B" stroke-width="0.5" points="396.689,-933.235 400.775,-931.466 402.172,-931.956 
		403.328,-930.95 412.649,-930.706 412.676,-928.029 421.599,-927.911 422.542,-929.123 426.439,-929.096 427.719,-927.754 
		440.627,-927.573 440.66,-929.216 464.317,-928.792 464.047,-978.698 429.027,-979.731 428.723,-977.631 417.606,-977.566 
		417.032,-978.604 410.361,-978.758 409.876,-979.949 396.57,-979.823 396.475,-977.448 397.418,-976.198 397.454,-974.95 
		396.51,-974.159 396.51,-970.478 395.776,-969.225 395.897,-968.375 397.053,-968.006 397.512,-965.757 396.542,-964.598 
		396.629,-963.259 397.574,-962.129 397.695,-960.52 396.996,-959.453 397.242,-957.868 396.475,-956.892 396.967,-955.951 
		396.204,-954.583 396.204,-953.912 398.335,-953.82 398.396,-948.824 397.027,-946.941 396.996,-943.13 398.151,-942.766 
		399.221,-941.759 398.455,-938.383 398.492,-936.92 	"/>
	<polygon fill="none" stroke="#498C9B" stroke-width="0.5" points="382.04,-972.242 382.198,-973.917 388.864,-974.011 
		388.925,-980.917 395.504,-980.981 396.662,-979.823 396.445,-977.505 397.454,-976.168 397.391,-974.923 396.51,-974.098 
		396.475,-970.444 395.809,-969.199 395.929,-968.375 397.116,-967.949 397.512,-965.815 396.51,-964.598 396.629,-963.259 
		397.574,-962.161 397.695,-960.486 397.053,-959.453 397.242,-957.812 396.475,-956.866 396.967,-955.98 396.232,-954.64 
		396.262,-953.912 398.396,-953.757 398.396,-948.763 396.996,-946.91 396.996,-943.104 398.272,-942.735 399.221,-941.759 
		398.455,-938.444 398.492,-936.889 396.754,-933.266 395.417,-932.871 395.417,-931.102 390.783,-930.983 386.914,-930.22 
		385.912,-930.194 386.795,-927.937 382.99,-926.231 381.863,-925.442 379,-927.633 377.508,-927.083 377.387,-931.167 
		374.646,-931.227 374.098,-931.804 369.804,-931.896 369.867,-934.85 367.518,-936.708 366.087,-936.708 365.115,-937.468 
		362.951,-940.755 363.988,-942.189 364.96,-948.976 367.887,-948.737 367.945,-951.199 368.615,-952.908 367.429,-953.576 
		366.242,-954.097 365.57,-955.07 365.604,-956.375 366.087,-958.084 365.544,-958.876 364.322,-959.579 363.532,-960.884 
		360.883,-960.792 359.785,-961.123 359.816,-962.042 360.703,-962.346 360.727,-962.955 363.744,-963.015 363.592,-969.474 
		361.156,-969.437 361.307,-973.096 365.875,-972.911 365.875,-971.505 368.646,-971.542 369.256,-972.455 	"/>
	<g>
		<polygon fill="#8FD0DF" stroke="#498C9B" stroke-width="0.5" points="361.217,-969.502 361.307,-973.065 365.845,-972.884 
			365.936,-971.477 368.615,-971.542 369.197,-972.455 374.801,-972.394 374.463,-976.294 375.254,-977.207 375.346,-980.008 
			374.705,-980.704 375.223,-981.373 374.977,-982.929 374.248,-984.297 374.404,-988.774 375.346,-990.176 376.625,-989.991 
			377.293,-990.998 377.753,-993.22 371.664,-993.281 370.442,-990.143 369.926,-986.706 369.896,-983.933 367.822,-983.902 
			366.485,-981.373 366.512,-978.604 362.707,-978.638 362.738,-980.339 358.508,-980.525 355.369,-981.584 354.244,-980.643 
			354.062,-980.035 351.684,-980.704 351.808,-983.264 350.681,-983.72 349.949,-984.696 348.674,-984.271 346.417,-987.435 
			346.877,-990.084 338.35,-990.025 338.896,-987.104 338.35,-984.968 334.666,-986.038 333.356,-979.702 331.619,-979.888 
			331.346,-978.42 329.763,-979.062 329.214,-978.061 329.579,-976.442 328.576,-975.379 328.363,-968.192 327.051,-963.804 
			327.051,-960.916 328.697,-959.421 328.877,-957.655 331.497,-957.625 332.928,-955.741 334.053,-954.609 337.191,-955.251 
			337.377,-952.57 339.047,-952.603 339.295,-951.411 340.695,-951.505 340.54,-953.303 341.18,-953.757 341.123,-955.34 
			342.03,-955.675 342.214,-956.315 341.428,-957.534 341.573,-959.605 342.644,-960.394 343.924,-960.459 345.107,-959.421 
			352.082,-959.453 351.928,-966.365 359.357,-966.273 359.42,-964.173 360.608,-964.26 360.727,-962.923 363.653,-962.955 
			363.592,-969.529 		"/>
		<polygon fill="#8FD0DF" stroke="#498C9B" stroke-width="0.5" points="339.08,-933.969 342.003,-939.384 341.941,-942.158 
			340.448,-943.739 336.979,-944.32 335.273,-947 334.268,-947.214 334.028,-954.583 332.928,-955.767 331.56,-957.507 
			328.877,-957.655 328.756,-959.39 327.11,-960.916 325.773,-960.546 324.646,-958.111 323.915,-957.138 323.219,-953.364 
			320.111,-951.046 318.345,-951.107 317.767,-949.589 318.132,-947.393 317.854,-945.717 316.666,-944.103 317.338,-943.009 
			318.006,-943.009 318.345,-943.316 319.076,-943.316 319.805,-942.037 319.805,-941.337 319.2,-940.21 318.524,-940.237 
			318.038,-940.606 317.398,-939.781 316.518,-937.987 317.767,-935.306 318.618,-932.81 319.684,-933.387 320.292,-934.85 
			322.026,-934.913 322.698,-933.969 325.469,-936.066 325.591,-933.814 326.934,-933.663 327.992,-935.882 329.822,-935.915 
			331.043,-934.85 333.902,-936.371 335.152,-936.187 		"/>
	</g>
	<polygon fill="none" stroke="#498C9B" stroke-width="0.5" points="385.879,-930.158 386.914,-930.22 389.199,-930.65 
		390.783,-930.983 395.441,-931.07 395.441,-932.871 396.723,-933.207 400.741,-931.5 402.203,-931.956 403.391,-930.983 
		412.649,-930.706 412.649,-927.998 421.569,-927.937 422.571,-929.123 426.469,-929.096 427.748,-927.754 440.66,-927.513 
		440.723,-929.183 464.352,-928.852 464.288,-920.569 461.426,-901.14 400.041,-901.843 401.045,-903.093 401.625,-905.28 
		401.745,-906.651 401.596,-907.809 399.949,-910.124 398.12,-911.919 396.049,-913.196 395.229,-912.375 394.07,-911.984 
		392.307,-912.103 391.761,-912.745 391.816,-915.851 388.741,-918.438 388.438,-919.353 389.381,-920.721 389.229,-922.973 
		387.8,-925.442 	"/>
	<polygon fill="none" stroke="#498C9B" stroke-width="0.5" points="413.192,-857.411 413.441,-868.776 406.649,-868.865 
		406.799,-877.271 403.845,-877.271 403.818,-879.798 400.133,-880.071 399.826,-886.524 391.239,-886.676 391.092,-888.351 
		388.987,-888.32 388.925,-889.053 389.658,-889.418 389.658,-890.118 386.642,-892.889 385.422,-892.126 385.362,-891.702 
		384.63,-890.698 383.202,-890.396 382.258,-889.57 381.983,-886.954 381.646,-886.281 381.68,-885.733 381.163,-885.4 
		379.912,-883.85 378.968,-881.593 378.939,-879.552 376.136,-877.177 377.475,-873.523 375.528,-872.458 373.857,-871.087 
		373.883,-870.603 374.492,-870.694 374.888,-871.148 375.466,-870.81 376.201,-871.756 377.053,-872.337 377.602,-871.848 
		378.267,-871.848 378.573,-872.427 378.939,-872.458 379.271,-871.942 379.578,-871.968 380.001,-872.247 380.458,-872.214 
		381.131,-871.638 381.68,-872.155 382.592,-871.638 382.377,-870.328 383.417,-869.716 383.506,-868.988 384.604,-867.803 
		385.7,-868.259 386.096,-867.803 385.577,-867.221 385.852,-866.613 388.133,-866.613 389.263,-867.221 389.446,-864.752 
		390.662,-863.08 391.362,-862.589 391.729,-862.53 392.458,-862.044 393.313,-861.987 394.375,-860.828 393.434,-860.034 
		394.896,-858.789 395.656,-857.326 398.12,-857.352 	"/>
	<polygon fill="none" stroke="#498C9B" stroke-width="0.5" points="374.067,-898.765 375.314,-898.917 376.625,-898.553 
		377.691,-897.638 378.086,-897.856 379.336,-900.597 380.125,-901.722 381.22,-902.542 381.983,-902.88 381.983,-905.253 
		382.441,-905.83 382.863,-905.83 384.052,-904.92 384.785,-904.035 385.665,-904.338 385.818,-907.961 374.586,-917.738 
		365.57,-920.113 365.115,-918.042 362.281,-918.194 359.026,-920.265 357.135,-919.775 357.744,-917.982 358.082,-915.969 
		358.814,-913.837 358.965,-910.765 358.72,-909.699 357.717,-909.001 357.717,-908.482 358.445,-907.719 358.445,-906.868 
		357.959,-906.53 357.776,-904.368 358.293,-904.058 357.865,-903.489 358.233,-903.062 358.935,-902.967 359.301,-904.125 
		359.664,-904.005 359.484,-903.093 360.15,-902.664 360.793,-903.518 362.707,-901.327 363.438,-901.14 364.417,-900.228 
		367.672,-899.287 368.952,-899.439 370.016,-898.857 370.504,-898.674 371.781,-897.117 	"/>
	<polygon fill="none" stroke="#498C9B" stroke-width="0.5" points="357.168,-919.809 357.776,-917.948 358.048,-916.063 
		358.814,-913.806 358.965,-910.765 358.752,-909.759 357.717,-909.001 357.717,-908.449 358.413,-907.749 358.445,-906.868 
		351.627,-902.598 344.349,-902.697 343.191,-901.169 342.611,-900.897 337.25,-901.017 337.348,-903.093 339.781,-903.154 
		340.357,-908.6 340.938,-908.967 341.484,-911.255 342.523,-912.136 343.525,-912.254 343.797,-914.236 349.527,-913.322 
		352.598,-919.717 356.648,-919.744 356.681,-920.021 	"/>
	<polygon fill="none" stroke="#498C9B" stroke-width="0.5" points="329.822,-935.915 331.043,-934.816 333.902,-936.404 
		335.213,-936.187 339.08,-933.969 342.068,-939.476 343.34,-938.687 343.83,-937.437 344.5,-936.556 345.658,-936.1 
		346.357,-934.545 347.424,-933.843 348.674,-932.021 349.553,-931.744 350.896,-930.679 353.026,-928.362 353.76,-927.665 
		354.701,-926.687 355.705,-924.131 356.923,-923.093 356.681,-919.744 352.569,-919.717 349.553,-913.29 343.797,-914.236 
		343.525,-912.254 342.49,-912.136 341.484,-911.255 340.938,-908.938 340.39,-908.6 337.102,-909.518 338.408,-921.667 
		335.975,-921.723 336.008,-923.49 335.152,-923.979 331.713,-924.315 330.764,-924.735 330.98,-926.106 330.615,-926.627 
		329.975,-926.718 329.641,-927.238 330.006,-927.846 330.006,-928.394 329.334,-929.036 	"/>
	<polygon fill="none" stroke="#498C9B" stroke-width="0.5" points="319.227,-931.775 318.56,-932.871 319.717,-933.387 
		320.324,-934.913 322,-934.942 322.667,-933.969 325.469,-936.04 325.591,-933.814 326.934,-933.631 327.992,-935.882 
		329.822,-935.882 329.306,-928.97 330.006,-928.427 330.006,-927.812 329.641,-927.204 329.975,-926.748 330.645,-926.627 
		330.98,-926.079 330.764,-924.735 331.742,-924.315 335.182,-923.979 336.008,-923.49 335.975,-921.723 338.408,-921.667 
		337.102,-909.518 329.031,-911.495 327.813,-909.82 324.982,-910.461 323.396,-906.959 320.628,-906.986 319.625,-905.067 
		311.734,-904.947 311.556,-907.537 309.234,-917.062 309.452,-921.054 310.551,-921.788 310.854,-924.464 311.949,-924.858 
		312.771,-924.223 313.503,-923.25 315.848,-924.071 317.887,-928.91 316.879,-930.008 317.854,-931.102 	"/>
	<polygon fill="none" stroke="#498C9B" stroke-width="0.5" points="359.938,-894.079 360.793,-894.868 368.891,-899.465 
		369.955,-898.886 370.504,-898.674 371.752,-897.182 371.844,-896.176 372.241,-895.816 373.607,-895.481 373.459,-894.689 
		373.701,-893.985 374.522,-893.593 374.705,-891.125 376.591,-889.297 381.068,-887.744 382.075,-887.565 381.983,-886.889 
		381.68,-886.281 381.646,-885.704 381.163,-885.4 379.912,-883.785 378.939,-881.593 378.908,-879.552 376.136,-877.177 
		377.475,-873.557 375.466,-872.427 373.82,-871.087 372.393,-872.032 371.203,-872.247 369.409,-873.612 369.624,-874.742 
		367.582,-874.802 365.297,-876.173 364.354,-877.45 363.532,-877.879 362.738,-876.721 361.458,-876.721 359.877,-875.992 
		359.328,-876.325 358.145,-877.662 356.281,-878.488 354.701,-878.634 353.179,-880.986 353.146,-882.049 352.966,-882.6 
		353.238,-883.876 355.826,-886.22 355.826,-887.227 355.524,-888.016 357.717,-888.172 358.385,-888.75 358.385,-889.297 	"/>
	<polygon fill="none" stroke="#498C9B" stroke-width="0.5" points="353.179,-880.889 353.146,-882.018 352.966,-882.566 
		353.238,-883.911 355.796,-886.16 355.857,-887.195 355.553,-888.016 357.685,-888.172 358.385,-888.75 358.354,-889.266 
		359.908,-894.079 360.727,-894.868 368.92,-899.439 367.672,-899.313 365.875,-899.83 364.354,-900.32 363.349,-901.169 
		362.648,-901.353 360.76,-903.549 360.121,-902.637 359.449,-903.12 359.664,-904.035 359.301,-904.125 358.965,-902.936 
		358.171,-903.062 357.836,-903.458 358.322,-904.125 357.776,-904.338 357.959,-906.53 351.627,-902.637 344.379,-902.724 
		343.222,-901.201 342.67,-900.897 341.64,-900.928 341.67,-900.042 342.248,-898.857 342.156,-897.576 340.998,-897.699 
		340.203,-897.945 339.08,-898.886 338.262,-898.831 336.858,-894.991 338.408,-894.503 336.918,-888.32 335.273,-888.351 
		335.364,-883.389 339.08,-883.268 339.295,-879.827 343.34,-879.766 342.912,-874.589 339.962,-874.529 339.813,-867.923 
		352.449,-867.832 354.366,-875.227 354.731,-878.608 	"/>
	<polygon fill="none" stroke="#498C9B" stroke-width="0.5" points="339.413,-841.153 339.781,-867.923 352.449,-867.859 
		354.395,-875.227 354.731,-878.608 356.281,-878.456 358.048,-877.698 358.841,-876.873 359.357,-876.325 359.877,-875.992 
		361.458,-876.721 362.707,-876.721 363.532,-877.879 364.354,-877.45 365.264,-876.205 367.582,-874.802 369.624,-874.742 
		369.409,-873.677 371.176,-872.247 372.359,-872.06 373.857,-871.087 373.976,-858.692 380.703,-847.064 381.646,-846.88 
		381.803,-846.026 383.721,-845.878 385.545,-845.08 386.825,-843.839 386.948,-841.153 387.8,-840.272 389.263,-839.816 
		392.822,-839.42 392.885,-838.023 397.053,-835.129 397.087,-829.74 388.805,-831.167 388.777,-832.417 388.104,-832.387 
		388.285,-835.003 386.857,-835.281 382.137,-834.214 379.184,-834.303 378.267,-834.946 377.538,-836.253 373.793,-836.924 
		375.498,-838.718 373.277,-839.268 372.147,-838.87 370.082,-835.95 366.332,-836.375 364.658,-841.248 352.754,-844.259 	"/>
	<polygon fill="none" stroke="#498C9B" stroke-width="0.5" points="368.952,-935.518 367.488,-936.643 366.119,-936.643 
		365.115,-937.498 362.922,-940.847 364.047,-942.281 365.052,-948.976 367.945,-948.737 367.945,-951.02 368.615,-952.934 
		366.242,-954.061 365.544,-954.947 365.632,-956.344 366.211,-957.991 365.57,-958.965 364.322,-959.547 363.562,-960.884 
		360.915,-960.792 359.847,-961.123 359.877,-962.074 360.703,-962.374 360.668,-964.173 359.42,-964.114 359.357,-966.213 
		351.992,-966.336 352.174,-959.39 345.078,-959.39 343.892,-960.486 342.703,-960.459 341.64,-959.547 341.455,-957.566 
		342.248,-956.344 342.003,-955.586 341.123,-955.34 341.153,-953.702 340.51,-953.207 340.727,-951.445 339.321,-951.411 
		339.08,-952.543 337.377,-952.57 337.222,-955.251 334.119,-954.515 334.268,-947.241 335.273,-947.062 337.07,-944.289 
		338.35,-944.077 340.448,-943.712 341.91,-942.158 342.03,-939.507 343.373,-938.622 343.83,-937.376 344.532,-936.525 
		345.658,-936.066 346.357,-934.577 347.424,-933.814 348.701,-931.988 349.553,-931.744 350.926,-930.679 352.996,-928.362 
		357.593,-932.2 358.688,-931.135 360.486,-931.466 361.644,-931.683 364.202,-931.5 365.449,-934.36 366.087,-935.033 	"/>
	<polygon fill="none" stroke="#498C9B" stroke-width="0.5" points="420.076,-870.175 420.228,-868.288 421.261,-867.282 
		420.898,-865.363 421.143,-864.54 425.861,-862.197 426.99,-862.925 428.207,-862.138 428.781,-860.065 429.363,-859.336 
		430.645,-859.366 435.239,-856.412 435.36,-854.888 437.368,-853.274 438.349,-852.27 438.865,-850.959 439.531,-850.291 
		442.369,-849.164 444.191,-849.195 445.594,-850.407 445.195,-851.997 446.05,-852.175 448.943,-851.329 450.768,-849.408 
		453.723,-847.945 451.772,-834.549 434.084,-834.487 434.112,-837.016 426.928,-837.229 427.049,-848.647 425.098,-848.86 
		425.129,-851.232 423.821,-851.693 423.67,-852.544 418.766,-852.639 418.766,-857.391 413.192,-857.411 413.441,-868.776 
		406.649,-868.831 406.741,-872.582 412.128,-872.273 413.284,-873.708 423.549,-873.523 423.732,-871.543 423.24,-870.631 
		421.357,-871.274 	"/>
</g>
</svg>
