<?xml version="1.0" encoding="utf-8"?>
<!-- Generator: Adobe Illustrator 16.0.0, SVG Export Plug-In . SVG Version: 6.00 Build 0)  -->
<!DOCTYPE svg PUBLIC "-//W3C//DTD SVG 1.1//EN" "http://www.w3.org/Graphics/SVG/1.1/DTD/svg11.dtd">
<svg version="1.1" id="Capa_1" xmlns="http://www.w3.org/2000/svg" xmlns:xlink="http://www.w3.org/1999/xlink" x="0px" y="0px"
	 width="164px" height="262.667px" viewBox="903.011 -1050.167 164 262.667" enable-background="new 903.011 -1050.167 164 262.667"
	 xml:space="preserve">
<g>
	<polygon fill="none" stroke="#498C9B" stroke-width="0.5" points="1035.095,-834.46 1052.783,-834.579 1046.633,-793.047 
		1044.897,-800.384 1029.43,-800.507 1027.968,-803.428 1027.542,-804.403 1027.233,-805.315 1026.995,-807.659 1027.296,-809.155 
		1028.025,-810.28 1028.729,-811.192 1028.884,-811.71 1028.303,-812.206 1028.122,-812.749 1027.968,-813.874 1027.084,-814.663 
		1025.196,-814.754 1024.497,-815.245 1023.705,-815.701 1023.159,-815.575 1022.518,-815.64 1022.701,-817.892 1034.851,-818.076 	
		"/>
	<polygon fill="#8FD0DF" stroke="#498C9B" stroke-width="0.5" points="965.121,-1036.547 965.272,-1035.391 968.042,-1029.642 
		967.708,-1028.332 969.597,-1025.589 971.608,-1023.671 972.823,-1023.944 973.467,-1023.002 974.163,-1020.719 974.226,-1016.788 
		973.005,-1015.877 972.58,-1013.807 971.394,-1011.034 971.453,-1009.818 971.757,-1008.568 972.427,-1007.375 1064.78,-1007.015 
		1064.235,-1037.74 988.626,-1038.288 986.768,-1035.362 981.046,-1035.362 975.38,-1036.672 	"/>
	<polygon fill="none" stroke="#498C9B" stroke-width="0.5" points="962.228,-969.502 962.317,-973.065 966.855,-972.884 
		966.946,-971.477 969.626,-971.542 970.208,-972.455 975.812,-972.394 975.474,-976.294 976.265,-977.207 976.356,-980.008 
		975.716,-980.704 976.233,-981.373 975.987,-982.929 975.259,-984.297 975.415,-988.774 976.356,-990.176 977.636,-989.991 
		978.304,-990.998 978.764,-993.22 972.675,-993.281 971.453,-990.143 970.937,-986.706 970.906,-983.933 968.833,-983.902 
		967.496,-981.373 967.522,-978.604 963.718,-978.638 963.749,-980.339 959.519,-980.525 956.38,-981.584 955.255,-980.643 
		955.072,-980.035 952.694,-980.704 952.818,-983.264 951.691,-983.72 950.96,-984.696 949.685,-984.271 947.428,-987.435 
		947.888,-990.084 939.36,-990.025 939.907,-987.104 939.36,-984.968 935.677,-986.038 934.367,-979.702 932.63,-979.888 
		932.356,-978.42 930.773,-979.063 930.225,-978.061 930.59,-976.442 929.587,-975.379 929.374,-968.192 928.062,-963.804 
		928.062,-960.916 929.708,-959.421 929.888,-957.655 932.508,-957.625 933.938,-955.741 935.063,-954.609 938.202,-955.251 
		938.388,-952.57 940.058,-952.603 940.306,-951.411 941.706,-951.505 941.551,-953.303 942.19,-953.757 942.134,-955.34 
		943.041,-955.675 943.225,-956.315 942.438,-957.534 942.584,-959.605 943.654,-960.394 944.935,-960.459 946.118,-959.421 
		953.093,-959.453 952.938,-966.365 960.368,-966.273 960.431,-964.173 961.619,-964.26 961.737,-962.923 964.664,-962.955 
		964.603,-969.529 	"/>
	<polygon fill="none" stroke="#498C9B" stroke-width="0.5" points="1001.052,-901.811 1002.056,-903.093 1002.636,-905.372 
		1002.756,-906.687 1002.572,-907.809 1000.989,-910.092 999.07,-911.951 997.06,-913.196 996.239,-912.375 995.052,-911.951 
		993.317,-912.071 992.74,-912.774 992.86,-915.817 989.752,-918.438 989.448,-919.384 990.392,-920.695 990.273,-922.947 
		988.811,-925.381 987.806,-927.937 984.001,-926.2 982.902,-925.408 980.011,-927.665 978.519,-927.083 978.368,-924.404 
		977.602,-921.115 975.597,-917.738 986.798,-907.998 992.189,-901.875 	"/>
	<polygon fill="none" stroke="#498C9B" stroke-width="0.5" points="1001.052,-901.811 1002.085,-899.895 1003.243,-898.215 
		1004.735,-896.487 1005.71,-896.089 1008.114,-896.695 1010.035,-896.422 1010.581,-895.819 1012.743,-894.443 1014.083,-892.829 
		1013.991,-889.94 1014.389,-889.114 1015.514,-889.085 1015.364,-887.987 1017.403,-885.248 1019.196,-885.248 1021.33,-880.223 
		1022.368,-880.04 1022.216,-879.004 1021.238,-877.698 1022.216,-876.873 1022.3,-874.863 1024.617,-874.225 1024.617,-873.612 
		1058.387,-872.949 1062.466,-901.169 	"/>
	<polygon fill="none" stroke="#498C9B" stroke-width="0.5" points="1024.586,-873.557 1058.416,-872.975 1054.704,-847.945 
		1051.778,-849.436 1049.833,-851.386 1047.029,-852.115 1046.206,-852.028 1046.604,-850.382 1045.142,-849.137 1043.223,-849.137 
		1040.483,-850.261 1039.784,-851.024 1039.296,-852.209 1038.351,-853.302 1036.309,-854.857 1036.192,-856.471 1031.559,-859.397 
		1030.282,-859.397 1029.733,-860.065 1029.43,-861.462 1029.157,-862.169 1028.001,-862.899 1026.751,-862.105 1022.153,-864.508 
		1021.909,-865.333 1022.242,-867.313 1021.207,-868.288 1021.087,-870.207 1022.337,-871.274 1024.251,-870.631 1024.772,-871.578 
			"/>
	<polygon fill="none" stroke="#498C9B" stroke-width="0.5" points="1022.638,-817.984 1034.851,-818.076 1035.123,-837.016 
		1027.909,-837.229 1028.025,-848.647 1026.14,-848.891 1026.14,-851.232 1024.863,-851.693 1024.681,-852.544 1019.776,-852.605 
		1019.776,-857.391 996.696,-857.326 998.098,-854.401 999.011,-853.302 999.618,-854.037 1002.056,-852.088 1002.636,-851.051 
		1002.787,-850.079 1003.789,-848.309 1003.456,-846.972 1005.464,-844.476 1006.806,-843.347 1007.477,-841.617 1008.177,-842.073 
		1009.272,-839.391 1010.127,-839.481 1010.675,-839.331 1010.735,-838.566 1011.312,-837.837 1012.83,-837.924 1013.259,-836.924 
		1012.617,-836.07 1013.534,-834.825 1013.506,-832.781 1013.868,-831.383 1014.602,-830.56 1015.82,-829.436 1017.831,-826.358 
		1018.071,-824.744 1017.403,-823.161 1017.859,-822.492 1017.708,-820.846 1018.681,-820.175 1019.81,-820.175 1020.354,-820.846 
		1022.426,-818.655 	"/>
	<polygon fill="none" stroke="#498C9B" stroke-width="0.5" points="984.183,-890.396 985.614,-890.698 986.373,-891.67 
		986.433,-892.126 987.652,-892.889 990.669,-890.086 990.669,-889.387 989.906,-889.053 989.964,-888.32 992.066,-888.385 
		992.219,-886.645 1000.837,-886.524 1001.144,-880.04 1004.829,-879.827 1004.829,-877.271 1007.81,-877.271 1007.752,-872.547 
		1013.11,-872.273 1014.234,-873.708 1024.651,-873.643 1024.617,-874.165 1022.3,-874.927 1022.216,-876.846 1021.268,-877.698 
		1022.216,-878.972 1022.337,-880.102 1021.33,-880.256 1019.196,-885.218 1017.403,-885.248 1015.394,-887.956 1015.514,-889.085 
		1014.355,-889.085 1013.991,-890 1014.083,-892.829 1012.774,-894.41 1010.581,-895.78 1010.035,-896.454 1008.114,-896.757 
		1005.771,-896.089 1004.735,-896.514 1003.214,-898.281 1002.085,-899.895 1001.052,-901.811 992.158,-901.903 986.829,-907.961 
		986.676,-904.399 985.827,-904.058 985.034,-904.947 983.874,-905.801 983.48,-905.801 982.964,-905.253 982.994,-902.967 
		982.23,-902.514 981.105,-901.751 980.347,-900.564 979.126,-897.884 978.702,-897.607 977.636,-898.553 976.386,-898.949 
		975.108,-898.797 972.763,-897.09 972.884,-896.089 973.22,-895.819 974.014,-895.66 974.618,-895.481 974.438,-894.689 
		974.683,-893.958 975.503,-893.62 975.716,-891.064 977.575,-889.297 982.174,-887.716 983.051,-887.531 983.298,-889.543 	"/>
	<polygon fill="none" stroke="#498C9B" stroke-width="0.5" points="954.037,-928.362 958.604,-932.234 959.73,-931.135 
		962.654,-931.683 965.183,-931.5 966.46,-934.391 967.098,-935.001 969.991,-935.518 970.847,-934.876 970.814,-931.896 
		975.2,-931.804 975.656,-931.227 978.397,-931.135 978.485,-927.083 978.368,-924.375 977.602,-921.115 975.597,-917.738 
		966.581,-920.082 966.159,-918.074 963.292,-918.226 960.037,-920.234 958.146,-919.809 957.722,-919.96 957.962,-923.065 
		956.716,-924.158 955.742,-926.6 	"/>
	<polygon fill="none" stroke="#498C9B" stroke-width="0.5" points="940.456,-841.218 940.792,-867.923 940.914,-874.558 
		943.923,-874.621 944.351,-879.798 940.306,-879.861 940.091,-883.268 936.375,-883.36 936.252,-888.351 937.96,-888.32 
		939.452,-894.535 937.837,-894.959 939.24,-898.797 940.12,-898.857 941.186,-897.945 941.949,-897.764 943.167,-897.576 
		943.259,-898.797 942.708,-900.016 942.65,-900.897 938.296,-900.961 938.358,-903.093 940.792,-903.18 941.4,-908.569 
		930.073,-911.521 928.823,-909.82 926.021,-910.517 924.38,-906.959 921.639,-907.02 920.636,-905.067 912.717,-904.855 
		913.233,-895.138 911.405,-888.351 910.13,-888.597 909.489,-884.545 911.163,-884.181 911.286,-881.413 919.264,-879.216 
		919.964,-877.722 921.214,-876.264 923.466,-875.378 924.351,-874.013 924.044,-871.087 924.164,-869.294 925.141,-867.129 
		926.663,-862.899 927.028,-856.292 928.121,-854.096 929.524,-853.824 930.104,-853.215 930.133,-852.362 928.673,-852.328 
		927.575,-851.263 927.546,-849.68 928.581,-848.283 928.673,-847.397 930.015,-846.608 930.439,-845.357 929.74,-843.774 
		928.643,-842.498 928.857,-838.445 	"/>
	<g>
		<polygon fill="none" stroke="#498C9B" stroke-width="0.5" points="974.894,-870.663 975.474,-870.663 975.898,-871.117 
			976.509,-870.784 977.179,-871.722 978.063,-872.34 978.637,-871.881 979.247,-871.848 979.612,-872.458 979.95,-872.49 
			980.282,-871.909 980.589,-871.942 981.046,-872.247 981.504,-872.214 982.174,-871.638 982.749,-872.155 983.603,-871.638 
			983.388,-870.354 984.396,-869.717 984.487,-869.017 985.641,-867.767 986.741,-868.223 987.074,-867.832 986.556,-867.19 
			986.89,-866.577 989.114,-866.577 990.302,-867.221 990.425,-864.846 991.642,-863.045 992.407,-862.589 992.771,-862.53 
			993.5,-862.044 994.381,-861.953 995.356,-860.828 994.478,-860.034 995.931,-858.789 996.696,-857.265 998.063,-854.372 
			998.981,-853.302 999.618,-854.068 1002.022,-852.028 1002.661,-851.051 1002.728,-850.079 1003.789,-848.283 1003.397,-847.038 
			1005.526,-844.412 1006.806,-843.287 1007.417,-841.52 1008.177,-842.133 1009.243,-839.36 1010.093,-839.481 1010.644,-839.331 
			1010.735,-838.6 1011.28,-837.805 1012.774,-837.897 1013.23,-836.896 1012.593,-836.102 1013.565,-834.851 1013.474,-832.754 
			1013.901,-831.444 1014.51,-830.681 1015.82,-829.462 1017.92,-826.327 998.063,-829.795 998.063,-835.066 993.896,-838.023 
			993.833,-839.42 990.302,-839.85 988.868,-840.211 987.925,-841.187 987.836,-843.839 986.588,-845.053 984.822,-845.847 
			982.813,-846.026 982.657,-846.88 981.688,-847.064 974.986,-858.754 		"/>
		<polygon fill="none" stroke="#498C9B" stroke-width="0.5" points="950.229,-1036.733 952.515,-1036.885 953.608,-1035.488 
			960.981,-1034.117 961.466,-1036.702 965.091,-1036.487 965.304,-1035.331 968.104,-1029.584 967.708,-1028.418 
			969.718,-1025.589 971.578,-1023.705 972.854,-1024.036 973.491,-1023.002 974.163,-1020.719 974.226,-1016.727 
			973.005,-1015.815 972.64,-1014.08 971.394,-1010.974 971.848,-1008.447 972.491,-1007.257 974.134,-1004.824 974.226,-1003.813 
			975.533,-1003.513 975.563,-1002.14 977.025,-999.737 977.97,-997.272 978.549,-994.564 978.669,-993.194 972.763,-993.281 
			971.423,-990.143 970.937,-986.554 970.906,-983.969 968.866,-983.969 967.435,-981.345 967.435,-978.638 963.659,-978.604 
			963.718,-980.308 959.519,-980.556 956.29,-981.619 955.255,-980.643 955.01,-980.035 952.694,-980.556 952.88,-983.264 
			951.783,-983.72 950.901,-984.696 949.712,-984.24 948.649,-985.521 947.401,-987.404 947.823,-989.991 939.24,-990.025 
			938.934,-994.313 938.507,-996.995 939.728,-998.643 939.146,-1001.899 941.186,-1003.084 941.214,-1005.917 940.397,-1007.991 
			940.914,-1009.605 942.772,-1012.28 944.202,-1013.928 945.478,-1017.396 944.351,-1017.978 		"/>
		<polygon fill="none" stroke="#498C9B" stroke-width="0.5" points="972.548,-1007.32 1064.78,-1007.015 1065.087,-978.665 
			1029.978,-979.731 1029.763,-977.566 1018.651,-977.566 1018.071,-978.638 1011.372,-978.758 1011.008,-979.915 997.673,-979.823 
			996.485,-981.073 989.906,-980.981 989.844,-974.038 983.174,-973.946 983.051,-972.242 975.775,-972.455 975.474,-976.381 
			976.233,-977.295 976.356,-980.126 975.745,-980.643 976.233,-981.373 976.082,-982.777 975.353,-984.171 975.474,-988.806 
			976.325,-990.143 977.695,-989.964 978.245,-990.998 978.583,-992.277 978.702,-993.22 978.519,-994.5 977.907,-997.208 
			977.087,-999.737 975.533,-1002.14 975.533,-1003.513 974.075,-1003.813 974.163,-1004.792 		"/>
		<polygon fill="none" stroke="#498C9B" stroke-width="0.5" points="997.7,-933.235 1001.786,-931.466 1003.183,-931.956 
			1004.339,-930.95 1013.66,-930.706 1013.687,-928.029 1022.609,-927.911 1023.553,-929.123 1027.45,-929.096 1028.729,-927.754 
			1041.638,-927.573 1041.671,-929.216 1065.328,-928.792 1065.058,-978.698 1030.038,-979.731 1029.733,-977.631 
			1018.617,-977.566 1018.043,-978.604 1011.372,-978.758 1010.887,-979.949 997.581,-979.823 997.485,-977.448 998.429,-976.198 
			998.465,-974.95 997.521,-974.159 997.521,-970.478 996.787,-969.225 996.908,-968.375 998.063,-968.006 998.522,-965.757 
			997.553,-964.598 997.64,-963.259 998.585,-962.129 998.706,-960.52 998.007,-959.453 998.253,-957.868 997.485,-956.892 
			997.978,-955.951 997.215,-954.583 997.215,-953.912 999.346,-953.82 999.406,-948.824 998.038,-946.941 998.007,-943.13 
			999.162,-942.766 1000.231,-941.759 999.466,-938.383 999.503,-936.92 		"/>
		<polygon fill="none" stroke="#498C9B" stroke-width="0.5" points="983.051,-972.242 983.209,-973.917 989.875,-974.011 
			989.936,-980.917 996.515,-980.981 997.673,-979.823 997.456,-977.505 998.465,-976.168 998.401,-974.923 997.521,-974.098 
			997.485,-970.444 996.819,-969.199 996.939,-968.375 998.127,-967.949 998.522,-965.815 997.521,-964.598 997.64,-963.259 
			998.585,-962.161 998.706,-960.486 998.063,-959.453 998.253,-957.812 997.485,-956.866 997.978,-955.98 997.243,-954.64 
			997.272,-953.912 999.406,-953.757 999.406,-948.763 998.007,-946.91 998.007,-943.104 999.283,-942.735 1000.231,-941.759 
			999.466,-938.444 999.503,-936.889 997.765,-933.266 996.428,-932.871 996.428,-931.102 991.794,-930.983 987.925,-930.22 
			986.923,-930.194 987.806,-927.937 984.001,-926.231 982.874,-925.442 980.011,-927.633 978.519,-927.083 978.397,-931.167 
			975.656,-931.227 975.108,-931.804 970.814,-931.896 970.878,-934.85 968.528,-936.708 967.098,-936.708 966.126,-937.468 
			963.962,-940.755 964.999,-942.189 965.971,-948.976 968.897,-948.737 968.956,-951.199 969.626,-952.908 968.439,-953.576 
			967.253,-954.097 966.581,-955.07 966.614,-956.375 967.098,-958.084 966.555,-958.876 965.333,-959.579 964.543,-960.884 
			961.894,-960.792 960.796,-961.123 960.827,-962.042 961.714,-962.344 961.737,-962.955 964.755,-963.015 964.603,-969.474 
			962.167,-969.437 962.317,-973.096 966.886,-972.911 966.886,-971.506 969.656,-971.542 970.267,-972.455 		"/>
		<polygon fill="none" stroke="#498C9B" stroke-width="0.5" points="940.091,-933.969 943.014,-939.384 942.952,-942.158 
			941.459,-943.739 937.989,-944.32 936.284,-947 935.278,-947.214 935.039,-954.583 933.938,-955.767 932.57,-957.507 
			929.888,-957.655 929.767,-959.39 928.121,-960.916 926.784,-960.546 925.657,-958.111 924.926,-957.138 924.229,-953.364 
			921.122,-951.046 919.355,-951.107 918.777,-949.589 919.143,-947.393 918.865,-945.717 917.677,-944.103 918.349,-943.009 
			919.017,-943.009 919.355,-943.316 920.087,-943.316 920.815,-942.038 920.815,-941.337 920.211,-940.21 919.535,-940.237 
			919.049,-940.606 918.409,-939.781 917.528,-937.987 918.777,-935.306 919.629,-932.81 920.694,-933.387 921.303,-934.85 
			923.037,-934.913 923.709,-933.969 926.479,-936.066 926.602,-933.817 927.944,-933.663 929.003,-935.882 930.833,-935.915 
			932.054,-934.85 934.913,-936.371 936.163,-936.187 		"/>
		<polygon fill="none" stroke="#498C9B" stroke-width="0.5" points="986.89,-930.158 987.925,-930.22 990.21,-930.65 
			991.794,-930.983 996.452,-931.07 996.452,-932.871 997.733,-933.207 1001.752,-931.5 1003.214,-931.956 1004.401,-930.983 
			1013.66,-930.706 1013.66,-927.998 1022.58,-927.937 1023.582,-929.123 1027.479,-929.096 1028.759,-927.754 1041.671,-927.513 
			1041.733,-929.183 1065.362,-928.852 1065.299,-920.569 1062.437,-901.14 1001.052,-901.843 1002.056,-903.093 1002.636,-905.28 
			1002.756,-906.651 1002.606,-907.809 1000.96,-910.124 999.131,-911.919 997.06,-913.196 996.239,-912.375 995.081,-911.984 
			993.317,-912.103 992.771,-912.745 992.827,-915.851 989.752,-918.438 989.448,-919.353 990.392,-920.721 990.239,-922.973 
			988.811,-925.442 		"/>
		<polygon fill="none" stroke="#498C9B" stroke-width="0.5" points="1014.203,-857.411 1014.452,-868.776 1007.66,-868.865 
			1007.81,-877.271 1004.855,-877.271 1004.829,-879.798 1001.144,-880.071 1000.837,-886.524 992.25,-886.676 992.103,-888.351 
			989.998,-888.32 989.936,-889.053 990.669,-889.418 990.669,-890.118 987.652,-892.889 986.433,-892.126 986.373,-891.702 
			985.641,-890.698 984.213,-890.396 983.269,-889.57 982.994,-886.954 982.657,-886.281 982.69,-885.73 982.174,-885.4 
			980.923,-883.85 979.979,-881.593 979.95,-879.552 977.146,-877.177 978.485,-873.523 976.539,-872.458 974.868,-871.087 
			974.894,-870.603 975.503,-870.694 975.898,-871.148 976.477,-870.81 977.212,-871.756 978.063,-872.34 978.612,-871.848 
			979.277,-871.848 979.584,-872.427 979.95,-872.458 980.282,-871.942 980.589,-871.968 981.012,-872.247 981.469,-872.214 
			982.142,-871.638 982.69,-872.155 983.603,-871.638 983.388,-870.328 984.428,-869.717 984.517,-868.988 985.614,-867.803 
			986.711,-868.259 987.106,-867.803 986.588,-867.221 986.862,-866.613 989.144,-866.613 990.273,-867.221 990.457,-864.752 
			991.673,-863.08 992.373,-862.589 992.74,-862.53 993.469,-862.044 994.323,-861.987 995.386,-860.828 994.444,-860.034 
			995.906,-858.789 996.667,-857.326 999.131,-857.352 		"/>
		<polygon fill="none" stroke="#498C9B" stroke-width="0.5" points="975.078,-898.765 976.325,-898.917 977.636,-898.553 
			978.702,-897.638 979.097,-897.856 980.347,-900.597 981.136,-901.722 982.23,-902.542 982.994,-902.88 982.994,-905.253 
			983.452,-905.83 983.874,-905.83 985.063,-904.92 985.796,-904.035 986.676,-904.338 986.829,-907.961 975.597,-917.738 
			966.581,-920.113 966.126,-918.042 963.292,-918.194 960.037,-920.265 958.146,-919.775 958.755,-917.982 959.093,-915.969 
			959.825,-913.837 959.976,-910.765 959.73,-909.699 958.728,-909.001 958.728,-908.485 959.456,-907.719 959.456,-906.868 
			958.97,-906.53 958.787,-904.368 959.304,-904.058 958.876,-903.489 959.244,-903.062 959.945,-902.967 960.312,-904.125 
			960.675,-904.005 960.495,-903.093 961.161,-902.664 961.804,-903.518 963.718,-901.327 964.449,-901.14 965.428,-900.228 
			968.683,-899.287 969.963,-899.439 971.026,-898.857 971.515,-898.674 972.792,-897.117 		"/>
		<polygon fill="none" stroke="#498C9B" stroke-width="0.5" points="958.179,-919.809 958.787,-917.948 959.059,-916.063 
			959.825,-913.806 959.976,-910.765 959.763,-909.759 958.728,-909.001 958.728,-908.449 959.424,-907.749 959.456,-906.868 
			952.638,-902.598 945.359,-902.697 944.202,-901.169 943.622,-900.897 938.261,-901.017 938.358,-903.093 940.792,-903.154 
			941.368,-908.6 941.949,-908.967 942.495,-911.255 943.534,-912.136 944.536,-912.254 944.808,-914.236 950.538,-913.322 
			953.608,-919.717 957.659,-919.744 957.691,-920.021 		"/>
		<polygon fill="none" stroke="#498C9B" stroke-width="0.5" points="930.833,-935.915 932.054,-934.816 934.913,-936.404 
			936.224,-936.187 940.091,-933.969 943.079,-939.476 944.351,-938.687 944.841,-937.437 945.511,-936.556 946.669,-936.1 
			947.368,-934.545 948.435,-933.843 949.685,-932.021 950.563,-931.744 951.906,-930.679 954.037,-928.362 954.771,-927.665 
			955.712,-926.687 956.716,-924.131 957.934,-923.093 957.691,-919.744 953.58,-919.717 950.563,-913.29 944.808,-914.236 
			944.536,-912.254 943.501,-912.136 942.495,-911.255 941.949,-908.938 941.4,-908.6 938.112,-909.518 939.419,-921.667 
			936.985,-921.723 937.019,-923.49 936.163,-923.979 932.724,-924.315 931.774,-924.735 931.991,-926.106 931.626,-926.627 
			930.985,-926.718 930.651,-927.238 931.017,-927.846 931.017,-928.394 930.345,-929.036 		"/>
		<polygon fill="none" stroke="#498C9B" stroke-width="0.5" points="920.237,-931.775 919.57,-932.871 920.728,-933.387 
			921.335,-934.913 923.011,-934.942 923.678,-933.969 926.479,-936.04 926.602,-933.817 927.944,-933.631 929.003,-935.882 
			930.833,-935.882 930.316,-928.97 931.017,-928.427 931.017,-927.812 930.651,-927.204 930.985,-926.748 931.655,-926.627 
			931.991,-926.079 931.774,-924.735 932.753,-924.315 936.192,-923.979 937.019,-923.49 936.985,-921.723 939.419,-921.667 
			938.112,-909.518 930.042,-911.495 928.823,-909.82 925.993,-910.461 924.407,-906.959 921.639,-906.986 920.636,-905.067 
			912.745,-904.947 912.566,-907.537 910.245,-917.062 910.463,-921.054 911.562,-921.788 911.864,-924.464 912.96,-924.858 
			913.782,-924.223 914.514,-923.25 916.858,-924.071 918.897,-928.91 917.89,-930.008 918.865,-931.102 		"/>
		<polygon fill="none" stroke="#498C9B" stroke-width="0.5" points="960.949,-894.079 961.804,-894.868 969.901,-899.465 
			970.966,-898.886 971.515,-898.674 972.763,-897.182 972.854,-896.176 973.252,-895.819 974.618,-895.481 974.47,-894.689 
			974.712,-893.985 975.533,-893.593 975.716,-891.125 977.602,-889.297 982.079,-887.744 983.086,-887.565 982.994,-886.889 
			982.69,-886.281 982.657,-885.704 982.174,-885.4 980.923,-883.785 979.95,-881.593 979.919,-879.552 977.146,-877.177 
			978.485,-873.557 976.477,-872.427 974.831,-871.087 973.403,-872.032 972.214,-872.247 970.42,-873.612 970.635,-874.742 
			968.593,-874.802 966.308,-876.173 965.364,-877.45 964.543,-877.879 963.749,-876.721 962.469,-876.721 960.888,-875.992 
			960.339,-876.325 959.155,-877.662 957.292,-878.488 955.712,-878.634 954.189,-880.986 954.157,-882.049 953.977,-882.6 
			954.249,-883.876 956.837,-886.22 956.837,-887.227 956.535,-888.016 958.728,-888.172 959.396,-888.75 959.396,-889.297 		"/>
		<polygon fill="none" stroke="#498C9B" stroke-width="0.5" points="954.189,-880.889 954.157,-882.018 953.977,-882.566 
			954.249,-883.911 956.807,-886.16 956.868,-887.196 956.563,-888.016 958.695,-888.172 959.396,-888.75 959.365,-889.266 
			960.919,-894.079 961.737,-894.868 969.931,-899.439 968.683,-899.313 966.886,-899.83 965.364,-900.32 964.359,-901.169 
			963.659,-901.353 961.771,-903.549 961.132,-902.637 960.46,-903.12 960.675,-904.035 960.312,-904.125 959.976,-902.936 
			959.182,-903.062 958.847,-903.458 959.333,-904.125 958.787,-904.338 958.97,-906.53 952.638,-902.637 945.39,-902.721 
			944.232,-901.201 943.681,-900.897 942.65,-900.928 942.681,-900.042 943.259,-898.857 943.167,-897.576 942.009,-897.699 
			941.214,-897.945 940.091,-898.886 939.272,-898.831 937.869,-894.991 939.419,-894.503 937.929,-888.32 936.284,-888.351 
			936.375,-883.389 940.091,-883.268 940.306,-879.827 944.351,-879.766 943.923,-874.589 940.973,-874.53 940.824,-867.923 
			953.46,-867.832 955.377,-875.227 955.742,-878.608 		"/>
		<polygon fill="none" stroke="#498C9B" stroke-width="0.5" points="940.424,-841.153 940.792,-867.923 953.46,-867.859 
			955.405,-875.227 955.742,-878.608 957.292,-878.456 959.059,-877.698 959.852,-876.873 960.368,-876.325 960.888,-875.992 
			962.469,-876.721 963.718,-876.721 964.543,-877.879 965.364,-877.45 966.274,-876.205 968.593,-874.802 970.635,-874.742 
			970.42,-873.677 972.187,-872.247 973.37,-872.06 974.868,-871.087 974.986,-858.692 981.714,-847.064 982.657,-846.88 
			982.813,-846.026 984.731,-845.878 986.556,-845.08 987.836,-843.839 987.959,-841.153 988.811,-840.272 990.273,-839.816 
			993.833,-839.42 993.896,-838.023 998.063,-835.129 998.098,-829.74 989.815,-831.167 989.788,-832.417 989.114,-832.387 
			989.296,-835.003 987.868,-835.281 983.147,-834.214 980.194,-834.303 979.277,-834.946 978.549,-836.253 974.804,-836.924 
			976.509,-838.718 974.288,-839.268 973.158,-838.87 971.093,-835.95 967.343,-836.375 965.669,-841.245 953.765,-844.259 		"/>
	</g>
	<polygon fill="none" stroke="#498C9B" stroke-width="0.5" points="969.963,-935.518 968.499,-936.643 967.13,-936.643 
		966.126,-937.498 963.933,-940.847 965.058,-942.281 966.063,-948.976 968.956,-948.737 968.956,-951.02 969.626,-952.934 
		967.253,-954.061 966.555,-954.947 966.643,-956.344 967.222,-957.991 966.581,-958.965 965.333,-959.547 964.572,-960.884 
		961.926,-960.792 960.857,-961.123 960.888,-962.074 961.714,-962.374 961.679,-964.173 960.431,-964.114 960.368,-966.213 
		953.003,-966.336 953.185,-959.39 946.089,-959.39 944.902,-960.486 943.714,-960.459 942.65,-959.547 942.466,-957.566 
		943.259,-956.344 943.014,-955.586 942.134,-955.34 942.164,-953.702 941.521,-953.207 941.737,-951.445 940.332,-951.411 
		940.091,-952.543 938.388,-952.57 938.232,-955.251 935.13,-954.515 935.278,-947.241 936.284,-947.062 938.081,-944.289 
		939.36,-944.077 941.459,-943.712 942.921,-942.158 943.041,-939.507 944.384,-938.622 944.841,-937.376 945.543,-936.525 
		946.669,-936.066 947.368,-934.577 948.435,-933.817 949.712,-931.988 950.563,-931.744 951.937,-930.679 954.007,-928.362 
		958.604,-932.2 959.699,-931.135 961.497,-931.466 962.654,-931.683 965.213,-931.5 966.46,-934.36 967.098,-935.033 	"/>
	<polygon fill="none" stroke="#498C9B" stroke-width="0.5" points="1021.087,-870.178 1021.238,-868.288 1022.271,-867.282 
		1021.909,-865.363 1022.153,-864.54 1026.872,-862.197 1028.001,-862.925 1029.218,-862.138 1029.792,-860.065 1030.374,-859.336 
		1031.655,-859.366 1036.25,-856.412 1036.371,-854.888 1038.379,-853.274 1039.359,-852.27 1039.876,-850.959 1040.542,-850.291 
		1043.38,-849.164 1045.202,-849.195 1046.604,-850.407 1046.206,-851.997 1047.061,-852.175 1049.954,-851.329 1051.778,-849.408 
		1054.733,-847.945 1052.783,-834.549 1035.095,-834.487 1035.123,-837.016 1027.938,-837.229 1028.06,-848.647 1026.108,-848.862 
		1026.14,-851.232 1024.832,-851.693 1024.681,-852.544 1019.776,-852.639 1019.776,-857.391 1014.203,-857.411 1014.452,-868.776 
		1007.66,-868.831 1007.752,-872.582 1013.139,-872.273 1014.295,-873.708 1024.56,-873.523 1024.743,-871.543 1024.251,-870.631 
		1022.368,-871.274 	"/>
</g>
</svg>
