<?xml version="1.0" encoding="utf-8"?>
<!-- Generator: Adobe Illustrator 16.0.0, SVG Export Plug-In . SVG Version: 6.00 Build 0)  -->
<!DOCTYPE svg PUBLIC "-//W3C//DTD SVG 1.1//EN" "http://www.w3.org/Graphics/SVG/1.1/DTD/svg11.dtd">
<svg version="1.1" id="Capa_1" xmlns="http://www.w3.org/2000/svg" xmlns:xlink="http://www.w3.org/1999/xlink" x="0px" y="0px"
	 width="164px" height="262.667px" viewBox="695.99 -1050.167 164 262.667" enable-background="new 695.99 -1050.167 164 262.667"
	 xml:space="preserve">
<g>
	<polygon fill="none" stroke="#498C9B" stroke-width="0.5" points="758.101,-1036.547 758.252,-1035.391 761.021,-1029.642 
		760.688,-1028.332 762.576,-1025.59 764.588,-1023.671 765.803,-1023.944 766.446,-1023.002 767.143,-1020.719 767.205,-1016.788 
		765.984,-1015.878 765.56,-1013.807 764.373,-1011.034 764.433,-1009.818 764.736,-1008.567 765.406,-1007.375 857.76,-1007.016 
		857.215,-1037.739 781.605,-1038.287 779.747,-1035.362 774.025,-1035.362 768.359,-1036.673 	"/>
	<polygon fill="none" stroke="#498C9B" stroke-width="0.5" points="755.207,-969.503 755.297,-973.065 759.835,-972.884 
		759.926,-971.477 762.605,-971.542 763.188,-972.455 768.791,-972.394 768.453,-976.294 769.244,-977.207 769.336,-980.009 
		768.695,-980.704 769.213,-981.372 768.967,-982.929 768.238,-984.297 768.395,-988.774 769.336,-990.177 770.615,-989.991 
		771.283,-990.997 771.743,-993.22 765.654,-993.28 764.433,-990.143 763.916,-986.706 763.886,-983.933 761.813,-983.902 
		760.476,-981.372 760.502,-978.604 756.697,-978.638 756.729,-980.339 752.498,-980.525 749.359,-981.584 748.234,-980.644 
		748.052,-980.035 745.674,-980.704 745.798,-983.265 744.671,-983.721 743.939,-984.696 742.664,-984.271 740.407,-987.435 
		740.867,-990.085 732.34,-990.025 732.887,-987.104 732.34,-984.968 728.656,-986.038 727.347,-979.702 725.609,-979.888 
		725.336,-978.42 723.753,-979.063 723.204,-978.061 723.569,-976.441 722.566,-975.379 722.354,-968.192 721.041,-963.805 
		721.041,-960.916 722.688,-959.421 722.867,-957.655 725.487,-957.626 726.918,-955.741 728.043,-954.609 731.182,-955.251 
		731.367,-952.57 733.037,-952.604 733.285,-951.411 734.686,-951.505 734.53,-953.303 735.17,-953.757 735.113,-955.34 
		736.021,-955.676 736.204,-956.315 735.418,-957.534 735.563,-959.605 736.634,-960.394 737.914,-960.459 739.098,-959.421 
		746.072,-959.453 745.918,-966.365 753.348,-966.273 753.41,-964.174 754.599,-964.261 754.717,-962.923 757.644,-962.955 
		757.582,-969.529 	"/>
	<polygon fill="none" stroke="#498C9B" stroke-width="0.5" points="794.031,-901.812 795.035,-903.093 795.615,-905.372 
		795.735,-906.687 795.552,-907.809 793.969,-910.092 792.05,-911.951 790.039,-913.196 789.219,-912.375 788.031,-911.951 
		786.297,-912.071 785.72,-912.773 785.84,-915.817 782.731,-918.438 782.428,-919.384 783.371,-920.695 783.253,-922.946 
		781.79,-925.382 780.785,-927.938 776.98,-926.2 775.882,-925.408 772.99,-927.665 771.498,-927.083 771.348,-924.404 
		770.581,-921.115 768.576,-917.738 779.777,-907.997 785.169,-901.875 	"/>
	<polygon fill="none" stroke="#498C9B" stroke-width="0.5" points="747.017,-928.362 751.583,-932.233 752.71,-931.135 
		755.634,-931.683 758.162,-931.5 759.439,-934.391 760.077,-935.002 762.971,-935.519 763.826,-934.876 763.794,-931.896 
		768.18,-931.804 768.636,-931.227 771.377,-931.135 771.465,-927.083 771.348,-924.375 770.581,-921.115 768.576,-917.738 
		759.561,-920.082 759.139,-918.074 756.271,-918.226 753.017,-920.234 751.125,-919.809 750.701,-919.961 750.941,-923.065 
		749.695,-924.158 748.722,-926.601 	"/>
	<polygon fill="none" stroke="#498C9B" stroke-width="0.5" points="733.436,-841.218 733.771,-867.923 733.894,-874.558 
		736.902,-874.621 737.33,-879.798 733.285,-879.861 733.07,-883.269 729.354,-883.361 729.231,-888.351 730.939,-888.32 
		732.432,-894.535 730.816,-894.959 732.22,-898.797 733.1,-898.857 734.165,-897.945 734.929,-897.764 736.146,-897.576 
		736.238,-898.797 735.688,-900.016 735.63,-900.897 731.275,-900.962 731.338,-903.093 733.771,-903.18 734.38,-908.569 
		723.053,-911.521 721.803,-909.819 719,-910.517 717.359,-906.959 714.618,-907.02 713.615,-905.067 705.696,-904.855 
		706.213,-895.138 704.385,-888.351 703.109,-888.597 702.469,-884.545 704.143,-884.181 704.266,-881.413 712.243,-879.216 
		712.943,-877.722 714.193,-876.265 716.445,-875.378 717.33,-874.013 717.023,-871.087 717.144,-869.294 718.12,-867.129 
		719.643,-862.899 720.008,-856.293 721.101,-854.097 722.504,-853.824 723.083,-853.216 723.112,-852.362 721.652,-852.328 
		720.555,-851.263 720.525,-849.68 721.561,-848.283 721.652,-847.397 722.994,-846.608 723.419,-845.358 722.72,-843.774 
		721.622,-842.498 721.837,-838.445 	"/>
	<g>
		<polygon fill="none" stroke="#498C9B" stroke-width="0.5" points="767.873,-870.663 768.453,-870.663 768.878,-871.117 
			769.488,-870.784 770.158,-871.722 771.043,-872.34 771.616,-871.881 772.227,-871.848 772.592,-872.458 772.93,-872.49 
			773.262,-871.909 773.568,-871.942 774.025,-872.247 774.483,-872.214 775.153,-871.638 775.729,-872.155 776.582,-871.638 
			776.367,-870.354 777.375,-869.717 777.467,-869.017 778.62,-867.767 779.721,-868.223 780.054,-867.832 779.535,-867.19 
			779.869,-866.577 782.094,-866.577 783.281,-867.221 783.404,-864.846 784.621,-863.046 785.387,-862.589 785.751,-862.53 
			786.479,-862.044 787.36,-861.953 788.336,-860.828 787.457,-860.034 788.91,-858.789 789.676,-857.266 791.043,-854.372 
			791.961,-853.302 792.598,-854.068 795.002,-852.029 795.641,-851.051 795.707,-850.079 796.769,-848.283 796.377,-847.038 
			798.506,-844.412 799.785,-843.287 800.396,-841.52 801.156,-842.133 802.223,-839.36 803.072,-839.481 803.623,-839.331 
			803.715,-838.6 804.26,-837.806 805.754,-837.897 806.21,-836.896 805.572,-836.102 806.545,-834.851 806.453,-832.754 
			806.881,-831.444 807.489,-830.681 808.8,-829.462 810.899,-826.327 791.043,-829.795 791.043,-835.066 786.875,-838.023 
			786.813,-839.42 783.281,-839.85 781.848,-840.212 780.904,-841.187 780.815,-843.839 779.567,-845.053 777.802,-845.847 
			775.793,-846.026 775.637,-846.88 774.667,-847.064 767.966,-858.754 		"/>
		<polygon fill="none" stroke="#498C9B" stroke-width="0.5" points="743.208,-1036.733 745.494,-1036.885 746.588,-1035.488 
			753.961,-1034.117 754.445,-1036.702 758.07,-1036.489 758.283,-1035.331 761.084,-1029.582 760.688,-1028.418 762.697,-1025.59 
			764.558,-1023.705 765.834,-1024.036 766.471,-1023.002 767.143,-1020.719 767.205,-1016.728 765.984,-1015.815 765.619,-1014.08 
			764.373,-1010.974 764.827,-1008.447 765.471,-1007.257 767.113,-1004.824 767.205,-1003.813 768.513,-1003.514 768.543,-1002.14 
			770.005,-999.736 770.949,-997.272 771.528,-994.564 771.648,-993.193 765.742,-993.28 764.402,-990.143 763.916,-986.554 
			763.886,-983.969 761.846,-983.969 760.414,-981.346 760.414,-978.638 756.639,-978.604 756.697,-980.308 752.498,-980.557 
			749.27,-981.619 748.234,-980.644 747.989,-980.035 745.674,-980.557 745.859,-983.265 744.763,-983.721 743.881,-984.696 
			742.691,-984.24 741.629,-985.521 740.381,-987.404 740.803,-989.991 732.22,-990.025 731.913,-994.313 731.486,-996.995 
			732.707,-998.643 732.125,-1001.899 734.165,-1003.084 734.193,-1005.917 733.377,-1007.991 733.894,-1009.605 735.752,-1012.279 
			737.182,-1013.928 738.457,-1017.396 737.33,-1017.978 		"/>
		<polygon fill="none" stroke="#498C9B" stroke-width="0.5" points="765.527,-1007.32 857.76,-1007.016 858.066,-978.665 
			822.957,-979.731 822.742,-977.566 811.631,-977.566 811.051,-978.638 804.352,-978.758 803.987,-979.915 790.652,-979.823 
			789.465,-981.073 782.886,-980.981 782.823,-974.038 776.153,-973.946 776.03,-972.242 768.755,-972.455 768.453,-976.381 
			769.213,-977.296 769.336,-980.127 768.725,-980.644 769.213,-981.372 769.062,-982.777 768.332,-984.172 768.453,-988.806 
			769.305,-990.143 770.675,-989.964 771.225,-990.997 771.563,-992.276 771.682,-993.22 771.498,-994.5 770.887,-997.207 
			770.066,-999.736 768.513,-1002.14 768.513,-1003.514 767.055,-1003.813 767.143,-1004.793 		"/>
		<polygon fill="none" stroke="#498C9B" stroke-width="0.5" points="790.68,-933.235 794.766,-931.466 796.162,-931.956 
			797.318,-930.95 806.64,-930.706 806.666,-928.029 815.589,-927.911 816.532,-929.123 820.43,-929.096 821.709,-927.754 
			834.617,-927.573 834.65,-929.217 858.308,-928.792 858.037,-978.698 823.018,-979.731 822.713,-977.631 811.597,-977.566 
			811.022,-978.604 804.352,-978.758 803.866,-979.948 790.561,-979.823 790.465,-977.448 791.408,-976.198 791.444,-974.95 
			790.5,-974.158 790.5,-970.478 789.767,-969.225 789.888,-968.375 791.043,-968.006 791.502,-965.757 790.532,-964.599 
			790.619,-963.259 791.564,-962.129 791.686,-960.52 790.986,-959.453 791.232,-957.867 790.465,-956.892 790.957,-955.951 
			790.194,-954.583 790.194,-953.912 792.325,-953.82 792.386,-948.824 791.018,-946.941 790.986,-943.13 792.142,-942.766 
			793.211,-941.76 792.445,-938.383 792.482,-936.92 		"/>
		<polygon fill="none" stroke="#498C9B" stroke-width="0.5" points="776.03,-972.242 776.188,-973.917 782.854,-974.011 
			782.915,-980.916 789.494,-980.981 790.652,-979.823 790.436,-977.506 791.444,-976.169 791.381,-974.923 790.5,-974.098 
			790.465,-970.444 789.799,-969.199 789.919,-968.375 791.106,-967.948 791.502,-965.815 790.5,-964.599 790.619,-963.259 
			791.564,-962.161 791.686,-960.486 791.043,-959.453 791.232,-957.812 790.465,-956.866 790.957,-955.98 790.223,-954.641 
			790.252,-953.912 792.386,-953.757 792.386,-948.764 790.986,-946.91 790.986,-943.104 792.263,-942.735 793.211,-941.76 
			792.445,-938.443 792.482,-936.889 790.744,-933.267 789.407,-932.871 789.407,-931.102 784.773,-930.983 780.904,-930.221 
			779.902,-930.194 780.785,-927.938 776.98,-926.231 775.854,-925.442 772.99,-927.633 771.498,-927.083 771.377,-931.167 
			768.636,-931.227 768.088,-931.804 763.794,-931.896 763.857,-934.85 761.508,-936.708 760.077,-936.708 759.105,-937.468 
			756.941,-940.755 757.979,-942.189 758.95,-948.976 761.877,-948.737 761.936,-951.199 762.605,-952.908 761.419,-953.576 
			760.232,-954.097 759.561,-955.07 759.594,-956.375 760.077,-958.084 759.534,-958.876 758.313,-959.579 757.522,-960.884 
			754.873,-960.792 753.775,-961.123 753.807,-962.042 754.693,-962.344 754.717,-962.955 757.734,-963.015 757.582,-969.474 
			755.146,-969.438 755.297,-973.096 759.865,-972.911 759.865,-971.506 762.636,-971.542 763.246,-972.455 		"/>
		<polygon fill="none" stroke="#498C9B" stroke-width="0.5" points="733.07,-933.969 735.993,-939.385 735.932,-942.158 
			734.438,-943.739 730.969,-944.32 729.264,-947 728.258,-947.214 728.019,-954.583 726.918,-955.768 725.55,-957.508 
			722.867,-957.655 722.746,-959.39 721.101,-960.916 719.764,-960.546 718.637,-958.111 717.905,-957.138 717.209,-953.364 
			714.102,-951.047 712.335,-951.107 711.757,-949.589 712.122,-947.393 711.845,-945.718 710.656,-944.103 711.328,-943.01 
			711.996,-943.01 712.335,-943.316 713.066,-943.316 713.795,-942.037 713.795,-941.337 713.19,-940.21 712.515,-940.237 
			712.028,-940.606 711.389,-939.781 710.508,-937.987 711.757,-935.306 712.608,-932.811 713.674,-933.387 714.282,-934.85 
			716.017,-934.913 716.688,-933.969 719.459,-936.066 719.581,-933.817 720.924,-933.663 721.982,-935.883 723.813,-935.914 
			725.033,-934.85 727.893,-936.37 729.143,-936.187 		"/>
		<polygon fill="none" stroke="#498C9B" stroke-width="0.5" points="779.869,-930.158 780.904,-930.221 783.189,-930.65 
			784.773,-930.983 789.432,-931.07 789.432,-932.871 790.713,-933.206 794.731,-931.5 796.193,-931.956 797.381,-930.983 
			806.64,-930.706 806.64,-927.998 815.56,-927.938 816.562,-929.123 820.459,-929.096 821.738,-927.754 834.65,-927.513 
			834.713,-929.183 858.342,-928.852 858.278,-920.569 855.416,-901.141 794.031,-901.843 795.035,-903.093 795.615,-905.28 
			795.735,-906.65 795.586,-907.809 793.939,-910.124 792.11,-911.919 790.039,-913.196 789.219,-912.375 788.061,-911.984 
			786.297,-912.103 785.751,-912.745 785.807,-915.851 782.731,-918.438 782.428,-919.353 783.371,-920.721 783.219,-922.973 
			781.79,-925.442 		"/>
		<polygon fill="none" stroke="#498C9B" stroke-width="0.5" points="807.183,-857.411 807.432,-868.776 800.64,-868.865 
			800.789,-877.271 797.835,-877.271 797.809,-879.798 794.123,-880.071 793.816,-886.525 785.229,-886.676 785.082,-888.351 
			782.978,-888.32 782.915,-889.054 783.648,-889.418 783.648,-890.118 780.632,-892.889 779.412,-892.126 779.353,-891.702 
			778.62,-890.698 777.192,-890.396 776.248,-889.57 775.974,-886.954 775.637,-886.281 775.67,-885.73 775.153,-885.4 
			773.902,-883.85 772.958,-881.593 772.93,-879.552 770.126,-877.177 771.465,-873.523 769.519,-872.458 767.848,-871.087 
			767.873,-870.603 768.482,-870.695 768.878,-871.148 769.456,-870.81 770.191,-871.756 771.043,-872.34 771.592,-871.848 
			772.257,-871.848 772.563,-872.427 772.93,-872.458 773.262,-871.942 773.568,-871.968 773.991,-872.247 774.448,-872.214 
			775.121,-871.638 775.67,-872.155 776.582,-871.638 776.367,-870.328 777.407,-869.717 777.496,-868.988 778.594,-867.803 
			779.69,-868.259 780.086,-867.803 779.567,-867.221 779.842,-866.613 782.123,-866.613 783.253,-867.221 783.437,-864.752 
			784.652,-863.08 785.353,-862.589 785.72,-862.53 786.448,-862.044 787.303,-861.987 788.365,-860.828 787.424,-860.034 
			788.886,-858.789 789.646,-857.326 792.11,-857.353 		"/>
		<polygon fill="none" stroke="#498C9B" stroke-width="0.5" points="768.058,-898.766 769.305,-898.917 770.615,-898.553 
			771.682,-897.639 772.076,-897.856 773.326,-900.598 774.115,-901.722 775.21,-902.543 775.974,-902.881 775.974,-905.253 
			776.432,-905.83 776.854,-905.83 778.042,-904.92 778.775,-904.034 779.655,-904.338 779.809,-907.961 768.576,-917.738 
			759.561,-920.113 759.105,-918.042 756.271,-918.194 753.017,-920.265 751.125,-919.775 751.734,-917.982 752.072,-915.969 
			752.805,-913.838 752.955,-910.766 752.71,-909.699 751.707,-909.001 751.707,-908.485 752.436,-907.72 752.436,-906.868 
			751.949,-906.53 751.767,-904.367 752.283,-904.059 751.855,-903.489 752.224,-903.062 752.925,-902.968 753.291,-904.126 
			753.654,-904.005 753.475,-903.093 754.141,-902.664 754.783,-903.518 756.697,-901.326 757.429,-901.141 758.407,-900.228 
			761.662,-899.287 762.942,-899.439 764.006,-898.857 764.494,-898.674 765.771,-897.117 		"/>
		<polygon fill="none" stroke="#498C9B" stroke-width="0.5" points="751.158,-919.809 751.767,-917.948 752.038,-916.063 
			752.805,-913.807 752.955,-910.766 752.742,-909.759 751.707,-909.001 751.707,-908.449 752.403,-907.749 752.436,-906.868 
			745.617,-902.598 738.339,-902.697 737.182,-901.169 736.602,-900.897 731.24,-901.018 731.338,-903.093 733.771,-903.153 
			734.348,-908.601 734.929,-908.967 735.475,-911.255 736.514,-912.136 737.516,-912.255 737.787,-914.236 743.518,-913.321 
			746.588,-919.717 750.639,-919.744 750.671,-920.021 		"/>
		<polygon fill="none" stroke="#498C9B" stroke-width="0.5" points="723.813,-935.914 725.033,-934.816 727.893,-936.404 
			729.203,-936.187 733.07,-933.969 736.059,-939.477 737.33,-938.687 737.82,-937.437 738.49,-936.556 739.648,-936.1 
			740.348,-934.546 741.414,-933.843 742.664,-932.021 743.543,-931.744 744.886,-930.679 747.017,-928.362 747.75,-927.665 
			748.691,-926.688 749.695,-924.131 750.913,-923.094 750.671,-919.744 746.56,-919.717 743.543,-913.29 737.787,-914.236 
			737.516,-912.255 736.48,-912.136 735.475,-911.255 734.929,-908.938 734.38,-908.601 731.092,-909.518 732.398,-921.667 
			729.965,-921.723 729.998,-923.49 729.143,-923.979 725.703,-924.315 724.754,-924.735 724.971,-926.106 724.605,-926.627 
			723.965,-926.719 723.631,-927.238 723.996,-927.846 723.996,-928.394 723.324,-929.036 		"/>
		<polygon fill="none" stroke="#498C9B" stroke-width="0.5" points="713.217,-931.775 712.55,-932.871 713.707,-933.387 
			714.314,-934.913 715.99,-934.941 716.657,-933.969 719.459,-936.04 719.581,-933.817 720.924,-933.631 721.982,-935.883 
			723.813,-935.883 723.296,-928.971 723.996,-928.427 723.996,-927.812 723.631,-927.204 723.965,-926.748 724.635,-926.627 
			724.971,-926.079 724.754,-924.735 725.732,-924.315 729.172,-923.979 729.998,-923.49 729.965,-921.723 732.398,-921.667 
			731.092,-909.518 723.021,-911.495 721.803,-909.819 718.973,-910.461 717.387,-906.959 714.618,-906.986 713.615,-905.067 
			705.725,-904.947 705.546,-907.536 703.225,-917.063 703.442,-921.054 704.541,-921.788 704.844,-924.464 705.939,-924.858 
			706.762,-924.223 707.493,-923.25 709.838,-924.071 711.877,-928.91 710.869,-930.008 711.845,-931.102 		"/>
		<polygon fill="none" stroke="#498C9B" stroke-width="0.5" points="753.929,-894.079 754.783,-894.868 762.881,-899.465 
			763.945,-898.886 764.494,-898.674 765.742,-897.183 765.834,-896.176 766.231,-895.819 767.598,-895.481 767.449,-894.689 
			767.691,-893.985 768.513,-893.593 768.695,-891.125 770.581,-889.297 775.059,-887.744 776.065,-887.565 775.974,-886.889 
			775.67,-886.281 775.637,-885.704 775.153,-885.4 773.902,-883.785 772.93,-881.593 772.898,-879.552 770.126,-877.177 
			771.465,-873.557 769.456,-872.427 767.811,-871.087 766.383,-872.032 765.193,-872.247 763.399,-873.612 763.614,-874.742 
			761.572,-874.802 759.287,-876.173 758.344,-877.45 757.522,-877.879 756.729,-876.721 755.448,-876.721 753.867,-875.992 
			753.318,-876.325 752.135,-877.662 750.271,-878.488 748.691,-878.634 747.169,-880.986 747.137,-882.05 746.956,-882.6 
			747.229,-883.876 749.816,-886.22 749.816,-887.227 749.515,-888.016 751.707,-888.173 752.375,-888.75 752.375,-889.297 		"/>
		<polygon fill="none" stroke="#498C9B" stroke-width="0.5" points="747.169,-880.889 747.137,-882.018 746.956,-882.566 
			747.229,-883.911 749.786,-886.16 749.848,-887.196 749.543,-888.016 751.675,-888.173 752.375,-888.75 752.345,-889.266 
			753.898,-894.079 754.717,-894.868 762.91,-899.439 761.662,-899.313 759.865,-899.83 758.344,-900.32 757.339,-901.169 
			756.639,-901.353 754.75,-903.549 754.111,-902.637 753.439,-903.12 753.654,-904.034 753.291,-904.126 752.955,-902.936 
			752.161,-903.062 751.826,-903.458 752.313,-904.126 751.767,-904.338 751.949,-906.53 745.617,-902.637 738.369,-902.721 
			737.212,-901.201 736.66,-900.897 735.63,-900.928 735.66,-900.042 736.238,-898.857 736.146,-897.576 734.988,-897.699 
			734.193,-897.945 733.07,-898.886 732.252,-898.831 730.849,-894.991 732.398,-894.503 730.908,-888.32 729.264,-888.351 
			729.354,-883.389 733.07,-883.269 733.285,-879.827 737.33,-879.767 736.902,-874.589 733.952,-874.53 733.804,-867.923 
			746.439,-867.832 748.356,-875.227 748.722,-878.608 		"/>
		<polygon fill="none" stroke="#498C9B" stroke-width="0.5" points="733.403,-841.153 733.771,-867.923 746.439,-867.859 
			748.385,-875.227 748.722,-878.608 750.271,-878.457 752.038,-877.699 752.831,-876.873 753.348,-876.325 753.867,-875.992 
			755.448,-876.721 756.697,-876.721 757.522,-877.879 758.344,-877.45 759.254,-876.205 761.572,-874.802 763.614,-874.742 
			763.399,-873.677 765.166,-872.247 766.35,-872.06 767.848,-871.087 767.966,-858.692 774.693,-847.064 775.637,-846.88 
			775.793,-846.026 777.711,-845.878 779.535,-845.08 780.815,-843.839 780.938,-841.153 781.79,-840.272 783.253,-839.816 
			786.813,-839.42 786.875,-838.023 791.043,-835.129 791.077,-829.74 782.795,-831.167 782.768,-832.417 782.094,-832.387 
			782.275,-835.003 780.848,-835.281 776.127,-834.214 773.174,-834.303 772.257,-834.946 771.528,-836.253 767.783,-836.924 
			769.488,-838.718 767.268,-839.268 766.138,-838.87 764.072,-835.95 760.322,-836.375 758.648,-841.245 746.744,-844.259 		"/>
	</g>
	<g>
		<polygon fill="#8FD0DF" stroke="#498C9B" stroke-width="0.5" points="828.074,-834.46 845.763,-834.579 839.612,-793.047 
			837.877,-800.384 822.409,-800.507 820.947,-803.428 820.521,-804.403 820.213,-805.315 819.975,-807.659 820.275,-809.155 
			821.005,-810.28 821.709,-811.192 821.863,-811.711 821.282,-812.206 821.102,-812.749 820.947,-813.874 820.063,-814.663 
			818.176,-814.754 817.477,-815.245 816.685,-815.701 816.139,-815.575 815.497,-815.64 815.681,-817.892 827.83,-818.076 		"/>
		<polygon fill="#8FD0DF" stroke="#498C9B" stroke-width="0.5" points="794.031,-901.812 795.064,-899.895 796.223,-898.215 
			797.715,-896.487 798.689,-896.089 801.094,-896.695 803.015,-896.422 803.561,-895.819 805.723,-894.443 807.063,-892.829 
			806.971,-889.94 807.368,-889.114 808.493,-889.085 808.344,-887.987 810.383,-885.248 812.176,-885.248 814.31,-880.223 
			815.348,-880.04 815.195,-879.004 814.218,-877.699 815.195,-876.873 815.279,-874.863 817.597,-874.225 817.597,-873.612 
			851.366,-872.949 855.445,-901.169 		"/>
		<polygon fill="#8FD0DF" stroke="#498C9B" stroke-width="0.5" points="817.565,-873.557 851.396,-872.975 847.684,-847.945 
			844.758,-849.436 842.813,-851.386 840.009,-852.116 839.186,-852.029 839.584,-850.382 838.121,-849.137 836.202,-849.137 
			833.463,-850.261 832.764,-851.024 832.275,-852.209 831.33,-853.302 829.288,-854.857 829.172,-856.471 824.538,-859.397 
			823.262,-859.397 822.713,-860.065 822.409,-861.462 822.137,-862.169 820.98,-862.899 819.73,-862.105 815.133,-864.508 
			814.889,-865.333 815.222,-867.313 814.187,-868.288 814.066,-870.207 815.316,-871.274 817.23,-870.631 817.752,-871.578 		"/>
		<polygon fill="#8FD0DF" stroke="#498C9B" stroke-width="0.5" points="815.617,-817.984 827.83,-818.076 828.103,-837.016 
			820.889,-837.229 821.005,-848.647 819.119,-848.891 819.119,-851.232 817.843,-851.693 817.66,-852.544 812.756,-852.605 
			812.756,-857.391 789.676,-857.326 791.077,-854.401 791.99,-853.302 792.598,-854.037 795.035,-852.088 795.615,-851.051 
			795.767,-850.079 796.769,-848.309 796.436,-846.972 798.443,-844.476 799.785,-843.347 800.456,-841.617 801.156,-842.073 
			802.252,-839.391 803.106,-839.481 803.654,-839.331 803.715,-838.566 804.291,-837.837 805.81,-837.924 806.238,-836.924 
			805.597,-836.071 806.514,-834.825 806.485,-832.781 806.848,-831.383 807.581,-830.56 808.8,-829.436 810.811,-826.359 
			811.051,-824.744 810.383,-823.161 810.839,-822.492 810.688,-820.846 811.66,-820.175 812.789,-820.175 813.334,-820.846 
			815.405,-818.655 		"/>
		<polygon fill="#8FD0DF" stroke="#498C9B" stroke-width="0.5" points="777.162,-890.396 778.594,-890.698 779.353,-891.67 
			779.412,-892.126 780.632,-892.889 783.648,-890.086 783.648,-889.387 782.886,-889.054 782.943,-888.32 785.046,-888.385 
			785.198,-886.645 793.816,-886.525 794.123,-880.04 797.809,-879.827 797.809,-877.271 800.789,-877.271 800.731,-872.548 
			806.09,-872.273 807.214,-873.708 817.631,-873.644 817.597,-874.165 815.279,-874.927 815.195,-876.846 814.247,-877.699 
			815.195,-878.972 815.316,-880.102 814.31,-880.256 812.176,-885.218 810.383,-885.248 808.373,-887.956 808.493,-889.085 
			807.335,-889.085 806.971,-890 807.063,-892.829 805.754,-894.41 803.561,-895.78 803.015,-896.454 801.094,-896.758 
			798.75,-896.089 797.715,-896.514 796.193,-898.281 795.064,-899.895 794.031,-901.812 785.138,-901.903 779.809,-907.961 
			779.655,-904.399 778.807,-904.059 778.014,-904.947 776.854,-905.801 776.46,-905.801 775.943,-905.253 775.974,-902.968 
			775.21,-902.514 774.085,-901.751 773.326,-900.564 772.105,-897.885 771.682,-897.607 770.615,-898.553 769.365,-898.949 
			768.088,-898.797 765.742,-897.091 765.863,-896.089 766.199,-895.819 766.993,-895.66 767.598,-895.481 767.418,-894.689 
			767.662,-893.958 768.482,-893.621 768.695,-891.064 770.555,-889.297 775.153,-887.716 776.03,-887.531 776.277,-889.543 		"/>
		<polygon fill="none" stroke="#498C9B" stroke-width="0.5" points="762.942,-935.519 761.479,-936.643 760.109,-936.643 
			759.105,-937.498 756.912,-940.847 758.037,-942.281 759.042,-948.976 761.936,-948.737 761.936,-951.02 762.605,-952.934 
			760.232,-954.061 759.534,-954.947 759.622,-956.344 760.201,-957.99 759.561,-958.965 758.313,-959.547 757.552,-960.884 
			754.905,-960.792 753.837,-961.123 753.867,-962.074 754.693,-962.374 754.658,-964.174 753.41,-964.113 753.348,-966.213 
			745.982,-966.336 746.164,-959.39 739.068,-959.39 737.882,-960.486 736.693,-960.459 735.63,-959.547 735.445,-957.565 
			736.238,-956.344 735.993,-955.586 735.113,-955.34 735.144,-953.702 734.5,-953.207 734.717,-951.445 733.312,-951.411 
			733.07,-952.543 731.367,-952.57 731.212,-955.251 728.109,-954.515 728.258,-947.241 729.264,-947.062 731.061,-944.289 
			732.34,-944.077 734.438,-943.712 735.9,-942.158 736.021,-939.508 737.363,-938.622 737.82,-937.376 738.522,-936.525 
			739.648,-936.066 740.348,-934.577 741.414,-933.817 742.691,-931.987 743.543,-931.744 744.916,-930.679 746.986,-928.362 
			751.583,-932.2 752.679,-931.135 754.477,-931.466 755.634,-931.683 758.192,-931.5 759.439,-934.36 760.077,-935.033 		"/>
		<polygon fill="#8FD0DF" stroke="#498C9B" stroke-width="0.5" points="814.066,-870.178 814.218,-868.288 815.251,-867.282 
			814.889,-865.363 815.133,-864.54 819.852,-862.197 820.98,-862.925 822.197,-862.138 822.771,-860.065 823.354,-859.336 
			824.635,-859.366 829.229,-856.412 829.351,-854.888 831.358,-853.274 832.339,-852.27 832.855,-850.959 833.521,-850.291 
			836.359,-849.164 838.182,-849.195 839.584,-850.407 839.186,-851.997 840.04,-852.175 842.934,-851.329 844.758,-849.408 
			847.713,-847.945 845.763,-834.55 828.074,-834.487 828.103,-837.016 820.918,-837.229 821.039,-848.647 819.088,-848.862 
			819.119,-851.232 817.812,-851.693 817.66,-852.544 812.756,-852.639 812.756,-857.391 807.183,-857.411 807.432,-868.776 
			800.64,-868.832 800.731,-872.582 806.118,-872.273 807.274,-873.708 817.539,-873.523 817.723,-871.543 817.23,-870.631 
			815.348,-871.274 		"/>
	</g>
</g>
</svg>
